<svg width="74" height="151" viewBox="0 0 74 151" fill="none" xmlns="http://www.w3.org/2000/svg">
<circle cx="40.8004" cy="76.6397" r="2.4" fill="#C1DBD7"/>
<circle cx="50.4" cy="76.6397" r="2.4" fill="#C1DBD7"/>
<path d="M63.36 79.0556C63.36 87.3077 60.8838 93.1407 55.7476 99.5743C51.9324 104.353 46.7951 109.302 40.1627 115.691C38.1432 117.636 35.9852 119.715 33.6836 121.964C29.9417 118.017 26.4865 114.558 23.3714 111.441C22.9116 110.98 22.4593 110.528 22.0145 110.082C17.9962 106.054 14.6393 102.634 11.9191 99.3562C6.58005 92.9222 3.83996 87.2184 3.83996 79.0556C3.83996 62.6096 17.1653 49.2799 33.6 49.2799C50.0346 49.2799 63.36 62.6096 63.36 79.0556Z" stroke="#C1DBD7" stroke-width="5.76"/>
<mask id="path-4-inside-1_1740_1609" fill="white">
<path fill-rule="evenodd" clip-rule="evenodd" d="M44.7333 108.8L31.2227 122.31L55.4108 146.499L55.7075 146.202L55.7226 146.217L71.2008 130.739C73.688 128.252 73.688 124.219 71.2008 121.732C66.9994 117.53 60.5931 116.877 55.7065 119.773L44.7333 108.8Z"/>
</mask>
<path d="M31.2227 122.31L27.1497 118.237L23.0768 122.31L27.1497 126.383L31.2227 122.31ZM44.7333 108.8L48.8062 104.727L44.7333 100.654L40.6603 104.727L44.7333 108.8ZM55.4108 146.499L51.3379 150.572L55.4108 154.644L59.4837 150.572L55.4108 146.499ZM55.7075 146.202L59.7805 142.129L55.7075 138.056L51.6346 142.129L55.7075 146.202ZM55.7226 146.217L51.6497 150.29L55.7226 154.363L59.7956 150.29L55.7226 146.217ZM71.2008 130.739L67.1279 126.666L67.1278 126.666L71.2008 130.739ZM71.2008 121.732L67.1279 125.805L71.2008 121.732ZM55.7065 119.773L51.6335 123.846L54.7956 127.008L58.6428 124.728L55.7065 119.773ZM35.2956 126.383L48.8062 112.873L40.6603 104.727L27.1497 118.237L35.2956 126.383ZM59.4838 142.426L35.2956 118.237L27.1497 126.383L51.3379 150.572L59.4838 142.426ZM51.6346 142.129L51.3379 142.426L59.4837 150.572L59.7804 150.275L51.6346 142.129ZM59.7956 142.144L59.7805 142.129L51.6346 150.275L51.6497 150.29L59.7956 142.144ZM67.1278 126.666L51.6497 142.144L59.7956 150.29L75.2737 134.812L67.1278 126.666ZM67.1279 125.805C67.3657 126.042 67.3657 126.428 67.1279 126.666L75.2737 134.812C80.0104 130.075 80.0104 122.395 75.2737 117.659L67.1279 125.805ZM58.6428 124.728C61.3207 123.142 64.8318 123.509 67.1279 125.805L75.2737 117.659C69.1669 111.552 59.8656 110.613 52.7701 114.818L58.6428 124.728ZM40.6603 112.873L51.6335 123.846L59.7794 115.7L48.8062 104.727L40.6603 112.873Z" fill="#C1DBD7" mask="url(#path-4-inside-1_1740_1609)"/>
<mask id="path-6-inside-2_1740_1609" fill="white">
<path fill-rule="evenodd" clip-rule="evenodd" d="M37.6992 122.31L24.1886 108.8L0.000430003 132.988L0.297141 133.285L0.28205 133.3L15.7602 148.778C18.2475 151.265 22.2801 151.265 24.7673 148.778C28.9687 144.577 29.6216 138.17 26.726 133.284L37.6992 122.31Z"/>
</mask>
<path d="M24.1886 108.8L28.2615 104.727L24.1886 100.654L20.1157 104.727L24.1886 108.8ZM37.6992 122.31L41.7721 126.383L45.8451 122.31L41.7721 118.237L37.6992 122.31ZM0.000430003 132.988L-4.07251 128.915L-8.14545 132.988L-4.07249 137.061L0.000430003 132.988ZM0.297141 133.285L4.36982 137.358L8.44328 133.285L4.37006 129.212L0.297141 133.285ZM0.28205 133.3L-3.79063 129.227L-7.86408 133.3L-3.79088 137.373L0.28205 133.3ZM15.7602 148.778L19.8332 144.705L19.8332 144.705L15.7602 148.778ZM24.7673 148.778L20.6944 144.705L20.6944 144.705L24.7673 148.778ZM26.726 133.284L22.6531 129.211L19.491 132.373L21.7707 136.22L26.726 133.284ZM20.1157 112.873L33.6263 126.383L41.7721 118.237L28.2615 104.727L20.1157 112.873ZM4.07337 137.061L28.2615 112.873L20.1157 104.727L-4.07251 128.915L4.07337 137.061ZM4.37006 129.212L4.07335 128.915L-4.07249 137.061L-3.77578 137.358L4.37006 129.212ZM4.35473 137.373L4.36982 137.358L-3.77554 129.211L-3.79063 129.227L4.35473 137.373ZM19.8332 144.705L4.35498 129.227L-3.79088 137.373L11.6873 152.851L19.8332 144.705ZM20.6944 144.705C20.4565 144.943 20.071 144.943 19.8332 144.705L11.6873 152.851C16.4239 157.588 24.1036 157.588 28.8402 152.851L20.6944 144.705ZM21.7707 136.22C23.3575 138.898 22.9904 142.409 20.6944 144.705L28.8402 152.851C34.9471 146.744 35.8858 137.443 31.6814 130.347L21.7707 136.22ZM33.6263 118.237L22.6531 129.211L30.7989 137.357L41.7721 126.383L33.6263 118.237Z" fill="#C1DBD7" mask="url(#path-6-inside-2_1740_1609)"/>
<path fill-rule="evenodd" clip-rule="evenodd" d="M27.0404 0C22.2687 0 18.4004 3.86825 18.4004 8.63999V24C18.4004 28.7717 22.2687 32.64 27.0404 32.64H31.8043L33.3514 38.2287L34.8986 32.64H39.6803C44.4521 32.64 48.3203 28.7717 48.3203 24V8.64C48.3203 3.86826 44.4521 0 39.6803 0H27.0404Z" fill="#C1DBD7"/>
<path d="M29.8161 19.2986C29.2677 19.2916 28.8107 18.8486 28.8177 18.3002C28.8107 17.7518 29.2677 17.3018 29.8161 17.3018C30.3575 17.3018 30.8075 17.7518 30.8146 18.3002C30.8075 18.8486 30.3575 19.2916 29.8161 19.2986ZM33.2002 19.2986C32.6518 19.2916 32.1947 18.8486 32.2018 18.3002C32.1947 17.7518 32.6518 17.3018 33.2002 17.3018C33.7416 17.3018 34.1916 17.7518 34.1986 18.3002C34.1916 18.8486 33.7416 19.2916 33.2002 19.2986ZM36.5843 19.2986C36.0358 19.2916 35.5788 18.8486 35.5858 18.3002C35.5788 17.7518 36.0358 17.3018 36.5843 17.3018C37.1257 17.3018 37.5757 17.7518 37.5827 18.3002C37.5757 18.8486 37.1257 19.2916 36.5843 19.2986Z" fill="white"/>
</svg>
