<svg width="154" height="48" viewBox="0 0 154 48" fill="none" xmlns="http://www.w3.org/2000/svg">
<ellipse cx="19.2687" cy="13.8693" rx="1.10073" ry="1.10071" fill="#33C4A8"/>
<ellipse cx="23.6715" cy="13.8693" rx="1.10073" ry="1.10071" fill="#33C4A8"/>
<path d="M29.6154 14.9769C29.6154 18.7615 28.4798 21.4367 26.1242 24.3874C24.3744 26.5792 22.0182 28.8488 18.9764 31.779C18.0502 32.6712 17.0604 33.6246 16.0048 34.6557C14.2886 32.8456 12.704 31.2595 11.2752 29.8296C11.0644 29.6185 10.8569 29.4109 10.6529 29.2064C8.81002 27.3592 7.27042 25.7908 6.02283 24.2873C3.57414 21.3365 2.31744 18.7206 2.31744 14.9769C2.31744 7.43429 8.42889 1.32086 15.9664 1.32086C23.504 1.32086 29.6154 7.43429 29.6154 14.9769Z" stroke="#33C4A8" stroke-width="2.64172"/>
<mask id="path-4-inside-1_1356_2331" fill="white">
<path fill-rule="evenodd" clip-rule="evenodd" d="M21.0734 28.6191L14.877 34.8155L25.9705 45.9089L26.1066 45.7728L26.1137 45.7799L33.2125 38.6811C34.3532 37.5404 34.3532 35.6909 33.2125 34.5502C31.2856 32.6233 28.3474 32.3239 26.1062 33.6519L21.0734 28.6191Z"/>
</mask>
<path d="M14.877 34.8155L13.009 32.9475L11.141 34.8155L13.009 36.6835L14.877 34.8155ZM21.0734 28.6191L22.9414 26.7511L21.0734 24.8832L19.2054 26.7511L21.0734 28.6191ZM25.9705 45.9089L24.1025 47.7769L25.9705 49.6449L27.8385 47.7769L25.9705 45.9089ZM26.1066 45.7728L27.9745 43.9047L26.1065 42.037L24.2386 43.9048L26.1066 45.7728ZM26.1137 45.7799L24.2458 47.648L26.1138 49.5157L27.9816 47.6479L26.1137 45.7799ZM33.2125 38.6811L35.0805 40.5491L33.2125 38.6811ZM33.2125 34.5502L35.0805 32.6822V32.6822L33.2125 34.5502ZM26.1062 33.6519L24.2383 35.5199L25.6885 36.9701L27.4529 35.9246L26.1062 33.6519ZM16.7449 36.6835L22.9414 30.4871L19.2054 26.7511L13.009 32.9475L16.7449 36.6835ZM27.8385 44.0409L16.7449 32.9475L13.009 36.6835L24.1025 47.7769L27.8385 44.0409ZM24.2386 43.9048L24.1025 44.0409L27.8385 47.7769L27.9746 47.6408L24.2386 43.9048ZM27.9815 43.9118L27.9745 43.9047L24.2387 47.6409L24.2458 47.648L27.9815 43.9118ZM31.3445 36.8131L24.2457 43.9119L27.9816 47.6479L35.0805 40.5491L31.3445 36.8131ZM31.3445 36.4182C31.4536 36.5273 31.4536 36.7041 31.3445 36.8131L35.0805 40.5491C37.2529 38.3768 37.2529 34.8546 35.0805 32.6822L31.3445 36.4182ZM27.4529 35.9246C28.6811 35.1968 30.2915 35.3652 31.3445 36.4182L35.0805 32.6822C32.2796 29.8814 28.0137 29.4509 24.7595 31.3792L27.4529 35.9246ZM19.2054 30.4871L24.2383 35.5199L27.9742 31.7839L22.9414 26.7511L19.2054 30.4871Z" fill="#33C4A8" mask="url(#path-4-inside-1_1356_2331)"/>
<mask id="path-6-inside-2_1356_2331" fill="white">
<path fill-rule="evenodd" clip-rule="evenodd" d="M17.8472 34.8155L11.6507 28.6191L0.557163 39.7125L0.693571 39.849L0.686727 39.8558L7.78556 46.9546C8.9263 48.0953 10.7758 48.0953 11.9165 46.9546C13.8436 45.0275 14.1429 42.0892 12.8146 39.848L17.8472 34.8155Z"/>
</mask>
<path d="M11.6507 28.6191L13.5187 26.7511L11.6507 24.8832L9.78275 26.7511L11.6507 28.6191ZM17.8472 34.8155L19.7151 36.6835L21.5832 34.8155L19.7151 32.9475L17.8472 34.8155ZM0.557163 39.7125L-1.3108 37.8446L-3.17882 39.7125L-1.31081 41.5805L0.557163 39.7125ZM0.693571 39.849L2.56168 41.7168L4.42941 39.8488L2.56154 37.981L0.693571 39.849ZM0.686727 39.8558L-1.18138 37.988L-3.04912 39.8559L-1.18124 41.7238L0.686727 39.8558ZM7.78556 46.9546L9.65353 45.0866L7.78556 46.9546ZM11.9165 46.9546L13.7845 48.8225L13.7845 48.8225L11.9165 46.9546ZM12.8146 39.848L10.9467 37.98L9.49627 39.4304L10.5421 41.1949L12.8146 39.848ZM9.78275 30.4871L15.9792 36.6835L19.7151 32.9475L13.5187 26.7511L9.78275 30.4871ZM2.42513 41.5805L13.5187 30.4871L9.78275 26.7511L-1.3108 37.8446L2.42513 41.5805ZM2.56154 37.981L2.42514 37.8446L-1.31081 41.5805L-1.1744 41.7169L2.56154 37.981ZM2.55484 41.7237L2.56168 41.7168L-1.17454 37.9811L-1.18138 37.988L2.55484 41.7237ZM9.65353 45.0866L2.5547 37.9878L-1.18124 41.7238L5.91759 48.8225L9.65353 45.0866ZM10.0486 45.0866C9.93948 45.1956 9.76261 45.1956 9.65353 45.0866L5.91759 48.8225C8.08998 50.9949 11.6121 50.9949 13.7845 48.8225L10.0486 45.0866ZM10.5421 41.1949C11.27 42.4231 11.1017 44.0335 10.0486 45.0866L13.7845 48.8225C16.5855 46.0216 17.0159 41.7554 15.0872 38.5011L10.5421 41.1949ZM15.9792 32.9475L10.9467 37.98L14.6826 41.716L19.7151 36.6835L15.9792 32.9475Z" fill="#33C4A8" mask="url(#path-6-inside-2_1356_2331)"/>
<rect x="77.8394" y="13.6494" width="2.20145" height="1.10071" rx="0.440287" fill="#33C4A8"/>
<ellipse cx="83.3922" cy="13.8698" rx="1.10073" ry="1.10071" fill="#33C4A8"/>
<path d="M89.3361 14.9779C89.3361 18.7625 88.2005 21.4377 85.8449 24.3883C84.0951 26.5801 81.7389 28.8498 78.6971 31.7799C77.7709 32.6721 76.7811 33.6256 75.7255 34.6567C74.0094 32.8465 72.4247 31.2605 70.9959 29.8305C70.7851 29.6195 70.5776 29.4119 70.3736 29.2074C68.5307 27.3602 66.9911 25.7917 65.7435 24.2883C63.2948 21.3375 62.0381 18.7215 62.0381 14.9779C62.0381 7.43527 68.1496 1.32184 75.6871 1.32184C83.2247 1.32184 89.3361 7.43527 89.3361 14.9779Z" stroke="#33C4A8" stroke-width="2.64172"/>
<mask id="path-11-inside-3_1356_2331" fill="white">
<path fill-rule="evenodd" clip-rule="evenodd" d="M80.7931 28.6187L74.5967 34.815L85.6902 45.9084L85.8261 45.7725L85.8335 45.7799L92.9323 38.6811C94.073 37.5404 94.073 35.6909 92.9323 34.5502C91.0054 32.6234 88.0675 32.3239 85.8263 33.6518L80.7931 28.6187Z"/>
</mask>
<path d="M74.5967 34.815L72.7287 32.947L70.8607 34.815L72.7287 36.683L74.5967 34.815ZM80.7931 28.6187L82.6611 26.7507L80.7931 24.8827L78.9252 26.7507L80.7931 28.6187ZM85.6902 45.9084L83.8223 47.7764L85.6902 49.6444L87.5582 47.7764L85.6902 45.9084ZM85.8261 45.7725L87.6941 43.9046L85.8261 42.0366L83.9582 43.9045L85.8261 45.7725ZM85.8335 45.7799L83.9655 47.6479L85.8335 49.5158L87.7014 47.6479L85.8335 45.7799ZM92.9323 38.6811L94.8003 40.5491L92.9323 38.6811ZM92.9323 34.5502L94.8003 32.6822V32.6822L92.9323 34.5502ZM85.8263 33.6518L83.9583 35.5197L85.4085 36.9699L87.1729 35.9245L85.8263 33.6518ZM76.4646 36.683L82.6611 30.4866L78.9252 26.7507L72.7287 32.947L76.4646 36.683ZM87.5582 44.0404L76.4646 32.947L72.7287 36.683L83.8223 47.7764L87.5582 44.0404ZM83.9582 43.9045L83.8223 44.0404L87.5582 47.7764L87.6941 47.6405L83.9582 43.9045ZM87.7015 43.9119L87.6941 43.9046L83.9582 47.6405L83.9655 47.6479L87.7015 43.9119ZM91.0643 36.8131L83.9655 43.9119L87.7014 47.6479L94.8003 40.5491L91.0643 36.8131ZM91.0643 36.4182C91.1734 36.5273 91.1734 36.7041 91.0643 36.8131L94.8003 40.5491C96.9727 38.3767 96.9727 34.8546 94.8003 32.6822L91.0643 36.4182ZM87.1729 35.9245C88.4011 35.1968 90.0113 35.3652 91.0643 36.4182L94.8003 32.6822C91.9996 29.8815 87.7339 29.451 84.4797 31.379L87.1729 35.9245ZM78.9252 30.4866L83.9583 35.5197L87.6943 31.7838L82.6611 26.7507L78.9252 30.4866Z" fill="#33C4A8" mask="url(#path-11-inside-3_1356_2331)"/>
<mask id="path-13-inside-4_1356_2331" fill="white">
<path fill-rule="evenodd" clip-rule="evenodd" d="M77.5659 34.815L71.3695 28.6187L60.2759 39.7121L60.4119 39.8481L60.4055 39.8545L67.5043 46.9533C68.645 48.094 70.4945 48.094 71.6353 46.9533C73.5622 45.0264 73.8616 42.0884 72.5337 39.8472L77.5659 34.815Z"/>
</mask>
<path d="M71.3695 28.6187L73.2374 26.7507L71.3695 24.8827L69.5015 26.7507L71.3695 28.6187ZM77.5659 34.815L79.4339 36.683L81.3019 34.815L79.4339 32.947L77.5659 34.815ZM60.2759 39.7121L58.4079 37.8441L56.5399 39.7121L58.4079 41.5801L60.2759 39.7121ZM60.4119 39.8481L62.2798 41.7162L64.148 39.8482L62.2799 37.9801L60.4119 39.8481ZM60.4055 39.8545L58.5376 37.9864L56.6693 39.8544L58.5375 41.7225L60.4055 39.8545ZM67.5043 46.9533L69.3723 45.0853L67.5043 46.9533ZM71.6353 46.9533L69.7673 45.0853L69.7673 45.0853L71.6353 46.9533ZM72.5337 39.8472L70.6657 37.9792L69.2155 39.4294L70.2609 41.1939L72.5337 39.8472ZM69.5015 30.4866L75.6979 36.683L79.4339 32.947L73.2374 26.7507L69.5015 30.4866ZM62.1439 41.5801L73.2374 30.4866L69.5015 26.7507L58.4079 37.8441L62.1439 41.5801ZM62.2799 37.9801L62.1439 37.8441L58.4079 41.5801L58.5439 41.7161L62.2799 37.9801ZM62.2733 41.7226L62.2798 41.7162L58.5441 37.9799L58.5376 37.9864L62.2733 41.7226ZM69.3723 45.0853L62.2734 37.9865L58.5375 41.7225L65.6363 48.8213L69.3723 45.0853ZM69.7673 45.0853C69.6582 45.1944 69.4813 45.1944 69.3723 45.0853L65.6363 48.8213C67.8087 50.9936 71.3308 50.9936 73.5032 48.8213L69.7673 45.0853ZM70.2609 41.1939C70.9887 42.422 70.8203 44.0323 69.7673 45.0853L73.5032 48.8213C76.304 46.0205 76.7346 41.7547 74.8064 38.5006L70.2609 41.1939ZM75.6979 32.947L70.6657 37.9792L74.4016 41.7152L79.4339 36.683L75.6979 32.947Z" fill="#33C4A8" mask="url(#path-13-inside-4_1356_2331)"/>
<ellipse cx="138.708" cy="13.8698" rx="1.10073" ry="1.10071" fill="#33C4A8"/>
<ellipse cx="143.112" cy="13.8698" rx="1.10073" ry="1.10071" fill="#33C4A8"/>
<path d="M149.055 14.9774C149.055 18.762 147.92 21.4372 145.564 24.3879C143.814 26.5796 141.458 28.8493 138.416 31.7795C137.49 32.6716 136.5 33.6251 135.445 34.6562C133.729 32.8461 132.144 31.26 130.715 29.8301C130.504 29.619 130.297 29.4114 130.093 29.2069C128.25 27.3597 126.71 25.7912 125.463 24.2878C123.014 21.337 121.757 18.721 121.757 14.9774C121.757 7.43478 127.869 1.32135 135.406 1.32135C142.944 1.32135 149.055 7.43478 149.055 14.9774Z" stroke="#33C4A8" stroke-width="2.64172"/>
<mask id="path-18-inside-5_1356_2331" fill="white">
<path fill-rule="evenodd" clip-rule="evenodd" d="M140.513 28.6201L134.317 34.8165L145.41 45.9099L145.546 45.7741L145.553 45.7813L152.652 38.6825C153.793 37.5418 153.793 35.6923 152.652 34.5516C150.725 32.6248 147.788 32.3253 145.546 33.6531L140.513 28.6201Z"/>
</mask>
<path d="M134.317 34.8165L132.449 32.9485L130.581 34.8165L132.449 36.6845L134.317 34.8165ZM140.513 28.6201L142.381 26.7521L140.513 24.8842L138.645 26.7521L140.513 28.6201ZM145.41 45.9099L143.542 47.7779L145.41 49.6458L147.278 47.7779L145.41 45.9099ZM145.546 45.7741L147.414 43.9062L145.546 42.038L143.678 43.9061L145.546 45.7741ZM145.553 45.7813L143.685 47.6491L145.553 49.5173L147.421 47.6493L145.553 45.7813ZM152.652 38.6825L150.784 36.8145L150.784 36.8145L152.652 38.6825ZM152.652 34.5516L154.52 32.6836V32.6836L152.652 34.5516ZM145.546 33.6531L143.678 35.5211L145.129 36.9712L146.893 35.9259L145.546 33.6531ZM136.185 36.6845L142.381 30.4881L138.645 26.7521L132.449 32.9485L136.185 36.6845ZM147.278 44.0419L136.185 32.9485L132.449 36.6845L143.542 47.7779L147.278 44.0419ZM143.678 43.9061L143.542 44.0419L147.278 47.7779L147.414 47.6421L143.678 43.9061ZM147.422 43.9134L147.414 43.9062L143.678 47.6419L143.685 47.6491L147.422 43.9134ZM150.784 36.8145L143.685 43.9133L147.421 47.6493L154.52 40.5505L150.784 36.8145ZM150.784 36.4196C150.893 36.5287 150.893 36.7055 150.784 36.8145L154.52 40.5505C156.693 38.3781 156.693 34.856 154.52 32.6836L150.784 36.4196ZM146.893 35.9259C148.121 35.1982 149.731 35.3666 150.784 36.4196L154.52 32.6836C151.72 29.883 147.454 29.4524 144.2 31.3803L146.893 35.9259ZM138.645 30.4881L143.678 35.5211L147.414 31.7851L142.381 26.7521L138.645 30.4881Z" fill="#33C4A8" mask="url(#path-18-inside-5_1356_2331)"/>
<mask id="path-20-inside-6_1356_2331" fill="white">
<path fill-rule="evenodd" clip-rule="evenodd" d="M137.286 34.8155L131.09 28.6191L119.996 39.7125L120.132 39.8489L120.126 39.8557L127.225 46.9545C128.365 48.0952 130.215 48.0952 131.355 46.9545C133.283 45.0275 133.582 42.0892 132.254 39.848L137.286 34.8155Z"/>
</mask>
<path d="M131.09 28.6191L132.958 26.7511L131.09 24.8832L129.222 26.7511L131.09 28.6191ZM137.286 34.8155L139.154 36.6835L141.022 34.8155L139.154 32.9475L137.286 34.8155ZM119.996 39.7125L118.128 37.8446L116.26 39.7125L118.128 41.5805L119.996 39.7125ZM120.132 39.8489L122.001 41.7168L123.868 39.8488L122 37.9809L120.132 39.8489ZM120.126 39.8557L118.258 37.9879L116.39 39.8559L118.258 41.7237L120.126 39.8557ZM127.225 46.9545L129.093 45.0865L127.225 46.9545ZM131.355 46.9545L133.223 48.8225L133.223 48.8225L131.355 46.9545ZM132.254 39.848L130.386 37.98L128.935 39.4303L129.981 41.1948L132.254 39.848ZM129.222 30.4871L135.418 36.6835L139.154 32.9475L132.958 26.7511L129.222 30.4871ZM121.864 41.5805L132.958 30.4871L129.222 26.7511L118.128 37.8446L121.864 41.5805ZM122 37.9809L121.864 37.8446L118.128 41.5805L118.265 41.7169L122 37.9809ZM121.994 41.7236L122.001 41.7168L118.264 37.9811L118.258 37.9879L121.994 41.7236ZM129.093 45.0865L121.994 37.9877L118.258 41.7237L125.357 48.8225L129.093 45.0865ZM129.488 45.0865C129.378 45.1956 129.202 45.1956 129.093 45.0865L125.357 48.8225C127.529 50.9948 131.051 50.9948 133.223 48.8225L129.488 45.0865ZM129.981 41.1948C130.709 42.423 130.541 44.0334 129.488 45.0865L133.223 48.8225C136.024 46.0215 136.455 41.7553 134.526 38.5011L129.981 41.1948ZM135.418 32.9475L130.386 37.98L134.122 41.7159L139.154 36.6835L135.418 32.9475Z" fill="#33C4A8" mask="url(#path-20-inside-6_1356_2331)"/>
</svg>
