<svg width="393" height="240" viewBox="0 0 393 240" fill="none" xmlns="http://www.w3.org/2000/svg">
<rect width="393" height="240" fill="#EAF9F6"/>
<path d="M131.131 104.325C131.131 111.081 129.104 115.857 124.898 121.124C121.775 125.037 117.569 129.089 112.138 134.32C110.485 135.913 108.718 137.615 106.833 139.455C103.77 136.224 100.941 133.392 98.3903 130.84C98.0139 130.463 97.6435 130.092 97.2794 129.727C93.9895 126.43 91.241 123.63 89.0138 120.946C84.6425 115.678 82.399 111.008 82.399 104.325C82.399 90.8594 93.3091 79.9456 106.765 79.9456C120.221 79.9456 131.131 90.8594 131.131 104.325Z" fill="white" stroke="#33C4A8" stroke-width="4.716"/>
<ellipse cx="112.66" cy="102.347" rx="1.965" ry="1.965" fill="#33C4A8"/>
<ellipse cx="120.52" cy="102.347" rx="1.965" ry="1.965" fill="#33C4A8"/>
<mask id="path-4-inside-1_1450_1169" fill="white">
<path fill-rule="evenodd" clip-rule="evenodd" d="M115.881 128.678L104.819 139.74L124.623 159.544L124.866 159.301L124.878 159.313L137.551 146.64C139.587 144.604 139.587 141.302 137.551 139.266C134.111 135.826 128.866 135.291 124.865 137.662L115.881 128.678Z"/>
</mask>
<path fill-rule="evenodd" clip-rule="evenodd" d="M115.881 128.678L104.819 139.74L124.623 159.544L124.866 159.301L124.878 159.313L137.551 146.64C139.587 144.604 139.587 141.302 137.551 139.266C134.111 135.826 128.866 135.291 124.865 137.662L115.881 128.678Z" fill="white"/>
<path d="M104.819 139.74L101.484 136.405L98.1494 139.74L101.484 143.074L104.819 139.74ZM115.881 128.678L119.215 125.343L115.881 122.008L112.546 125.343L115.881 128.678ZM124.623 159.544L121.288 162.878L124.623 166.213L127.958 162.878L124.623 159.544ZM124.866 159.301L128.201 155.966L124.866 152.631L121.531 155.966L124.866 159.301ZM124.878 159.313L121.543 162.648L124.878 165.982L128.213 162.648L124.878 159.313ZM137.551 146.64L134.216 143.306V143.306L137.551 146.64ZM137.551 139.266L140.886 135.931V135.931L137.551 139.266ZM124.865 137.662L121.53 140.997L124.119 143.586L127.269 141.719L124.865 137.662ZM108.154 143.074L119.215 132.012L112.546 125.343L101.484 136.405L108.154 143.074ZM127.958 156.209L108.154 136.405L101.484 143.074L121.288 162.878L127.958 156.209ZM121.531 155.966L121.288 156.209L127.958 162.878L128.201 162.635L121.531 155.966ZM128.213 155.978L128.201 155.966L121.531 162.635L121.543 162.648L128.213 155.978ZM134.216 143.306L121.543 155.978L128.213 162.648L140.886 149.975L134.216 143.306ZM134.216 142.6C134.411 142.795 134.411 143.111 134.216 143.306L140.886 149.975C144.764 146.097 144.764 139.809 140.886 135.931L134.216 142.6ZM127.269 141.719C129.462 140.42 132.336 140.721 134.216 142.6L140.886 135.931C135.886 130.931 128.27 130.162 122.461 133.605L127.269 141.719ZM112.546 132.012L121.53 140.997L128.2 134.327L119.215 125.343L112.546 132.012Z" fill="#33C4A8" mask="url(#path-4-inside-1_1450_1169)"/>
<mask id="path-6-inside-2_1450_1169" fill="white">
<path fill-rule="evenodd" clip-rule="evenodd" d="M110.121 139.74L99.0593 128.678L79.2552 148.482L79.4981 148.725L79.4857 148.737L92.1584 161.41C94.1949 163.446 97.4966 163.446 99.533 161.41C102.973 157.97 103.507 152.725 101.137 148.724L110.121 139.74Z"/>
</mask>
<path fill-rule="evenodd" clip-rule="evenodd" d="M110.121 139.74L99.0593 128.678L79.2552 148.482L79.4981 148.725L79.4857 148.737L92.1584 161.41C94.1949 163.446 97.4966 163.446 99.533 161.41C102.973 157.97 103.507 152.725 101.137 148.724L110.121 139.74Z" fill="white"/>
<path d="M99.0593 128.678L102.394 125.343L99.0593 122.008L95.7246 125.343L99.0593 128.678ZM110.121 139.74L113.456 143.074L116.791 139.74L113.456 136.405L110.121 139.74ZM79.2552 148.482L75.9205 145.147L72.5858 148.482L75.9205 151.817L79.2552 148.482ZM79.4981 148.725L82.8328 152.059L86.1675 148.725L82.8328 145.39L79.4981 148.725ZM79.4857 148.737L76.151 145.402L72.8163 148.737L76.151 152.072L79.4857 148.737ZM92.1584 161.41L88.8237 164.745L88.8237 164.745L92.1584 161.41ZM99.533 161.41L96.1983 158.075L96.1983 158.075L99.533 161.41ZM101.137 148.724L97.802 145.389L95.2131 147.978L97.0795 151.128L101.137 148.724ZM95.7246 132.012L106.786 143.074L113.456 136.405L102.394 125.343L95.7246 132.012ZM82.5899 151.817L102.394 132.012L95.7246 125.343L75.9205 145.147L82.5899 151.817ZM82.8328 145.39L82.5899 145.147L75.9205 151.817L76.1634 152.059L82.8328 145.39ZM82.8204 152.072L82.8328 152.059L76.1634 145.39L76.151 145.402L82.8204 152.072ZM95.4932 158.075L82.8204 145.402L76.151 152.072L88.8237 164.745L95.4932 158.075ZM96.1983 158.075C96.0036 158.27 95.6879 158.27 95.4932 158.075L88.8237 164.745C92.7019 168.623 98.9896 168.623 102.868 164.745L96.1983 158.075ZM97.0795 151.128C98.3787 153.321 98.0781 156.195 96.1983 158.075L102.868 164.745C107.868 159.745 108.636 152.129 105.194 146.32L97.0795 151.128ZM106.786 136.405L97.802 145.389L104.471 152.059L113.456 143.074L106.786 136.405Z" fill="#33C4A8" mask="url(#path-6-inside-2_1450_1169)"/>
<path d="M218.464 104.325C218.464 111.081 216.437 115.857 212.232 121.124C209.108 125.037 204.902 129.089 199.472 134.32C197.818 135.913 196.051 137.615 194.167 139.455C191.103 136.224 188.274 133.392 185.724 130.84C185.347 130.463 184.977 130.092 184.613 129.727C181.323 126.43 178.575 123.63 176.347 120.946C171.976 115.678 169.733 111.008 169.733 104.325C169.733 90.8594 180.643 79.9456 194.099 79.9456C207.554 79.9456 218.464 90.8594 218.464 104.325Z" fill="white" stroke="#33C4A8" stroke-width="4.716"/>
<mask id="path-9-inside-3_1450_1169" fill="white">
<path fill-rule="evenodd" clip-rule="evenodd" d="M203.214 128.678L192.152 139.74L211.956 159.544L212.199 159.301L212.212 159.313L224.884 146.64C226.921 144.604 226.921 141.302 224.884 139.266C221.445 135.826 216.199 135.291 212.198 137.662L203.214 128.678Z"/>
</mask>
<path fill-rule="evenodd" clip-rule="evenodd" d="M203.214 128.678L192.152 139.74L211.956 159.544L212.199 159.301L212.212 159.313L224.884 146.64C226.921 144.604 226.921 141.302 224.884 139.266C221.445 135.826 216.199 135.291 212.198 137.662L203.214 128.678Z" fill="white"/>
<path d="M192.152 139.74L188.818 136.405L185.483 139.74L188.818 143.074L192.152 139.74ZM203.214 128.678L206.549 125.343L203.214 122.008L199.879 125.343L203.214 128.678ZM211.956 159.544L208.622 162.878L211.956 166.213L215.291 162.878L211.956 159.544ZM212.199 159.301L215.534 155.966L212.199 152.631L208.865 155.966L212.199 159.301ZM212.212 159.313L208.877 162.648L212.212 165.982L215.546 162.648L212.212 159.313ZM224.884 146.64L221.55 143.306L224.884 146.64ZM224.884 139.266L228.219 135.931V135.931L224.884 139.266ZM212.198 137.662L208.864 140.997L211.453 143.586L214.603 141.719L212.198 137.662ZM195.487 143.074L206.549 132.012L199.879 125.343L188.818 136.405L195.487 143.074ZM215.291 156.209L195.487 136.405L188.818 143.074L208.622 162.878L215.291 156.209ZM208.865 155.966L208.622 156.209L215.291 162.878L215.534 162.635L208.865 155.966ZM215.546 155.978L215.534 155.966L208.865 162.635L208.877 162.648L215.546 155.978ZM221.55 143.306L208.877 155.978L215.546 162.648L228.219 149.975L221.55 143.306ZM221.55 142.6C221.744 142.795 221.744 143.111 221.55 143.306L228.219 149.975C232.097 146.097 232.097 139.809 228.219 135.931L221.55 142.6ZM214.603 141.719C216.795 140.42 219.67 140.721 221.55 142.6L228.219 135.931C223.219 130.931 215.604 130.162 209.794 133.605L214.603 141.719ZM199.879 132.012L208.864 140.997L215.533 134.327L206.549 125.343L199.879 132.012Z" fill="#33C4A8" mask="url(#path-9-inside-3_1450_1169)"/>
<mask id="path-11-inside-4_1450_1169" fill="white">
<path fill-rule="evenodd" clip-rule="evenodd" d="M197.454 139.74L186.392 128.678L166.588 148.482L166.831 148.725L166.819 148.737L179.492 161.41C181.528 163.446 184.83 163.446 186.866 161.41C190.306 157.97 190.841 152.725 188.47 148.724L197.454 139.74Z"/>
</mask>
<path fill-rule="evenodd" clip-rule="evenodd" d="M197.454 139.74L186.392 128.678L166.588 148.482L166.831 148.725L166.819 148.737L179.492 161.41C181.528 163.446 184.83 163.446 186.866 161.41C190.306 157.97 190.841 152.725 188.47 148.724L197.454 139.74Z" fill="white"/>
<path d="M186.392 128.678L189.727 125.343L186.392 122.008L183.058 125.343L186.392 128.678ZM197.454 139.74L200.789 143.074L204.124 139.74L200.789 136.405L197.454 139.74ZM166.588 148.482L163.254 145.147L159.919 148.482L163.254 151.817L166.588 148.482ZM166.831 148.725L170.166 152.06L173.501 148.725L170.166 145.39L166.831 148.725ZM166.819 148.737L163.484 145.402L160.149 148.737L163.484 152.072L166.819 148.737ZM179.492 161.41L176.157 164.745L176.157 164.745L179.492 161.41ZM186.866 161.41L190.201 164.745L190.201 164.745L186.866 161.41ZM188.47 148.724L185.135 145.389L182.546 147.978L184.413 151.128L188.47 148.724ZM183.058 132.012L194.119 143.074L200.789 136.405L189.727 125.343L183.058 132.012ZM169.923 151.817L189.727 132.012L183.058 125.343L163.254 145.147L169.923 151.817ZM170.166 145.39L169.923 145.147L163.254 151.817L163.497 152.06L170.166 145.39ZM170.154 152.072L170.166 152.06L163.497 145.39L163.484 145.402L170.154 152.072ZM182.826 158.075L170.154 145.402L163.484 152.072L176.157 164.745L182.826 158.075ZM183.531 158.075C183.337 158.27 183.021 158.27 182.826 158.075L176.157 164.745C180.035 168.623 186.323 168.623 190.201 164.745L183.531 158.075ZM184.413 151.128C185.712 153.321 185.411 156.195 183.531 158.075L190.201 164.745C195.201 159.745 195.969 152.129 192.527 146.32L184.413 151.128ZM194.119 136.405L185.135 145.389L191.805 152.059L200.789 143.074L194.119 136.405Z" fill="#33C4A8" mask="url(#path-11-inside-4_1450_1169)"/>
<rect x="197.941" y="101.954" width="3.93" height="1.965" rx="0.786" fill="#33C4A8"/>
<ellipse cx="207.854" cy="102.347" rx="1.965" ry="1.965" fill="#33C4A8"/>
<path d="M305.798 104.325C305.798 111.081 303.771 115.857 299.566 121.124C296.442 125.037 292.236 129.089 286.806 134.32C285.152 135.913 283.385 137.615 281.501 139.455C278.437 136.224 275.608 133.392 273.058 130.84C272.681 130.463 272.311 130.092 271.947 129.727C268.657 126.43 265.908 123.63 263.681 120.946C259.31 115.678 257.066 111.008 257.066 104.325C257.066 90.8594 267.977 79.9456 281.432 79.9456C294.888 79.9456 305.798 90.8594 305.798 104.325Z" fill="white" stroke="#33C4A8" stroke-width="4.716"/>
<mask id="path-16-inside-5_1450_1169" fill="white">
<path fill-rule="evenodd" clip-rule="evenodd" d="M290.548 128.678L279.486 139.74L299.29 159.544L299.533 159.301L299.546 159.313L312.218 146.64C314.255 144.604 314.255 141.302 312.218 139.266C308.778 135.826 303.533 135.291 299.532 137.662L290.548 128.678Z"/>
</mask>
<path fill-rule="evenodd" clip-rule="evenodd" d="M290.548 128.678L279.486 139.74L299.29 159.544L299.533 159.301L299.546 159.313L312.218 146.64C314.255 144.604 314.255 141.302 312.218 139.266C308.778 135.826 303.533 135.291 299.532 137.662L290.548 128.678Z" fill="white"/>
<path d="M279.486 139.74L276.152 136.405L272.817 139.74L276.152 143.074L279.486 139.74ZM290.548 128.678L293.883 125.343L290.548 122.008L287.213 125.343L290.548 128.678ZM299.29 159.544L295.956 162.878L299.29 166.213L302.625 162.878L299.29 159.544ZM299.533 159.301L302.868 155.966L299.533 152.631L296.199 155.966L299.533 159.301ZM299.546 159.313L296.211 162.648L299.546 165.982L302.88 162.648L299.546 159.313ZM312.218 146.64L308.884 143.306L312.218 146.64ZM312.218 139.266L315.553 135.931V135.931L312.218 139.266ZM299.532 137.662L296.198 140.997L298.787 143.586L301.937 141.719L299.532 137.662ZM282.821 143.074L293.883 132.012L287.213 125.343L276.152 136.405L282.821 143.074ZM302.625 156.209L282.821 136.405L276.152 143.074L295.956 162.878L302.625 156.209ZM296.199 155.966L295.956 156.209L302.625 162.878L302.868 162.635L296.199 155.966ZM302.88 155.978L302.868 155.966L296.199 162.635L296.211 162.648L302.88 155.978ZM308.884 143.306L296.211 155.978L302.88 162.648L315.553 149.975L308.884 143.306ZM308.884 142.6C309.078 142.795 309.078 143.111 308.884 143.306L315.553 149.975C319.431 146.097 319.431 139.809 315.553 135.931L308.884 142.6ZM301.937 141.719C304.129 140.42 307.004 140.721 308.884 142.6L315.553 135.931C310.553 130.931 302.938 130.162 297.128 133.605L301.937 141.719ZM287.213 132.012L296.198 140.997L302.867 134.327L293.883 125.343L287.213 132.012Z" fill="#33C4A8" mask="url(#path-16-inside-5_1450_1169)"/>
<mask id="path-18-inside-6_1450_1169" fill="white">
<path fill-rule="evenodd" clip-rule="evenodd" d="M284.788 139.74L273.726 128.678L253.922 148.482L254.165 148.725L254.152 148.737L266.825 161.41C268.861 163.446 272.163 163.446 274.199 161.41C277.639 157.97 278.174 152.725 275.803 148.724L284.788 139.74Z"/>
</mask>
<path fill-rule="evenodd" clip-rule="evenodd" d="M284.788 139.74L273.726 128.678L253.922 148.482L254.165 148.725L254.152 148.737L266.825 161.41C268.861 163.446 272.163 163.446 274.199 161.41C277.639 157.97 278.174 152.725 275.803 148.724L284.788 139.74Z" fill="white"/>
<path d="M273.726 128.678L277.061 125.343L273.726 122.008L270.391 125.343L273.726 128.678ZM284.788 139.74L288.122 143.074L291.457 139.74L288.122 136.405L284.788 139.74ZM253.922 148.482L250.587 145.147L247.252 148.482L250.587 151.817L253.922 148.482ZM254.165 148.725L257.499 152.059L260.834 148.725L257.499 145.39L254.165 148.725ZM254.152 148.737L250.817 145.402L247.483 148.737L250.817 152.072L254.152 148.737ZM266.825 161.41L263.49 164.745L263.49 164.745L266.825 161.41ZM274.199 161.41L270.865 158.075L270.865 158.075L274.199 161.41ZM275.803 148.724L272.469 145.389L269.88 147.978L271.746 151.128L275.803 148.724ZM270.391 132.012L281.453 143.074L288.122 136.405L277.061 125.343L270.391 132.012ZM257.256 151.817L277.061 132.012L270.391 125.343L250.587 145.147L257.256 151.817ZM257.499 145.39L257.256 145.147L250.587 151.817L250.83 152.059L257.499 145.39ZM257.487 152.072L257.499 152.059L250.83 145.39L250.817 145.402L257.487 152.072ZM270.16 158.075L257.487 145.402L250.817 152.072L263.49 164.745L270.16 158.075ZM270.865 158.075C270.67 158.27 270.354 158.27 270.16 158.075L263.49 164.745C267.368 168.623 273.656 168.623 277.534 164.745L270.865 158.075ZM271.746 151.128C273.045 153.321 272.745 156.195 270.865 158.075L277.534 164.745C282.534 159.745 283.303 152.129 279.86 146.32L271.746 151.128ZM281.453 136.405L272.469 145.389L279.138 152.059L288.122 143.074L281.453 136.405Z" fill="#33C4A8" mask="url(#path-18-inside-6_1450_1169)"/>
<ellipse cx="287.327" cy="102.347" rx="1.965" ry="1.965" fill="#33C4A8"/>
<ellipse cx="295.187" cy="102.347" rx="1.965" ry="1.965" fill="#33C4A8"/>
</svg>
