<svg width="22" height="22" viewBox="0 0 22 22" fill="none" xmlns="http://www.w3.org/2000/svg">
<path fill-rule="evenodd" clip-rule="evenodd" d="M7.7249 10.922C10.0288 8.61076 12.2806 6.35563 14.4803 4.1566C14.5954 4.03556 14.6596 3.8749 14.6596 3.70785C14.6596 3.54079 14.5954 3.38013 14.4803 3.25909C14.1687 2.91251 13.6759 2.94256 13.4515 3.17896C11.1717 5.4648 8.78669 7.85382 6.2965 10.346C6.09883 10.5083 6 10.6999 6 10.921C6 11.142 6.09883 11.3397 6.2965 11.514L13.7921 18.8323C13.936 18.9643 14.1257 19.0351 14.3209 19.0297C14.5161 19.0243 14.7015 18.9431 14.8379 18.8032C15.1965 18.4436 15.0582 18.089 14.896 17.9208C12.5019 15.591 10.1112 13.2578 7.7239 10.921" fill="black"/>
</svg>
