<svg width="28" height="28" viewBox="0 0 28 28" fill="none" xmlns="http://www.w3.org/2000/svg">
<g clip-path="url(#clip0_336_2753)">
<path fill-rule="evenodd" clip-rule="evenodd" d="M1.98022 13.6915C4.62522 11.038 7.21042 8.449 9.73582 5.92437C9.86801 5.78541 9.94173 5.60096 9.94173 5.40917C9.94173 5.21738 9.86801 5.03293 9.73582 4.89397C9.37817 4.49607 8.81237 4.53057 8.55477 4.80197C5.93737 7.42627 3.19922 10.169 0.340324 13.0302C0.11339 13.2165 -7.62939e-05 13.4366 -7.62939e-05 13.6903C-7.62939e-05 13.9441 0.11339 14.171 0.340324 14.3711L8.94577 22.773C9.11098 22.9246 9.32871 23.0059 9.55283 22.9997C9.77695 22.9934 9.98984 22.9002 10.1464 22.7397C10.5581 22.3268 10.3994 21.9197 10.2131 21.7265C7.46448 19.0518 4.71981 16.3731 1.97907 13.6903" fill="black"/>
</g>
<defs>
<clipPath id="clip0_336_2753">
<rect width="28" height="28" fill="white" transform="matrix(1 0 0 -1 0 28)"/>
</clipPath>
</defs>
</svg>
