<svg width="16" height="16" viewBox="0 0 16 16" fill="none" xmlns="http://www.w3.org/2000/svg">
<path d="M12.6668 2.66667H11.3335V2C11.3335 1.82319 11.2633 1.65362 11.1382 1.5286C11.0132 1.40357 10.8436 1.33334 10.6668 1.33334C10.49 1.33334 10.3204 1.40357 10.1954 1.5286C10.0704 1.65362 10.0002 1.82319 10.0002 2V2.66667H6.00016V2C6.00016 1.82319 5.92992 1.65362 5.8049 1.5286C5.67988 1.40357 5.51031 1.33334 5.3335 1.33334C5.15668 1.33334 4.98712 1.40357 4.86209 1.5286C4.73707 1.65362 4.66683 1.82319 4.66683 2V2.66667H3.3335C2.80306 2.66667 2.29436 2.87738 1.91928 3.25246C1.54421 3.62753 1.3335 4.13624 1.3335 4.66667V12.6667C1.3335 13.1971 1.54421 13.7058 1.91928 14.0809C2.29436 14.456 2.80306 14.6667 3.3335 14.6667H12.6668C13.1973 14.6667 13.706 14.456 14.081 14.0809C14.4561 13.7058 14.6668 13.1971 14.6668 12.6667V4.66667C14.6668 4.13624 14.4561 3.62753 14.081 3.25246C13.706 2.87738 13.1973 2.66667 12.6668 2.66667ZM13.3335 12.6667C13.3335 12.8435 13.2633 13.013 13.1382 13.1381C13.0132 13.2631 12.8436 13.3333 12.6668 13.3333H3.3335C3.15668 13.3333 2.98712 13.2631 2.86209 13.1381C2.73707 13.013 2.66683 12.8435 2.66683 12.6667V8H13.3335V12.6667ZM13.3335 6.66667H2.66683V4.66667C2.66683 4.48986 2.73707 4.32029 2.86209 4.19526C2.98712 4.07024 3.15668 4 3.3335 4H4.66683V4.66667C4.66683 4.84348 4.73707 5.01305 4.86209 5.13807C4.98712 5.2631 5.15668 5.33334 5.3335 5.33334C5.51031 5.33334 5.67988 5.2631 5.8049 5.13807C5.92992 5.01305 6.00016 4.84348 6.00016 4.66667V4H10.0002V4.66667C10.0002 4.84348 10.0704 5.01305 10.1954 5.13807C10.3204 5.2631 10.49 5.33334 10.6668 5.33334C10.8436 5.33334 11.0132 5.2631 11.1382 5.13807C11.2633 5.01305 11.3335 4.84348 11.3335 4.66667V4H12.6668C12.8436 4 13.0132 4.07024 13.1382 4.19526C13.2633 4.32029 13.3335 4.48986 13.3335 4.66667V6.66667Z" fill="#BEBEBE"/>
</svg>
