<svg width="22" height="22" viewBox="0 0 22 22" fill="none" xmlns="http://www.w3.org/2000/svg">
<path d="M17.875 3.66667H15.125V2.29167C15.125 2.17011 15.0767 2.05353 14.9908 1.96758C14.9048 1.88162 14.7882 1.83333 14.6667 1.83333C14.5451 1.83333 14.4285 1.88162 14.3426 1.96758C14.2566 2.05353 14.2083 2.17011 14.2083 2.29167V3.66667H7.79167V2.29167C7.79167 2.17011 7.74338 2.05353 7.65742 1.96758C7.57147 1.88162 7.45489 1.83333 7.33333 1.83333C7.21177 1.83333 7.0952 1.88162 7.00924 1.96758C6.92329 2.05353 6.875 2.17011 6.875 2.29167V3.66667H4.125C3.51743 3.66739 2.93496 3.90907 2.50535 4.33868C2.07574 4.7683 1.83406 5.35077 1.83333 5.95833V17.875C1.83406 18.4826 2.07574 19.065 2.50535 19.4946C2.93496 19.9243 3.51743 20.1659 4.125 20.1667H17.875C18.4826 20.1662 19.0652 19.9246 19.4949 19.4949C19.9246 19.0653 20.1662 18.4826 20.1667 17.875V5.95833C20.1662 5.3507 19.9246 4.76808 19.4949 4.33842C19.0652 3.90875 18.4826 3.66715 17.875 3.66667ZM19.25 17.875C19.25 18.2397 19.1051 18.5894 18.8473 18.8473C18.5894 19.1051 18.2397 19.25 17.875 19.25H4.125C3.76033 19.25 3.41059 19.1051 3.15273 18.8473C2.89486 18.5894 2.75 18.2397 2.75 17.875V10.0833H19.25V17.875ZM19.25 9.16667H2.75V5.95833C2.75 5.19933 3.36417 4.58333 4.125 4.58333H6.875V5.95833C6.875 6.07989 6.92329 6.19647 7.00924 6.28242C7.0952 6.36838 7.21177 6.41667 7.33333 6.41667C7.45489 6.41667 7.57147 6.36838 7.65742 6.28242C7.74338 6.19647 7.79167 6.07989 7.79167 5.95833V4.58333H14.2083V5.95833C14.2083 6.07989 14.2566 6.19647 14.3426 6.28242C14.4285 6.36838 14.5451 6.41667 14.6667 6.41667C14.7882 6.41667 14.9048 6.36838 14.9908 6.28242C15.0767 6.19647 15.125 6.07989 15.125 5.95833V4.58333H17.875C18.2397 4.58333 18.5894 4.7282 18.8473 4.98606C19.1051 5.24392 19.25 5.59366 19.25 5.95833V9.16667Z" fill="black"/>
</svg>
