<svg width="16" height="17" viewBox="0 0 16 17" fill="none" xmlns="http://www.w3.org/2000/svg">
<path d="M8.1999 10.9062C9.26305 10.9062 10.1249 10.0443 10.1249 8.98115C10.1249 7.918 9.26305 7.05615 8.1999 7.05615C7.13675 7.05615 6.2749 7.918 6.2749 8.98115C6.2749 10.0443 7.13675 10.9062 8.1999 10.9062Z" fill="#A9A9A9"/>
<path d="M13.4937 5.13105H11.719C11.6288 5.13105 11.5169 5.0727 11.4297 4.98066L10.6495 3.74927C10.6371 3.72972 10.6234 3.71112 10.6083 3.69362C10.3388 3.3793 9.97451 3.20605 9.5835 3.20605H6.81631C6.42529 3.20605 6.06105 3.3793 5.79155 3.69362C5.77645 3.71112 5.76268 3.72972 5.75034 3.74927L4.97011 4.98247C4.90334 5.05526 4.8095 5.13286 4.71084 5.13286V4.89223C4.71084 4.7646 4.66014 4.64219 4.56989 4.55194C4.47963 4.46169 4.35723 4.41098 4.22959 4.41098H3.50771C3.38008 4.41098 3.25767 4.46169 3.16742 4.55194C3.07717 4.64219 3.02646 4.7646 3.02646 4.89223V5.13286H2.90615C2.52337 5.13326 2.15638 5.28549 1.88571 5.55616C1.61504 5.82683 1.4628 6.19383 1.4624 6.57661V12.3498C1.4628 12.7326 1.61504 13.0996 1.88571 13.3703C2.15638 13.6409 2.52337 13.7932 2.90615 13.7936H13.4937C13.8764 13.7932 14.2434 13.6409 14.5141 13.3703C14.7848 13.0996 14.937 12.7326 14.9374 12.3498V6.5748C14.937 6.19202 14.7848 5.82503 14.5141 5.55436C14.2434 5.28369 13.8764 5.13145 13.4937 5.13105ZM8.1999 11.8686C7.62881 11.8686 7.07054 11.6992 6.59569 11.3819C6.12085 11.0646 5.75075 10.6137 5.5322 10.0861C5.31365 9.55843 5.25647 8.97785 5.36789 8.41773C5.4793 7.85761 5.75431 7.34311 6.15813 6.93928C6.56196 6.53546 7.07646 6.26045 7.63658 6.14904C8.1967 6.03762 8.77728 6.0948 9.3049 6.31335C9.83252 6.5319 10.2835 6.902 10.6008 7.37685C10.9181 7.85169 11.0874 8.40996 11.0874 8.98105C11.0865 9.7466 10.782 10.4805 10.2407 11.0219C9.69938 11.5632 8.96545 11.8677 8.1999 11.8686Z" fill="#A9A9A9"/>
</svg>
