<svg width="16" height="22" viewBox="0 0 16 22" fill="none" xmlns="http://www.w3.org/2000/svg">
<g id="Group 14">
<g id="Ellipse 7">
<mask id="path-1-inside-1_1232_2748" fill="white">
<ellipse cx="8.93353" cy="6.32366" rx="0.501884" ry="0.501884"/>
</mask>
<ellipse cx="8.93353" cy="6.32366" rx="0.501884" ry="0.501884" fill="black"/>
<path d="M8.43541 6.32366C8.43541 6.04856 8.65842 5.82555 8.93352 5.82555V7.82555C9.76299 7.82555 10.4354 7.15313 10.4354 6.32366H8.43541ZM8.93352 5.82555C9.20863 5.82555 9.43164 6.04856 9.43164 6.32366H7.43164C7.43164 7.15313 8.10406 7.82555 8.93352 7.82555V5.82555ZM9.43164 6.32366C9.43164 6.59876 9.20863 6.82178 8.93352 6.82178V4.82178C8.10406 4.82178 7.43164 5.49419 7.43164 6.32366H9.43164ZM8.93352 6.82178C8.65842 6.82178 8.43541 6.59876 8.43541 6.32366H10.4354C10.4354 5.49419 9.76299 4.82178 8.93352 4.82178V6.82178Z" fill="black" mask="url(#path-1-inside-1_1232_2748)"/>
</g>
<g id="Ellipse 8">
<mask id="path-3-inside-2_1232_2748" fill="white">
<ellipse cx="10.9413" cy="6.32366" rx="0.501884" ry="0.501884"/>
</mask>
<ellipse cx="10.9413" cy="6.32366" rx="0.501884" ry="0.501884" fill="black"/>
<path d="M10.4432 6.32366C10.4432 6.04856 10.6662 5.82555 10.9413 5.82555V7.82555C11.7708 7.82555 12.4432 7.15313 12.4432 6.32366H10.4432ZM10.9413 5.82555C11.2164 5.82555 11.4395 6.04856 11.4395 6.32366H9.43945C9.43945 7.15313 10.1119 7.82555 10.9413 7.82555V5.82555ZM11.4395 6.32366C11.4395 6.59876 11.2164 6.82178 10.9413 6.82178V4.82178C10.1119 4.82178 9.43945 5.49419 9.43945 6.32366H11.4395ZM10.9413 6.82178C10.6662 6.82178 10.4432 6.59876 10.4432 6.32366H12.4432C12.4432 5.49419 11.7708 4.82178 10.9413 4.82178V6.82178Z" fill="black" mask="url(#path-3-inside-2_1232_2748)"/>
</g>
<path id="Ellipse 6" d="M13.7533 6.82892C13.7533 8.58175 13.2249 9.82343 12.1391 11.1836C11.3368 12.1885 10.2554 13.2302 8.86569 14.5689C8.42286 14.9955 7.94872 15.4522 7.44235 15.9475C6.63342 15.0918 5.88763 14.3454 5.21635 13.6735C5.12021 13.5773 5.0256 13.4826 4.93255 13.3893C4.09265 12.5474 3.38741 11.8291 2.81512 11.1394C1.68814 9.78134 1.10205 8.56625 1.10205 6.82892C1.10205 3.33332 3.93436 0.5 7.42767 0.5C10.921 0.5 13.7533 3.33332 13.7533 6.82892Z" stroke="black"/>
<g id="Group 8">
<g id="Union">
<mask id="path-6-inside-3_1232_2748" fill="white">
<path fill-rule="evenodd" clip-rule="evenodd" d="M9.75647 13.4506L6.93115 16.2759L11.9893 21.3341L12.0514 21.272L12.0546 21.2752L15.2913 18.0384C15.8114 17.5183 15.8115 16.675 15.2913 16.1549C14.4127 15.2763 13.0731 15.1398 12.0512 15.7453L9.75647 13.4506Z"/>
</mask>
<path d="M6.93115 16.2759L6.22405 15.5688L5.51694 16.2759L6.22405 16.983L6.93115 16.2759ZM9.75647 13.4506L10.4636 12.7435L9.75647 12.0363L9.04936 12.7435L9.75647 13.4506ZM11.9893 21.3341L11.2822 22.0412L11.9893 22.7483L12.6964 22.0412L11.9893 21.3341ZM12.0514 21.272L12.7585 20.5649L12.0514 19.8578L11.3443 20.5649L12.0514 21.272ZM12.0546 21.2752L11.3474 21.9823L12.0546 22.6894L12.7617 21.9823L12.0546 21.2752ZM15.2913 18.0384L15.9984 18.7455L15.2913 18.0384ZM15.2913 16.1549L14.5842 16.862L14.5842 16.862L15.2913 16.1549ZM12.0512 15.7453L11.3441 16.4524L11.893 17.0014L12.561 16.6056L12.0512 15.7453ZM7.63826 16.983L10.4636 14.1577L9.04936 12.7435L6.22405 15.5688L7.63826 16.983ZM12.6965 20.627L7.63826 15.5688L6.22405 16.983L11.2822 22.0412L12.6965 20.627ZM11.3443 20.5649L11.2822 20.627L12.6964 22.0412L12.7585 21.9791L11.3443 20.5649ZM12.7617 20.5681L12.7585 20.5649L11.3443 21.9791L11.3474 21.9823L12.7617 20.5681ZM14.5842 17.3313L11.3474 20.5681L12.7617 21.9823L15.9984 18.7455L14.5842 17.3313ZM14.5842 16.862C14.7138 16.9916 14.7138 17.2017 14.5842 17.3313L15.9984 18.7455C16.9091 17.8349 16.9091 16.3584 15.9984 15.4478L14.5842 16.862ZM12.561 16.6056C13.1994 16.2273 14.0364 16.3142 14.5842 16.862L15.9984 15.4478C14.789 14.2384 12.9468 14.0522 11.5414 14.885L12.561 16.6056ZM9.04936 14.1577L11.3441 16.4524L12.7583 15.0382L10.4636 12.7435L9.04936 14.1577Z" fill="black" mask="url(#path-6-inside-3_1232_2748)"/>
</g>
<g id="Union_2">
<mask id="path-8-inside-4_1232_2748" fill="white">
<path fill-rule="evenodd" clip-rule="evenodd" d="M7.8833 16.0751L5.05798 13.2498L-0.000208122 18.3079L0.0618742 18.37L0.0587471 18.3732L3.29552 21.6099C3.81564 22.1301 4.65893 22.1301 5.17906 21.6099C6.05767 20.7313 6.1942 19.3916 5.58864 18.3697L7.8833 16.0751Z"/>
</mask>
<path d="M5.05798 13.2498L5.76509 12.5426L5.05798 11.8355L4.35088 12.5426L5.05798 13.2498ZM7.8833 16.0751L8.59041 16.7822L9.29751 16.0751L8.59041 15.368L7.8833 16.0751ZM-0.000208122 18.3079L-0.707315 17.6008L-1.41442 18.3079L-0.707315 19.0151L-0.000208122 18.3079ZM0.0618742 18.37L0.768981 19.0771L1.47609 18.37L0.768981 17.6629L0.0618742 18.37ZM0.0587471 18.3732L-0.648359 17.666L-1.35547 18.3732L-0.64836 19.0803L0.0587471 18.3732ZM3.29552 21.6099L4.00262 20.9028L4.00262 20.9028L3.29552 21.6099ZM5.17906 21.6099L5.88617 22.317L5.88617 22.317L5.17906 21.6099ZM5.58864 18.3697L4.88153 17.6626L4.33255 18.2116L4.72834 18.8795L5.58864 18.3697ZM4.35088 13.9569L7.17619 16.7822L8.59041 15.368L5.76509 12.5426L4.35088 13.9569ZM0.706899 19.0151L5.76509 13.9569L4.35088 12.5426L-0.707315 17.6008L0.706899 19.0151ZM0.768981 17.6629L0.706899 17.6008L-0.707315 19.0151L-0.645232 19.0771L0.768981 17.6629ZM0.765854 19.0803L0.768981 19.0771L-0.645232 17.6629L-0.648359 17.666L0.765854 19.0803ZM4.00262 20.9028L0.765854 17.666L-0.64836 19.0803L2.58841 22.317L4.00262 20.9028ZM4.47196 20.9028C4.34235 21.0324 4.13223 21.0324 4.00262 20.9028L2.58841 22.317C3.49906 23.2277 4.97552 23.2277 5.88617 22.317L4.47196 20.9028ZM4.72834 18.8795C5.10667 19.518 5.01976 20.355 4.47195 20.9028L5.88617 22.317C7.09559 21.1076 7.28172 19.2653 6.44894 17.8599L4.72834 18.8795ZM7.17619 15.368L4.88153 17.6626L6.29575 19.0768L8.59041 16.7822L7.17619 15.368Z" fill="black" mask="url(#path-8-inside-4_1232_2748)"/>
</g>
</g>
</g>
</svg>
