<svg width="28" height="28" viewBox="0 0 28 28" fill="none" xmlns="http://www.w3.org/2000/svg">
<g clip-path="url(#clip0_336_2754)">
<path d="M15.3226 13.9796L22.7836 6.53856C22.931 6.36685 23.0081 6.14597 22.9993 5.92007C22.9906 5.69416 22.8967 5.47987 22.7364 5.32002C22.5761 5.16016 22.3612 5.06651 22.1347 5.05779C21.9082 5.04906 21.6868 5.1259 21.5146 5.27295L14.0536 12.714L6.59259 5.26397C6.42312 5.09495 6.19326 5 5.95359 5C5.71392 5 5.48406 5.09495 5.31459 5.26397C5.14512 5.43299 5.04991 5.66224 5.04991 5.90127C5.04991 6.1403 5.14512 6.36954 5.31459 6.53856L12.7846 13.9796L5.31459 21.4206C5.22038 21.5011 5.14386 21.6001 5.08984 21.7115C5.03582 21.8229 5.00546 21.9441 5.00067 22.0678C4.99588 22.1914 5.01677 22.3146 5.06202 22.4298C5.10726 22.545 5.17589 22.6496 5.2636 22.7371C5.35131 22.8246 5.45621 22.893 5.5717 22.9382C5.68719 22.9833 5.81079 23.0041 5.93474 22.9993C6.05868 22.9946 6.1803 22.9643 6.29196 22.9104C6.40362 22.8565 6.50291 22.7802 6.58359 22.6863L14.0536 15.2452L21.5146 22.6863C21.6868 22.8333 21.9082 22.9101 22.1347 22.9014C22.3612 22.8927 22.5761 22.799 22.7364 22.6392C22.8967 22.4793 22.9906 22.265 22.9993 22.0391C23.0081 21.8132 22.931 21.5924 22.7836 21.4206L15.3226 13.9796Z" fill="black"/>
</g>
<defs>
<clipPath id="clip0_336_2754">
<rect width="28" height="28" fill="white"/>
</clipPath>
</defs>
</svg>
