<svg width="14" height="14" viewBox="0 0 14 14" fill="none" xmlns="http://www.w3.org/2000/svg">
<path fill-rule="evenodd" clip-rule="evenodd" d="M7.25 7.5V10C8.12975 9.921 8.5 9.42825 8.5 8.7775C8.5 8.15075 8.212 7.78 7.25 7.5ZM6.5 6.25V4C5.68175 4.10375 5.25 4.5825 5.25 5.1075C5.25 5.6325 5.591 6.01925 6.5 6.25ZM7.21 6.43425L7.478 6.5035C8.946 6.85575 9.75 7.47925 9.75 8.709C9.75 10.1235 8.6335 10.926 7.21 11.03V12H6.57925V11.03C5.16125 10.9202 4.03925 10.0947 4 8.709H5.1555C5.256 9.3845 5.6805 9.881 6.57925 9.979V7.46225L6.35025 7.4045C4.93225 7.06375 4.1675 6.4055 4.1675 5.2335C4.1675 3.94025 5.1725 3.08575 6.57925 2.976V2H7.21V2.97575C8.6055 3.09125 9.616 3.95725 9.66075 5.268H8.4995C8.427 4.5405 7.9245 4.119 7.21 4.0265V6.43425Z" fill="black"/>
</svg>
