<svg width="12" height="13" viewBox="0 0 12 13" fill="none" xmlns="http://www.w3.org/2000/svg">
<path d="M9.7485 4.49452L6 8.14852L2.2515 4.49452C2.18453 4.4291 2.09462 4.39247 2.001 4.39247C1.90737 4.39247 1.81747 4.4291 1.7505 4.49452C1.71807 4.5263 1.69231 4.56422 1.67472 4.60607C1.65713 4.64793 1.64807 4.69287 1.64807 4.73827C1.64807 4.78367 1.65713 4.82862 1.67472 4.87047C1.69231 4.91232 1.71807 4.95025 1.7505 4.98202L5.73825 8.87002C5.80828 8.93828 5.9022 8.97649 6 8.97649C6.09779 8.97649 6.19172 8.93828 6.26175 8.87002L10.2495 4.98277C10.2822 4.95098 10.3081 4.91296 10.3258 4.87096C10.3436 4.82897 10.3527 4.78385 10.3527 4.73827C10.3527 4.69269 10.3436 4.64757 10.3258 4.60558C10.3081 4.56359 10.2822 4.52557 10.2495 4.49377C10.1825 4.42835 10.0926 4.39172 9.999 4.39172C9.90537 4.39172 9.81547 4.42835 9.7485 4.49377V4.49452Z" fill="black"/>
</svg>
