<svg width="22" height="22" viewBox="0 0 22 22" fill="none" xmlns="http://www.w3.org/2000/svg">
<path d="M19.381 6.28571H7.85714M5.7619 6.28571H2.61905M19.381 16.7619H7.85714M5.7619 16.7619H2.61905M14.1429 11.5238H2.61905M19.381 11.5238H16.2381M6.80952 4.19048C7.08737 4.19048 7.35384 4.30085 7.5503 4.49732C7.74677 4.69378 7.85714 4.96025 7.85714 5.23809V7.33333C7.85714 7.61118 7.74677 7.87764 7.5503 8.07411C7.35384 8.27058 7.08737 8.38095 6.80952 8.38095C6.53168 8.38095 6.26521 8.27058 6.06875 8.07411C5.87228 7.87764 5.7619 7.61118 5.7619 7.33333V5.23809C5.7619 4.96025 5.87228 4.69378 6.06875 4.49732C6.26521 4.30085 6.53168 4.19048 6.80952 4.19048ZM6.80952 14.6667C7.08737 14.6667 7.35384 14.777 7.5503 14.9735C7.74677 15.17 7.85714 15.4364 7.85714 15.7143V17.8095C7.85714 18.0874 7.74677 18.3538 7.5503 18.5503C7.35384 18.7468 7.08737 18.8571 6.80952 18.8571C6.53168 18.8571 6.26521 18.7468 6.06875 18.5503C5.87228 18.3538 5.7619 18.0874 5.7619 17.8095V15.7143C5.7619 15.4364 5.87228 15.17 6.06875 14.9735C6.26521 14.777 6.53168 14.6667 6.80952 14.6667ZM15.1905 9.42857C15.4683 9.42857 15.7348 9.53894 15.9313 9.73541C16.1277 9.93188 16.2381 10.1983 16.2381 10.4762V12.5714C16.2381 12.8493 16.1277 13.1157 15.9313 13.3122C15.7348 13.5087 15.4683 13.619 15.1905 13.619C14.9126 13.619 14.6462 13.5087 14.4497 13.3122C14.2532 13.1157 14.1429 12.8493 14.1429 12.5714V10.4762C14.1429 10.1983 14.2532 9.93188 14.4497 9.73541C14.6462 9.53894 14.9126 9.42857 15.1905 9.42857Z" stroke="black" stroke-linecap="round" stroke-linejoin="round"/>
</svg>
