<svg width="22" height="22" viewBox="0 0 22 22" fill="none" xmlns="http://www.w3.org/2000/svg">
<path fill-rule="evenodd" clip-rule="evenodd" d="M8.55344 3.18448L15.796 10.44C15.8612 10.5023 15.9129 10.5773 15.948 10.6604C15.9831 10.7434 16.0008 10.8328 16 10.923C16.0004 11.0152 15.9826 11.1065 15.9476 11.1918C15.9125 11.2771 15.861 11.3546 15.796 11.42C13.1762 13.9758 10.6513 16.4426 8.22146 18.8205C8.09647 18.9375 7.5965 19.2285 7.21053 18.7965C6.82455 18.3635 7.05854 17.9865 7.21053 17.8306L14.2781 10.923L7.53151 4.16441C7.28552 3.8251 7.30552 3.51212 7.5915 3.22547C7.87815 2.93882 8.1988 2.92449 8.55344 3.18448Z" fill="black"/>
</svg>
