<svg width="28" height="28" viewBox="0 0 28 28" fill="none" xmlns="http://www.w3.org/2000/svg">
<path fill-rule="evenodd" clip-rule="evenodd" d="M10.7866 5.21216L19.116 13.5566C19.191 13.6282 19.2505 13.7145 19.2908 13.81C19.3312 13.9055 19.3515 14.0083 19.3506 14.112C19.3511 14.218 19.3306 14.3231 19.2903 14.4212C19.2501 14.5193 19.1908 14.6084 19.116 14.6836C16.103 17.623 13.1993 20.46 10.4048 23.1947C10.261 23.3293 9.68602 23.6639 9.24212 23.1671C8.79822 22.6692 9.06732 22.2356 9.24212 22.0562L17.3703 14.112L9.61127 6.33916C9.32837 5.94893 9.35137 5.58898 9.68027 5.25931C10.0099 4.92964 10.3787 4.91316 10.7866 5.21216Z" fill="black"/>
</svg>
