<svg width="25" height="25" viewBox="0 0 25 25" fill="none" xmlns="http://www.w3.org/2000/svg">
<path d="M24.0853 10.186H23.1336V10.137H12.5001V14.863H19.1773C18.2032 17.6141 15.5855 19.589 12.5001 19.589C8.58516 19.589 5.41106 16.4149 5.41106 12.5C5.41106 8.5851 8.58516 5.411 12.5001 5.411C14.3072 5.411 15.9512 6.09272 17.203 7.20629L20.5449 3.86441C18.4347 1.89781 15.6121 0.684998 12.5001 0.684998C5.97522 0.684998 0.685059 5.97516 0.685059 12.5C0.685059 19.0248 5.97522 24.315 12.5001 24.315C19.0249 24.315 24.3151 19.0248 24.3151 12.5C24.3151 11.7078 24.2335 10.9345 24.0853 10.186Z" fill="#FFC107"/>
<path d="M2.04736 7.00071L5.92918 9.84753C6.97953 7.24705 9.5233 5.411 12.5001 5.411C14.3072 5.411 15.9513 6.09272 17.2031 7.20629L20.5449 3.86441C18.4348 1.89781 15.6122 0.684998 12.5001 0.684998C7.96195 0.684998 4.02638 3.24708 2.04736 7.00071Z" fill="#FF3D00"/>
<path d="M12.4997 24.315C15.5516 24.315 18.3245 23.1471 20.4211 21.2478L16.7644 18.1535C15.5781 19.052 14.1036 19.589 12.4997 19.589C9.42667 19.589 6.81732 17.6295 5.83432 14.8949L1.98145 17.8634C3.93683 21.6897 7.90785 24.315 12.4997 24.315Z" fill="#4CAF50"/>
<path d="M24.0852 10.1861H23.1335V10.137H12.5V14.863H19.1772C18.7094 16.1845 17.8593 17.3241 16.7629 18.1541C16.7634 18.1535 16.764 18.1535 16.7646 18.1529L20.4214 21.2473C20.1626 21.4824 24.315 18.4075 24.315 12.5C24.315 11.7078 24.2335 10.9345 24.0852 10.1861Z" fill="#1976D2"/>
</svg>
