<svg width="24" height="24" viewBox="0 0 24 24" fill="none" xmlns="http://www.w3.org/2000/svg">
<path d="M16.6875 4.125C14.6775 4.125 12.945 5.08031 12 6.66281C11.055 5.08031 9.3225 4.125 7.3125 4.125C5.87092 4.12674 4.48888 4.70017 3.46952 5.71952C2.45017 6.73888 1.87674 8.12092 1.875 9.5625C1.875 12.2428 3.5625 15.0441 6.88125 17.8866C8.41367 19.1904 10.0682 20.3436 11.8219 21.33C11.8766 21.3595 11.9378 21.375 12 21.375C12.0622 21.375 12.1234 21.3595 12.1781 21.33C13.9318 20.3436 15.5863 19.1904 17.1188 17.8866C20.4375 15.0441 22.125 12.2428 22.125 9.5625C22.1233 8.12092 21.5498 6.73888 20.5305 5.71952C19.5111 4.70017 18.1291 4.12674 16.6875 4.125ZM12 20.5706C10.6875 19.8206 2.625 15.0066 2.625 9.5625C2.62649 8.31975 3.12083 7.12834 3.99958 6.24958C4.87834 5.37083 6.06975 4.87649 7.3125 4.875C9.29156 4.875 10.9547 5.93531 11.6531 7.64156C11.6814 7.71034 11.7294 7.76917 11.7912 7.81057C11.853 7.85197 11.9256 7.87408 12 7.87408C12.0744 7.87408 12.147 7.85197 12.2088 7.81057C12.2706 7.76917 12.3186 7.71034 12.3469 7.64156C13.0453 5.93531 14.7084 4.875 16.6875 4.875C17.9302 4.87649 19.1217 5.37083 20.0004 6.24958C20.8792 7.12834 21.3735 8.31975 21.375 9.5625C21.375 15 13.3125 19.8244 12 20.5706Z" fill="#A9A9A9"/>
</svg>
