<svg width="32" height="32" viewBox="0 0 32 32" fill="none" xmlns="http://www.w3.org/2000/svg">
<g id="fluent-emoji:magnifying-glass-tilted-left">
<g id="Group">
<g id="Group_2" filter="url(#filter0_iii_937_2359)">
<path id="Vector" d="M25.3832 20.211C23.916 18.7439 21.5373 18.7437 20.0703 20.2107C18.6033 21.6777 18.6035 24.0563 20.0707 25.5235L23.3905 28.8434C24.8577 30.3106 27.2364 30.3108 28.7034 28.8438C30.1704 27.3768 30.1702 24.9981 28.703 23.5309L25.3832 20.211Z" fill="url(#paint0_linear_937_2359)"/>
<path id="Vector_2" d="M25.3832 20.211C23.916 18.7439 21.5373 18.7437 20.0703 20.2107C18.6033 21.6777 18.6035 24.0563 20.0707 25.5235L23.3905 28.8434C24.8577 30.3106 27.2364 30.3108 28.7034 28.8438C30.1704 27.3768 30.1702 24.9981 28.703 23.5309L25.3832 20.211Z" fill="url(#paint1_linear_937_2359)"/>
<path id="Vector_3" d="M25.3832 20.211C23.916 18.7439 21.5373 18.7437 20.0703 20.2107C18.6033 21.6777 18.6035 24.0563 20.0707 25.5235L23.3905 28.8434C24.8577 30.3106 27.2364 30.3108 28.7034 28.8438C30.1704 27.3768 30.1702 24.9981 28.703 23.5309L25.3832 20.211Z" fill="url(#paint2_linear_937_2359)"/>
</g>
<path id="Vector_4" d="M25.3832 20.211C23.916 18.7439 21.5373 18.7437 20.0703 20.2107C18.6033 21.6777 18.6035 24.0563 20.0707 25.5235L23.3905 28.8434C24.8577 30.3106 27.2364 30.3108 28.7034 28.8438C30.1704 27.3768 30.1702 24.9981 28.703 23.5309L25.3832 20.211Z" fill="url(#paint3_radial_937_2359)"/>
<path id="Vector_5" fill-rule="evenodd" clip-rule="evenodd" d="M12.906 23.797C18.878 23.797 23.719 18.956 23.719 12.984C23.719 7.013 18.878 2.172 12.906 2.172C6.93499 2.172 2.09399 7.012 2.09399 12.984C2.09399 18.956 6.93399 23.797 12.906 23.797ZM12.906 22.047C14.1041 22.0596 15.2928 21.8345 16.4034 21.3847C17.5139 20.9349 18.5243 20.2694 19.376 19.4266C20.2276 18.5838 20.9037 17.5805 21.3652 16.4747C21.8266 15.369 22.0642 14.1827 22.0642 12.9845C22.0642 11.7863 21.8266 10.6 21.3652 9.49426C20.9037 8.38849 20.2276 7.3852 19.376 6.54242C18.5243 5.69964 17.5139 5.0341 16.4034 4.58431C15.2928 4.13452 14.1041 3.90941 12.906 3.922C10.519 3.94707 8.23821 4.91291 6.55911 6.60974C4.88002 8.30656 3.93819 10.5973 3.93819 12.9845C3.93819 15.3717 4.88002 17.6624 6.55911 19.3593C8.23821 21.0561 10.519 22.0219 12.906 22.047Z" fill="url(#paint4_linear_937_2359)"/>
<g id="Group_3" filter="url(#filter1_f_937_2359)">
<path id="Vector_6" fill-rule="evenodd" clip-rule="evenodd" d="M12.9059 23.552C18.7429 23.552 23.4739 18.821 23.4739 12.984C23.4739 7.14702 18.7429 2.41602 12.9059 2.41602C7.06889 2.41602 2.33789 7.14802 2.33789 12.984C2.33789 18.821 7.06989 23.552 12.9059 23.552ZM12.9059 21.842C14.077 21.8545 15.2389 21.6345 16.3245 21.195C17.4101 20.7554 18.3977 20.105 19.2302 19.2813C20.0627 18.4575 20.7236 17.4769 21.1747 16.3961C21.6258 15.3152 21.858 14.1557 21.858 12.9845C21.858 11.8133 21.6258 10.6538 21.1747 9.57298C20.7236 8.49216 20.0627 7.51151 19.2302 6.68778C18.3977 5.86405 17.4101 5.21359 16.3245 4.77404C15.2389 4.33449 14.077 4.11457 12.9059 4.12702C10.573 4.1518 8.34415 5.09592 6.70327 6.75433C5.06239 8.41274 4.14201 10.6515 4.14201 12.9845C4.14201 15.3175 5.06239 17.5563 6.70327 19.2147C8.34415 20.8731 10.573 21.8172 12.9059 21.842Z" fill="url(#paint5_linear_937_2359)"/>
<path id="Vector_7" fill-rule="evenodd" clip-rule="evenodd" d="M12.9059 23.552C18.7429 23.552 23.4739 18.821 23.4739 12.984C23.4739 7.14702 18.7429 2.41602 12.9059 2.41602C7.06889 2.41602 2.33789 7.14802 2.33789 12.984C2.33789 18.821 7.06989 23.552 12.9059 23.552ZM12.9059 21.842C14.077 21.8545 15.2389 21.6345 16.3245 21.195C17.4101 20.7554 18.3977 20.105 19.2302 19.2813C20.0627 18.4575 20.7236 17.4769 21.1747 16.3961C21.6258 15.3152 21.858 14.1557 21.858 12.9845C21.858 11.8133 21.6258 10.6538 21.1747 9.57298C20.7236 8.49216 20.0627 7.51151 19.2302 6.68778C18.3977 5.86405 17.4101 5.21359 16.3245 4.77404C15.2389 4.33449 14.077 4.11457 12.9059 4.12702C10.573 4.1518 8.34415 5.09592 6.70327 6.75433C5.06239 8.41274 4.14201 10.6515 4.14201 12.9845C4.14201 15.3175 5.06239 17.5563 6.70327 19.2147C8.34415 20.8731 10.573 21.8172 12.9059 21.842Z" fill="url(#paint6_radial_937_2359)"/>
</g>
<g id="Group_4" filter="url(#filter2_f_937_2359)">
<path id="Vector_8" d="M12.9061 22.279C18.0396 22.279 22.2011 18.1174 22.2011 12.984C22.2011 7.85048 18.0396 3.68896 12.9061 3.68896C7.7726 3.68896 3.61108 7.85048 3.61108 12.984C3.61108 18.1174 7.7726 22.279 12.9061 22.279Z" fill="url(#paint7_linear_937_2359)"/>
</g>
<g id="Group_5" filter="url(#filter3_ii_937_2359)">
<path id="Vector_9" d="M12.906 22.047C17.9114 22.047 21.969 17.9894 21.969 12.984C21.969 7.97866 17.9114 3.92102 12.906 3.92102C7.90066 3.92102 3.84302 7.97866 3.84302 12.984C3.84302 17.9894 7.90066 22.047 12.906 22.047Z" fill="#64D0EA"/>
</g>
<path id="Vector_10" d="M18.2665 10.0253C18.9762 9.45276 18.9799 8.28022 18.2749 7.40636C17.5699 6.53251 16.4231 6.28824 15.7134 6.86078C15.0038 7.43332 15 8.60586 15.705 9.47972C16.41 10.3536 17.5568 10.5978 18.2665 10.0253Z" fill="url(#paint8_linear_937_2359)"/>
</g>
</g>
<defs>
<filter id="filter0_iii_937_2359" x="18.2202" y="18.9231" width="11.5833" height="11.7709" filterUnits="userSpaceOnUse" color-interpolation-filters="sRGB">
<feFlood flood-opacity="0" result="BackgroundImageFix"/>
<feBlend mode="normal" in="SourceGraphic" in2="BackgroundImageFix" result="shape"/>
<feColorMatrix in="SourceAlpha" type="matrix" values="0 0 0 0 0 0 0 0 0 0 0 0 0 0 0 0 0 0 127 0" result="hardAlpha"/>
<feOffset dx="-0.75" dy="0.75"/>
<feGaussianBlur stdDeviation="1.125"/>
<feComposite in2="hardAlpha" operator="arithmetic" k2="-1" k3="1"/>
<feColorMatrix type="matrix" values="0 0 0 0 0.4 0 0 0 0 0.239216 0 0 0 0 0.439216 0 0 0 1 0"/>
<feBlend mode="normal" in2="shape" result="effect1_innerShadow_937_2359"/>
<feColorMatrix in="SourceAlpha" type="matrix" values="0 0 0 0 0 0 0 0 0 0 0 0 0 0 0 0 0 0 127 0" result="hardAlpha"/>
<feOffset dy="-0.1875"/>
<feGaussianBlur stdDeviation="0.28125"/>
<feComposite in2="hardAlpha" operator="arithmetic" k2="-1" k3="1"/>
<feColorMatrix type="matrix" values="0 0 0 0 0.639216 0 0 0 0 0.490196 0 0 0 0 0.643137 0 0 0 1 0"/>
<feBlend mode="normal" in2="effect1_innerShadow_937_2359" result="effect2_innerShadow_937_2359"/>
<feColorMatrix in="SourceAlpha" type="matrix" values="0 0 0 0 0 0 0 0 0 0 0 0 0 0 0 0 0 0 127 0" result="hardAlpha"/>
<feOffset dy="0.75"/>
<feGaussianBlur stdDeviation="0.5625"/>
<feComposite in2="hardAlpha" operator="arithmetic" k2="-1" k3="1"/>
<feColorMatrix type="matrix" values="0 0 0 0 0.333333 0 0 0 0 0.27451 0 0 0 0 0.380392 0 0 0 1 0"/>
<feBlend mode="normal" in2="effect2_innerShadow_937_2359" result="effect3_innerShadow_937_2359"/>
</filter>
<filter id="filter1_f_937_2359" x="2.11289" y="2.19102" width="21.586" height="21.586" filterUnits="userSpaceOnUse" color-interpolation-filters="sRGB">
<feFlood flood-opacity="0" result="BackgroundImageFix"/>
<feBlend mode="normal" in="SourceGraphic" in2="BackgroundImageFix" result="shape"/>
<feGaussianBlur stdDeviation="0.1125" result="effect1_foregroundBlur_937_2359"/>
</filter>
<filter id="filter2_f_937_2359" x="3.46108" y="3.53896" width="18.8901" height="18.89" filterUnits="userSpaceOnUse" color-interpolation-filters="sRGB">
<feFlood flood-opacity="0" result="BackgroundImageFix"/>
<feBlend mode="normal" in="SourceGraphic" in2="BackgroundImageFix" result="shape"/>
<feGaussianBlur stdDeviation="0.075" result="effect1_foregroundBlur_937_2359"/>
</filter>
<filter id="filter3_ii_937_2359" x="3.84302" y="3.80852" width="18.126" height="18.9885" filterUnits="userSpaceOnUse" color-interpolation-filters="sRGB">
<feFlood flood-opacity="0" result="BackgroundImageFix"/>
<feBlend mode="normal" in="SourceGraphic" in2="BackgroundImageFix" result="shape"/>
<feColorMatrix in="SourceAlpha" type="matrix" values="0 0 0 0 0 0 0 0 0 0 0 0 0 0 0 0 0 0 127 0" result="hardAlpha"/>
<feOffset dy="0.75"/>
<feGaussianBlur stdDeviation="0.75"/>
<feComposite in2="hardAlpha" operator="arithmetic" k2="-1" k3="1"/>
<feColorMatrix type="matrix" values="0 0 0 0 0.168627 0 0 0 0 0.603922 0 0 0 0 0.956863 0 0 0 1 0"/>
<feBlend mode="normal" in2="shape" result="effect1_innerShadow_937_2359"/>
<feColorMatrix in="SourceAlpha" type="matrix" values="0 0 0 0 0 0 0 0 0 0 0 0 0 0 0 0 0 0 127 0" result="hardAlpha"/>
<feOffset dy="-0.1125"/>
<feGaussianBlur stdDeviation="0.1125"/>
<feComposite in2="hardAlpha" operator="arithmetic" k2="-1" k3="1"/>
<feColorMatrix type="matrix" values="0 0 0 0 0.137255 0 0 0 0 0.607843 0 0 0 0 0.984314 0 0 0 1 0"/>
<feBlend mode="normal" in2="effect1_innerShadow_937_2359" result="effect2_innerShadow_937_2359"/>
</filter>
<linearGradient id="paint0_linear_937_2359" x1="25.188" y1="29.7499" x2="22.2189" y2="20.6558" gradientUnits="userSpaceOnUse">
<stop stop-color="#A0659C"/>
<stop offset="1" stop-color="#895792"/>
</linearGradient>
<linearGradient id="paint1_linear_937_2359" x1="20.4384" y1="20.5936" x2="23.4768" y2="23.6165" gradientUnits="userSpaceOnUse">
<stop stop-color="#6C3B74"/>
<stop offset="1" stop-color="#845590" stop-opacity="0"/>
</linearGradient>
<linearGradient id="paint2_linear_937_2359" x1="28.6875" y1="23.3754" x2="24.9377" y2="26.9059" gradientUnits="userSpaceOnUse">
<stop offset="0.115" stop-color="#703D7A"/>
<stop offset="1" stop-color="#703D7A" stop-opacity="0"/>
</linearGradient>
<radialGradient id="paint3_radial_937_2359" cx="0" cy="0" r="1" gradientUnits="userSpaceOnUse" gradientTransform="translate(19.9684 20.0467) rotate(47.442) scale(2.33336 5.42286)">
<stop stop-color="#2F1A3D"/>
<stop offset="1" stop-color="#532D64" stop-opacity="0"/>
</radialGradient>
<linearGradient id="paint4_linear_937_2359" x1="12.906" y1="2.172" x2="12.906" y2="23.797" gradientUnits="userSpaceOnUse">
<stop offset="0.379" stop-color="#344A7D"/>
<stop offset="0.633" stop-color="#785790"/>
<stop offset="0.837" stop-color="#785790"/>
<stop offset="1" stop-color="#9872A2"/>
</linearGradient>
<linearGradient id="paint5_linear_937_2359" x1="12.9059" y1="2.41602" x2="12.9059" y2="23.552" gradientUnits="userSpaceOnUse">
<stop stop-color="#475890"/>
<stop offset="1" stop-color="#7A4D87"/>
</linearGradient>
<radialGradient id="paint6_radial_937_2359" cx="0" cy="0" r="1" gradientUnits="userSpaceOnUse" gradientTransform="translate(12.9059 7.40602) rotate(-90) scale(5.125 9.53123)">
<stop offset="0.704" stop-color="#566298"/>
<stop offset="0.787" stop-color="#566298" stop-opacity="0"/>
</radialGradient>
<linearGradient id="paint7_linear_937_2359" x1="12.9061" y1="3.68896" x2="12.9061" y2="22.279" gradientUnits="userSpaceOnUse">
<stop stop-color="#204083"/>
<stop offset="1" stop-color="#523573"/>
</linearGradient>
<linearGradient id="paint8_linear_937_2359" x1="15.7128" y1="6.86001" x2="18.2665" y2="10.0253" gradientUnits="userSpaceOnUse">
<stop stop-color="#DCDBF2"/>
<stop offset="0.209" stop-color="#DCDBF2" stop-opacity="0.848"/>
<stop offset="1" stop-color="#DCDBF2" stop-opacity="0"/>
</linearGradient>
</defs>
</svg>
