<svg width="345" height="128" viewBox="0 0 345 128" fill="none" xmlns="http://www.w3.org/2000/svg">
<rect width="345" height="128" fill="white"/>
<path d="M120.205 51.5121C120.205 56.9172 118.583 60.7378 115.219 64.9518C112.72 68.0821 109.355 71.3235 105.011 75.5082C103.688 76.7824 102.275 78.1441 100.767 79.6167C98.3162 77.0315 96.0531 74.7664 94.0127 72.7243C93.7115 72.4228 93.4152 72.1263 93.1239 71.8342C90.4919 69.1962 88.2932 66.9561 86.5115 64.8089C83.0144 60.5947 81.2196 56.8587 81.2196 51.5121C81.2196 40.7399 89.9477 32.009 100.712 32.009C111.477 32.009 120.205 40.7399 120.205 51.5121Z" fill="white" stroke="#33C4A8" stroke-width="3.77279"/>
<ellipse cx="105.428" cy="49.9298" rx="1.57199" ry="1.572" fill="#33C4A8"/>
<ellipse cx="111.716" cy="49.9298" rx="1.57199" ry="1.572" fill="#33C4A8"/>
<mask id="path-4-inside-1_1462_1222" fill="white">
<path fill-rule="evenodd" clip-rule="evenodd" d="M108.004 70.9945L99.155 79.844L114.998 95.6872L115.193 95.4928L115.203 95.5029L125.341 85.3647C126.97 83.7355 126.97 81.0942 125.341 79.465C122.589 76.7131 118.393 76.2854 115.192 78.1822L108.004 70.9945Z"/>
</mask>
<path fill-rule="evenodd" clip-rule="evenodd" d="M108.004 70.9945L99.155 79.844L114.998 95.6872L115.193 95.4928L115.203 95.5029L125.341 85.3647C126.97 83.7355 126.97 81.0942 125.341 79.465C122.589 76.7131 118.393 76.2854 115.192 78.1822L108.004 70.9945Z" fill="white"/>
<path d="M99.155 79.844L96.4873 77.1762L93.8195 79.844L96.4873 82.5117L99.155 79.844ZM108.004 70.9945L110.672 68.3268L108.004 65.659L105.337 68.3268L108.004 70.9945ZM114.998 95.6872L112.33 98.355L114.998 101.023L117.666 98.355L114.998 95.6872ZM115.193 95.4928L117.86 92.825L115.193 90.1572L112.525 92.825L115.193 95.4928ZM115.203 95.5029L112.535 98.1706L115.203 100.838L117.87 98.1706L115.203 95.5029ZM125.341 85.3647L128.009 88.0324L125.341 85.3647ZM125.341 79.465L122.673 82.1328V82.1328L125.341 79.465ZM115.192 78.1822L112.524 80.8499L114.595 82.9211L117.115 81.4279L115.192 78.1822ZM101.823 82.5117L110.672 73.6623L105.337 68.3268L96.4873 77.1762L101.823 82.5117ZM117.666 93.0194L101.823 77.1762L96.4873 82.5117L112.33 98.355L117.666 93.0194ZM112.525 92.825L112.33 93.0194L117.666 98.355L117.86 98.1605L112.525 92.825ZM117.87 92.8351L117.86 92.825L112.525 98.1605L112.535 98.1706L117.87 92.8351ZM122.673 82.6969L112.535 92.8351L117.87 98.1706L128.009 88.0324L122.673 82.6969ZM122.673 82.1328C122.829 82.2886 122.829 82.5411 122.673 82.6969L128.009 88.0324C131.111 84.9299 131.111 79.8998 128.009 76.7973L122.673 82.1328ZM117.115 81.4279C118.869 80.3885 121.169 80.6289 122.673 82.1328L128.009 76.7973C124.009 72.7973 117.916 72.1824 113.269 74.9364L117.115 81.4279ZM105.337 73.6623L112.524 80.8499L117.86 75.5144L110.672 68.3268L105.337 73.6623Z" fill="#33C4A8" mask="url(#path-4-inside-1_1462_1222)"/>
<mask id="path-6-inside-2_1462_1222" fill="white">
<path fill-rule="evenodd" clip-rule="evenodd" d="M103.397 79.844L94.5476 70.9945L78.7044 86.8378L78.8988 87.0321L78.8888 87.042L89.027 97.1802C90.6561 98.8093 93.2974 98.8093 94.9265 97.1802C97.6785 94.4283 98.1061 90.2322 96.2095 87.0314L103.397 79.844Z"/>
</mask>
<path fill-rule="evenodd" clip-rule="evenodd" d="M103.397 79.844L94.5476 70.9945L78.7044 86.8378L78.8988 87.0321L78.8888 87.042L89.027 97.1802C90.6561 98.8093 93.2974 98.8093 94.9265 97.1802C97.6785 94.4283 98.1061 90.2322 96.2095 87.0314L103.397 79.844Z" fill="white"/>
<path d="M94.5476 70.9945L97.2154 68.3268L94.5476 65.659L91.8798 68.3268L94.5476 70.9945ZM103.397 79.844L106.065 82.5117L108.732 79.844L106.065 77.1762L103.397 79.844ZM78.7044 86.8378L76.0367 84.17L73.369 86.8377L76.0367 89.5055L78.7044 86.8378ZM78.8988 87.0321L81.5665 89.6998L84.2343 87.0321L81.5665 84.3643L78.8988 87.0321ZM78.8888 87.042L76.2211 84.3742L73.5533 87.042L76.2211 89.7097L78.8888 87.042ZM89.027 97.1802L91.6947 94.5124L91.6947 94.5124L89.027 97.1802ZM94.9265 97.1802L97.5943 99.8479L97.5943 99.8479L94.9265 97.1802ZM96.2095 87.0314L93.5418 84.3637L91.4706 86.4348L92.9638 88.9547L96.2095 87.0314ZM91.8798 73.6623L100.729 82.5117L106.065 77.1762L97.2154 68.3268L91.8798 73.6623ZM81.3722 89.5055L97.2154 73.6623L91.8798 68.3268L76.0367 84.17L81.3722 89.5055ZM81.5665 84.3643L81.3722 84.17L76.0367 89.5055L76.231 89.6998L81.5665 84.3643ZM81.5566 89.7097L81.5665 89.6998L76.231 84.3643L76.2211 84.3742L81.5566 89.7097ZM91.6947 94.5124L81.5566 84.3742L76.2211 89.7097L86.3592 99.8479L91.6947 94.5124ZM92.2588 94.5124C92.103 94.6682 91.8505 94.6682 91.6947 94.5124L86.3592 99.8479C89.4617 102.95 94.4918 102.95 97.5943 99.8479L92.2588 94.5124ZM92.9638 88.9547C94.0031 90.7088 93.7626 93.0085 92.2588 94.5124L97.5943 99.8479C101.594 95.848 102.209 89.7557 99.4553 85.1082L92.9638 88.9547ZM100.729 77.1762L93.5418 84.3637L98.8773 89.6992L106.065 82.5117L100.729 77.1762Z" fill="#33C4A8" mask="url(#path-6-inside-2_1462_1222)"/>
<path d="M190.071 51.5123C190.071 56.9174 188.449 60.738 185.085 64.9521C182.586 68.0823 179.221 71.3237 174.877 75.5085C173.554 76.7827 172.141 78.1443 170.633 79.6169C168.182 77.0318 165.919 74.7667 163.879 72.7245C163.578 72.4231 163.281 72.1265 162.99 71.8345C160.358 69.1964 158.159 66.9563 156.378 64.8092C152.881 60.5949 151.086 56.8589 151.086 51.5123C151.086 40.7402 159.814 32.0092 170.579 32.0092C181.343 32.0092 190.071 40.7402 190.071 51.5123Z" fill="white" stroke="#33C4A8" stroke-width="3.77279"/>
<mask id="path-9-inside-3_1462_1222" fill="white">
<path fill-rule="evenodd" clip-rule="evenodd" d="M177.871 70.9948L169.022 79.8442L184.865 95.6874L185.059 95.4931L185.069 95.503L195.207 85.3648C196.837 83.7357 196.837 81.0943 195.207 79.4652C192.456 76.7132 188.26 76.2856 185.059 78.1822L177.871 70.9948Z"/>
</mask>
<path fill-rule="evenodd" clip-rule="evenodd" d="M177.871 70.9948L169.022 79.8442L184.865 95.6874L185.059 95.4931L185.069 95.503L195.207 85.3648C196.837 83.7357 196.837 81.0943 195.207 79.4652C192.456 76.7132 188.26 76.2856 185.059 78.1822L177.871 70.9948Z" fill="white"/>
<path d="M169.022 79.8442L166.354 77.1764L163.686 79.8442L166.354 82.512L169.022 79.8442ZM177.871 70.9948L180.539 68.327L177.871 65.6592L175.204 68.327L177.871 70.9948ZM184.865 95.6874L182.197 98.3552L184.865 101.023L187.533 98.3552L184.865 95.6874ZM185.059 95.4931L187.727 92.8253L185.059 90.1576L182.392 92.8254L185.059 95.4931ZM185.069 95.503L182.402 98.1708L185.069 100.839L187.737 98.1707L185.069 95.503ZM195.207 85.3648L197.875 88.0325L195.207 85.3648ZM195.207 79.4652L192.54 82.1329L192.54 82.1329L195.207 79.4652ZM185.059 78.1822L182.391 80.85L184.462 82.9211L186.982 81.4279L185.059 78.1822ZM171.69 82.512L180.539 73.6625L175.204 68.327L166.354 77.1764L171.69 82.512ZM187.533 93.0197L171.69 77.1764L166.354 82.512L182.197 98.3552L187.533 93.0197ZM182.392 92.8254L182.197 93.0197L187.533 98.3552L187.727 98.1608L182.392 92.8254ZM187.737 92.8352L187.727 92.8253L182.392 98.1609L182.402 98.1708L187.737 92.8352ZM192.54 82.697L182.402 92.8352L187.737 98.1707L197.875 88.0325L192.54 82.697ZM192.54 82.1329C192.695 82.2887 192.695 82.5413 192.54 82.697L197.875 88.0325C200.978 84.93 200.978 79.8999 197.875 76.7974L192.54 82.1329ZM186.982 81.4279C188.736 80.3886 191.036 80.629 192.54 82.1329L197.875 76.7974C193.875 72.7974 187.783 72.1826 183.135 74.9365L186.982 81.4279ZM175.204 73.6625L182.391 80.85L187.727 75.5144L180.539 68.327L175.204 73.6625Z" fill="#33C4A8" mask="url(#path-9-inside-3_1462_1222)"/>
<mask id="path-11-inside-4_1462_1222" fill="white">
<path fill-rule="evenodd" clip-rule="evenodd" d="M173.263 79.8443L164.414 70.9949L148.571 86.8381L148.765 87.0326L148.755 87.0423L158.894 97.1805C160.523 98.8096 163.164 98.8096 164.793 97.1805C167.545 94.4285 167.973 90.2323 166.076 87.0315L173.263 79.8443Z"/>
</mask>
<path fill-rule="evenodd" clip-rule="evenodd" d="M173.263 79.8443L164.414 70.9949L148.571 86.8381L148.765 87.0326L148.755 87.0423L158.894 97.1805C160.523 98.8096 163.164 98.8096 164.793 97.1805C167.545 94.4285 167.973 90.2323 166.076 87.0315L173.263 79.8443Z" fill="white"/>
<path d="M164.414 70.9949L167.082 68.3271L164.414 65.6593L161.746 68.3271L164.414 70.9949ZM173.263 79.8443L175.931 82.5121L178.599 79.8443L175.931 77.1766L173.263 79.8443ZM148.571 86.8381L145.903 84.1704L143.235 86.8381L145.903 89.5059L148.571 86.8381ZM148.765 87.0326L151.433 89.7004L154.101 87.0326L151.433 84.3649L148.765 87.0326ZM148.755 87.0423L146.088 84.3745L143.42 87.0423L146.088 89.71L148.755 87.0423ZM158.894 97.1805L161.561 94.5127L161.561 94.5127L158.894 97.1805ZM164.793 97.1805L167.461 99.8482L167.461 99.8482L164.793 97.1805ZM166.076 87.0315L163.408 84.3638L161.337 86.435L162.83 88.9549L166.076 87.0315ZM161.746 73.6626L170.595 82.5121L175.931 77.1766L167.082 68.3271L161.746 73.6626ZM151.238 89.5059L167.082 73.6626L161.746 68.3271L145.903 84.1704L151.238 89.5059ZM151.433 84.3649L151.238 84.1704L145.903 89.5059L146.097 89.7004L151.433 84.3649ZM151.423 89.71L151.433 89.7004L146.097 84.3649L146.088 84.3745L151.423 89.71ZM161.561 94.5127L151.423 84.3745L146.088 89.71L156.226 99.8482L161.561 94.5127ZM162.125 94.5127C161.97 94.6685 161.717 94.6685 161.561 94.5127L156.226 99.8482C159.328 102.951 164.358 102.951 167.461 99.8482L162.125 94.5127ZM162.83 88.9549C163.87 90.709 163.629 93.0088 162.125 94.5127L167.461 99.8482C171.461 95.8482 172.076 89.7557 169.322 85.1081L162.83 88.9549ZM170.595 77.1766L163.408 84.3638L168.744 89.6993L175.931 82.5121L170.595 77.1766Z" fill="#33C4A8" mask="url(#path-11-inside-4_1462_1222)"/>
<rect x="173.652" y="49.6156" width="3.14398" height="1.572" rx="0.628798" fill="#33C4A8"/>
<ellipse cx="181.582" cy="49.93" rx="1.57199" ry="1.572" fill="#33C4A8"/>
<path d="M259.938 51.5121C259.938 56.9172 258.316 60.7378 254.952 64.9518C252.453 68.0821 249.088 71.3235 244.744 75.5082C243.421 76.7824 242.008 78.1441 240.5 79.6167C238.049 77.0315 235.786 74.7664 233.746 72.7243C233.445 72.4228 233.148 72.1263 232.857 71.8342C230.225 69.1962 228.026 66.9561 226.245 64.8089C222.748 60.5947 220.953 56.8587 220.953 51.5121C220.953 40.7399 229.681 32.009 240.445 32.009C251.21 32.009 259.938 40.7399 259.938 51.5121Z" fill="white" stroke="#33C4A8" stroke-width="3.77279"/>
<mask id="path-16-inside-5_1462_1222" fill="white">
<path fill-rule="evenodd" clip-rule="evenodd" d="M247.738 70.9945L238.889 79.844L254.732 95.6872L254.926 95.4927L254.936 95.5028L265.074 85.3646C266.704 83.7354 266.704 81.0941 265.074 79.4649C262.323 76.7129 258.126 76.2853 254.926 78.1821L247.738 70.9945Z"/>
</mask>
<path fill-rule="evenodd" clip-rule="evenodd" d="M247.738 70.9945L238.889 79.844L254.732 95.6872L254.926 95.4927L254.936 95.5028L265.074 85.3646C266.704 83.7354 266.704 81.0941 265.074 79.4649C262.323 76.7129 258.126 76.2853 254.926 78.1821L247.738 70.9945Z" fill="white"/>
<path d="M238.889 79.844L236.221 77.1762L233.553 79.844L236.221 82.5117L238.889 79.844ZM247.738 70.9945L250.406 68.3268L247.738 65.659L245.07 68.3268L247.738 70.9945ZM254.732 95.6872L252.064 98.355L254.732 101.023L257.4 98.3549L254.732 95.6872ZM254.926 95.4927L257.594 92.825L254.926 90.1572L252.259 92.825L254.926 95.4927ZM254.936 95.5028L252.269 98.1705L254.936 100.838L257.604 98.1705L254.936 95.5028ZM265.074 85.3646L267.742 88.0323L265.074 85.3646ZM265.074 79.4649L262.407 82.1327L262.407 82.1327L265.074 79.4649ZM254.926 78.1821L252.258 80.8498L254.329 82.9211L256.849 81.4278L254.926 78.1821ZM241.556 82.5117L250.406 73.6623L245.07 68.3268L236.221 77.1762L241.556 82.5117ZM257.4 93.0194L241.556 77.1762L236.221 82.5117L252.064 98.355L257.4 93.0194ZM252.259 92.825L252.064 93.0195L257.4 98.3549L257.594 98.1605L252.259 92.825ZM257.604 92.835L257.594 92.825L252.259 98.1605L252.269 98.1705L257.604 92.835ZM262.407 82.6968L252.269 92.835L257.604 98.1705L267.742 88.0323L262.407 82.6968ZM262.407 82.1327C262.562 82.2885 262.562 82.541 262.407 82.6968L267.742 88.0323C270.845 84.9298 270.845 79.8997 267.742 76.7972L262.407 82.1327ZM256.849 81.4278C258.603 80.3883 260.903 80.6288 262.407 82.1327L267.742 76.7972C263.742 72.7971 257.65 72.1823 253.002 74.9364L256.849 81.4278ZM245.07 73.6623L252.258 80.8498L257.593 75.5143L250.406 68.3268L245.07 73.6623Z" fill="#33C4A8" mask="url(#path-16-inside-5_1462_1222)"/>
<mask id="path-18-inside-6_1462_1222" fill="white">
<path fill-rule="evenodd" clip-rule="evenodd" d="M243.13 79.8441L234.28 70.9946L218.437 86.8379L218.632 87.0323L218.622 87.042L228.76 97.1802C230.389 98.8093 233.03 98.8093 234.659 97.1802C237.411 94.4282 237.839 90.2321 235.942 87.0314L243.13 79.8441Z"/>
</mask>
<path fill-rule="evenodd" clip-rule="evenodd" d="M243.13 79.8441L234.28 70.9946L218.437 86.8379L218.632 87.0323L218.622 87.042L228.76 97.1802C230.389 98.8093 233.03 98.8093 234.659 97.1802C237.411 94.4282 237.839 90.2321 235.942 87.0314L243.13 79.8441Z" fill="white"/>
<path d="M234.28 70.9946L236.948 68.3269L234.28 65.6591L231.612 68.3269L234.28 70.9946ZM243.13 79.8441L245.797 82.5118L248.465 79.8441L245.797 77.1763L243.13 79.8441ZM218.437 86.8379L215.769 84.1701L213.102 86.8379L215.769 89.5056L218.437 86.8379ZM218.632 87.0323L221.299 89.7L223.967 87.0323L221.299 84.3645L218.632 87.0323ZM218.622 87.042L215.954 84.3742L213.286 87.042L215.954 89.7098L218.622 87.042ZM228.76 97.1802L231.428 94.5125L231.428 94.5124L228.76 97.1802ZM234.659 97.1802L237.327 99.848L237.327 99.848L234.659 97.1802ZM235.942 87.0314L233.275 84.3636L231.203 86.4348L232.697 88.9547L235.942 87.0314ZM231.612 73.6624L240.462 82.5118L245.797 77.1763L236.948 68.3269L231.612 73.6624ZM221.105 89.5056L236.948 73.6624L231.612 68.3269L215.769 84.1701L221.105 89.5056ZM221.299 84.3645L221.105 84.1701L215.769 89.5056L215.964 89.7L221.299 84.3645ZM221.29 89.7098L221.299 89.7L215.964 84.3645L215.954 84.3742L221.29 89.7098ZM231.428 94.5124L221.29 84.3742L215.954 89.7098L226.092 99.848L231.428 94.5124ZM231.992 94.5124C231.836 94.6682 231.583 94.6682 231.428 94.5125L226.092 99.848C229.195 102.95 234.225 102.95 237.327 99.848L231.992 94.5124ZM232.697 88.9547C233.736 90.7087 233.496 93.0086 231.992 94.5124L237.327 99.848C241.327 95.8479 241.942 89.7556 239.188 85.1081L232.697 88.9547ZM240.462 77.1763L233.275 84.3636L238.61 89.6991L245.797 82.5118L240.462 77.1763Z" fill="#33C4A8" mask="url(#path-18-inside-6_1462_1222)"/>
<ellipse cx="245.161" cy="49.9298" rx="1.57199" ry="1.572" fill="#33C4A8"/>
<ellipse cx="251.449" cy="49.9298" rx="1.57199" ry="1.572" fill="#33C4A8"/>
</svg>
