<svg width="22" height="22" viewBox="0 0 22 22" fill="none" xmlns="http://www.w3.org/2000/svg">
<path fill-rule="evenodd" clip-rule="evenodd" d="M11 9.35C11.5835 9.35 12.1431 9.11821 12.5556 8.70563C12.9682 8.29305 13.2 7.73348 13.2 7.15C13.2 6.56652 12.9682 6.00694 12.5556 5.59436C12.1431 5.18178 11.5835 4.95 11 4.95C10.4165 4.95 9.85695 5.18178 9.44437 5.59436C9.03179 6.00694 8.8 6.56652 8.8 7.15C8.8 7.73348 9.03179 8.29305 9.44437 8.70563C9.85695 9.11821 10.4165 9.35 11 9.35ZM11 6.05C11.2917 6.05 11.5715 6.16589 11.7778 6.37218C11.9841 6.57847 12.1 6.85826 12.1 7.15C12.1 7.44174 11.9841 7.72153 11.7778 7.92782C11.5715 8.13411 11.2917 8.25 11 8.25C10.7083 8.25 10.4285 8.13411 10.2222 7.92782C10.0159 7.72153 9.9 7.44174 9.9 7.15C9.9 6.85826 10.0159 6.57847 10.2222 6.37218C10.4285 6.16589 10.7083 6.05 11 6.05Z" fill="black"/>
<path fill-rule="evenodd" clip-rule="evenodd" d="M6.05 6.9146C6.05 9.8549 8.9683 14.85 11 14.85C13.0328 14.85 15.95 9.8549 15.95 6.9146C15.95 4.015 13.7423 1.65 11 1.65C8.2577 1.65 6.05 4.015 6.05 6.9146ZM14.85 6.9146C14.85 9.3269 12.2672 13.75 11 13.75C9.7339 13.75 7.15 9.328 7.15 6.9146C7.15 4.6057 8.8825 2.75 11 2.75C13.1175 2.75 14.85 4.6057 14.85 6.9146Z" fill="black"/>
<path d="M14.7785 10.054C14.647 9.99741 14.5427 9.89176 14.4879 9.75951C14.433 9.62725 14.4319 9.47882 14.4847 9.34575C14.5376 9.21269 14.6402 9.10548 14.7709 9.04691C14.9016 8.98834 15.0499 8.98303 15.1844 9.0321C15.6317 9.20951 16.0348 9.48261 16.3654 9.83224C16.6961 10.1819 16.9462 10.5996 17.0984 11.0561L18.5658 15.4561C18.7313 15.9524 18.7764 16.4808 18.6975 16.998C18.6185 17.5151 18.4178 18.006 18.1118 18.4303C17.8058 18.8546 17.4033 19.2001 16.9376 19.4382C16.4718 19.6764 15.9561 19.8004 15.433 19.8H6.567C6.04407 19.8 5.52863 19.6757 5.06315 19.4375C4.59767 19.1992 4.19549 18.8537 3.88975 18.4294C3.58401 18.0052 3.38346 17.5144 3.30464 16.9974C3.22582 16.4805 3.27098 15.9522 3.4364 15.4561L4.9027 11.0561C5.05753 10.5914 5.31386 10.167 5.6531 9.81368C5.99234 9.46036 6.40598 9.18699 6.864 9.0134C6.93153 8.98776 7.00345 8.97567 7.07566 8.97783C7.14786 8.97998 7.21893 8.99633 7.28482 9.02596C7.3507 9.05558 7.4101 9.09789 7.45963 9.15047C7.50917 9.20305 7.54786 9.26487 7.5735 9.3324C7.59914 9.39993 7.61123 9.47185 7.60907 9.54406C7.60692 9.61626 7.59056 9.68733 7.56094 9.75322C7.53132 9.8191 7.48901 9.8785 7.43643 9.92804C7.38385 9.97757 7.32203 10.0163 7.2545 10.0419C6.94876 10.1576 6.67264 10.3399 6.44621 10.5756C6.21978 10.8114 6.04873 11.0946 5.9455 11.4048L4.4792 15.8048C4.36904 16.1355 4.33906 16.4877 4.39171 16.8323C4.44436 17.1769 4.57815 17.504 4.78205 17.7868C4.98594 18.0695 5.25411 18.2998 5.56444 18.4586C5.87478 18.6173 6.2184 18.7001 6.567 18.7H15.4352C15.7838 18.7 16.1275 18.6171 16.4378 18.4582C16.7481 18.2993 17.0162 18.0689 17.22 17.786C17.4238 17.5032 17.5574 17.1759 17.6099 16.8313C17.6624 16.4866 17.6322 16.1344 17.5219 15.8037L16.0567 11.4037C15.9552 11.0995 15.7883 10.8212 15.5679 10.5882C15.3475 10.3552 15.0788 10.1733 14.7807 10.0551" fill="black"/>
</svg>
