<svg width="92" height="131" viewBox="0 0 92 131" fill="none" xmlns="http://www.w3.org/2000/svg">
<circle cx="51" cy="37.8" r="3" fill="#C1DBD7"/>
<circle cx="63" cy="37.8" r="3" fill="#C1DBD7"/>
<path d="M79.2002 40.8197C79.2002 51.1347 76.1049 58.4259 69.6848 66.468C64.9158 72.4418 58.4942 78.6277 50.2037 86.6139C47.6794 89.0456 44.9817 91.6442 42.1048 94.4545C37.4274 89.5209 33.1083 85.198 29.2143 81.3007C28.6397 80.7256 28.0743 80.1597 27.5184 79.6025C22.4956 74.5679 18.2994 70.293 14.8991 66.1954C8.2253 58.1529 4.8002 51.0231 4.8002 40.8197C4.8002 20.2622 21.4568 3.6 42.0002 3.6C62.5436 3.6 79.2002 20.2622 79.2002 40.8197Z" stroke="#C1DBD7" stroke-width="7.2"/>
<mask id="path-4-inside-1_1357_6204" fill="white">
<path fill-rule="evenodd" clip-rule="evenodd" d="M55.9171 78L39.0288 94.8883L69.264 125.123L69.6349 124.753L69.6538 124.771L89.0015 105.424C92.1105 102.315 92.1105 97.274 89.0015 94.1649C83.7497 88.9131 75.7419 88.097 69.6336 91.7165L55.9171 78Z"/>
</mask>
<path d="M39.0288 94.8883L33.9376 89.7971L28.8465 94.8883L33.9376 99.9794L39.0288 94.8883ZM55.9171 78L61.0082 72.9088L55.9171 67.8177L50.8259 72.9088L55.9171 78ZM69.264 125.123L64.1729 130.215L69.264 135.306L74.3552 130.215L69.264 125.123ZM69.6349 124.753L74.7258 119.661L69.6347 114.571L64.5437 119.661L69.6349 124.753ZM69.6538 124.771L64.5629 129.863L69.654 134.954L74.7449 129.863L69.6538 124.771ZM89.0015 105.424L94.0926 110.515V110.515L89.0015 105.424ZM69.6336 91.7165L64.5424 96.8077L68.495 100.76L73.304 97.9107L69.6336 91.7165ZM44.12 99.9794L61.0082 83.0912L50.8259 72.9088L33.9376 89.7971L44.12 99.9794ZM74.3552 120.032L44.12 89.7971L33.9376 99.9794L64.1729 130.215L74.3552 120.032ZM64.5437 119.661L64.1729 120.032L74.3552 130.215L74.7261 129.844L64.5437 119.661ZM74.7447 119.68L74.7258 119.661L64.544 129.844L64.5629 129.863L74.7447 119.68ZM83.9103 100.333L64.5626 119.68L74.7449 129.863L94.0926 110.515L83.9103 100.333ZM83.9103 99.2561C84.2076 99.5533 84.2076 100.035 83.9103 100.333L94.0926 110.515C100.013 104.594 100.013 94.9946 94.0926 89.0737L83.9103 99.2561ZM73.304 97.9107C76.6514 95.9272 81.0403 96.3861 83.9103 99.2561L94.0926 89.0737C86.4591 81.4402 74.8324 80.2668 65.9632 85.5223L73.304 97.9107ZM50.8259 83.0912L64.5424 96.8077L74.7248 86.6253L61.0082 72.9088L50.8259 83.0912Z" fill="#C1DBD7" mask="url(#path-4-inside-1_1357_6204)"/>
<mask id="path-6-inside-2_1357_6204" fill="white">
<path fill-rule="evenodd" clip-rule="evenodd" d="M47.1235 94.8883L30.2353 78L5.20841e-05 108.235L0.37094 108.606L0.35208 108.625L19.6998 127.973C22.8088 131.082 27.8496 131.082 30.9586 127.973C36.2104 122.721 37.0266 114.713 33.407 108.605L47.1235 94.8883Z"/>
</mask>
<path d="M30.2353 78L35.3264 72.9088L30.2353 67.8177L25.1441 72.9088L30.2353 78ZM47.1235 94.8883L52.2147 99.9794L57.3059 94.8883L52.2147 89.7971L47.1235 94.8883ZM5.20841e-05 108.235L-5.09112 103.144L-10.1823 108.235L-5.0911 113.326L5.20841e-05 108.235ZM0.37094 108.606L5.46211 113.697L10.5533 108.606L5.4621 103.515L0.37094 108.606ZM0.35208 108.625L-4.73909 103.534L-9.83025 108.625L-4.73909 113.716L0.35208 108.625ZM19.6998 127.973L14.6086 133.064L14.6086 133.064L19.6998 127.973ZM33.407 108.605L28.3159 103.514L24.3633 107.466L27.2128 112.275L33.407 108.605ZM25.1441 83.0912L42.0324 99.9794L52.2147 89.7971L35.3264 72.9088L25.1441 83.0912ZM5.09122 113.326L35.3264 83.0912L25.1441 72.9088L-5.09112 103.144L5.09122 113.326ZM5.4621 103.515L5.09121 103.144L-5.0911 113.326L-4.72022 113.697L5.4621 103.515ZM5.44325 113.716L5.46211 113.697L-4.72023 103.515L-4.73909 103.534L5.44325 113.716ZM24.791 122.882L5.44325 103.534L-4.73909 113.716L14.6086 133.064L24.791 122.882ZM25.8675 122.882C25.5702 123.179 25.0882 123.179 24.791 122.881L14.6086 133.064C20.5294 138.985 30.129 138.985 36.0498 133.064L25.8675 122.882ZM27.2128 112.275C29.1964 115.623 28.7375 120.011 25.8675 122.882L36.0498 133.064C43.6834 125.43 44.8567 113.804 39.6012 104.934L27.2128 112.275ZM42.0324 89.7971L28.3159 103.514L38.4982 113.696L52.2147 99.9794L42.0324 89.7971Z" fill="#C1DBD7" mask="url(#path-6-inside-2_1357_6204)"/>
</svg>
