<svg width="38" height="48" viewBox="0 0 38 48" fill="none" xmlns="http://www.w3.org/2000/svg">
<path fill-rule="evenodd" clip-rule="evenodd" d="M10.8 0C4.83533 0 0 4.83532 0 10.8V30C0 35.9647 4.83532 40.8 10.8 40.8H16.7549L18.6888 47.7858L20.6227 40.8H26.5999C32.5646 40.8 37.3999 35.9647 37.3999 30V10.8C37.3999 4.83533 32.5646 0 26.5999 0H10.8Z" fill="#C1DBD7"/>
<path d="M14.7699 23.123C14.0844 23.1143 13.5131 22.5605 13.5219 21.875C13.5131 21.1895 14.0844 20.627 14.7699 20.627C15.4467 20.627 16.0092 21.1895 16.018 21.875C16.0092 22.5605 15.4467 23.1143 14.7699 23.123ZM19 23.123C18.3145 23.1143 17.7432 22.5605 17.752 21.875C17.7432 21.1895 18.3145 20.627 19 20.627C19.6768 20.627 20.2393 21.1895 20.248 21.875C20.2393 22.5605 19.6768 23.1143 19 23.123ZM23.2301 23.123C22.5445 23.1143 21.9733 22.5605 21.982 21.875C21.9733 21.1895 22.5445 20.627 23.2301 20.627C23.9069 20.627 24.4694 21.1895 24.4781 21.875C24.4694 22.5605 23.9069 23.1143 23.2301 23.123Z" fill="white"/>
</svg>
