<svg width="22" height="22" viewBox="0 0 22 22" fill="none" xmlns="http://www.w3.org/2000/svg">
<path d="M19.25 19.25L15.2689 15.2689M15.2689 15.2689C15.9499 14.5879 16.4901 13.7795 16.8586 12.8898C17.2272 12 17.4169 11.0464 17.4169 10.0833C17.4169 9.12028 17.2272 8.16666 16.8586 7.27692C16.4901 6.38717 15.9499 5.57873 15.2689 4.89775C14.5879 4.21677 13.7795 3.67659 12.8898 3.30804C12 2.9395 11.0464 2.74981 10.0833 2.74981C9.12028 2.74981 8.16666 2.9395 7.27692 3.30804C6.38717 3.67659 5.57873 4.21677 4.89775 4.89775C3.52245 6.27305 2.74981 8.13836 2.74981 10.0833C2.74981 12.0283 3.52245 13.8936 4.89775 15.2689C6.27305 16.6442 8.13836 17.4169 10.0833 17.4169C12.0283 17.4169 13.8936 16.6442 15.2689 15.2689Z" stroke="black" stroke-linecap="round" stroke-linejoin="round"/>
</svg>
