<svg width="24" height="24" viewBox="0 0 24 24" fill="none" xmlns="http://www.w3.org/2000/svg">
<path d="M15.75 12C15.75 12.9946 15.3549 13.9484 14.6516 14.6516C13.9484 15.3549 12.9946 15.75 12 15.75C11.0054 15.75 10.0516 15.3549 9.34835 14.6516C8.64509 13.9484 8.25 12.9946 8.25 12C8.25 11.0054 8.64509 10.0516 9.34835 9.34835C10.0516 8.64509 11.0054 8.25 12 8.25C12.9946 8.25 13.9484 8.64509 14.6516 9.34835C15.3549 10.0516 15.75 11.0054 15.75 12ZM15 12C15 11.2043 14.6839 10.4413 14.1213 9.87868C13.5587 9.31607 12.7956 9 12 9C11.2043 9 10.4413 9.31607 9.87868 9.87868C9.31607 10.4413 9 11.2043 9 12C9 12.7956 9.31607 13.5587 9.87868 14.1213C10.4413 14.6839 11.2043 15 12 15C12.7956 15 13.5587 14.6839 14.1213 14.1213C14.6839 13.5587 15 12.7956 15 12ZM4.425 4.728C4.52995 4.62164 4.66538 4.55056 4.81254 4.52463C4.95969 4.49869 5.11126 4.51918 5.24625 4.58325L6.59625 5.20575C6.80921 5.30406 7.04227 5.35107 7.27669 5.34298C7.51111 5.33489 7.74037 5.27194 7.94605 5.15918C8.15173 5.04642 8.3281 4.88699 8.461 4.69371C8.59389 4.50042 8.6796 4.27867 8.71125 4.04625L8.934 2.41425C8.95197 2.27148 9.0123 2.13737 9.10721 2.02922C9.20213 1.92107 9.32727 1.84385 9.4665 1.8075C10.2951 1.60243 11.1456 1.49917 11.9992 1.5C12.873 1.5 13.7212 1.6065 14.5327 1.8075C14.672 1.84385 14.7971 1.92107 14.892 2.02922C14.9869 2.13737 15.0473 2.27148 15.0652 2.41425L15.288 4.04625C15.3197 4.27857 15.4054 4.50022 15.5382 4.69343C15.6711 4.88663 15.8474 5.046 16.053 5.15874C16.2585 5.27149 16.4877 5.33447 16.722 5.34263C16.9563 5.3508 17.1893 5.30392 17.4022 5.20575L18.7522 4.58325C18.8872 4.51918 19.0388 4.49869 19.186 4.52463C19.3331 4.55056 19.4686 4.62164 19.5735 4.728C20.7501 5.95228 21.6122 7.44366 22.086 9.07425C22.1255 9.21846 22.1192 9.37141 22.0679 9.51186C22.0165 9.65231 21.9227 9.77329 21.7995 9.858L20.4975 10.773C20.3005 10.9114 20.1397 11.0952 20.0287 11.3088C19.9177 11.5224 19.8598 11.7596 19.8598 12.0004C19.8598 12.2411 19.9177 12.4783 20.0287 12.692C20.1397 12.9056 20.3005 13.0894 20.4975 13.2277L21.7995 14.1427C21.9226 14.2274 22.0163 14.3483 22.0676 14.4886C22.119 14.6289 22.1254 14.7816 22.086 14.9257C21.6122 16.5563 20.7501 18.0477 19.5735 19.272C19.4686 19.3782 19.3333 19.4492 19.1863 19.4751C19.0393 19.501 18.8879 19.4806 18.753 19.4167L17.4015 18.7942C17.1886 18.6962 16.9557 18.6495 16.7215 18.6577C16.4872 18.6659 16.2582 18.729 16.0527 18.8417C15.8472 18.9544 15.671 19.1137 15.5382 19.3069C15.4054 19.5 15.3197 19.7215 15.288 19.9537L15.0652 21.5857C15.0473 21.7285 14.9869 21.8626 14.892 21.9708C14.7971 22.0789 14.672 22.1562 14.5327 22.1925C13.7039 22.3976 12.8531 22.5009 11.9992 22.5C11.1454 22.5009 10.2946 22.3976 9.46575 22.1925C9.32652 22.1562 9.20138 22.0789 9.10646 21.9708C9.01155 21.8626 8.95122 21.7285 8.93325 21.5857L8.71125 19.9537C8.6796 19.7213 8.59389 19.4996 8.461 19.3063C8.3281 19.113 8.15173 18.9536 7.94605 18.8408C7.74037 18.7281 7.51111 18.6651 7.27669 18.657C7.04227 18.6489 6.80921 18.6959 6.59625 18.7942L5.24625 19.4167C5.11126 19.4808 4.95969 19.5013 4.81254 19.4754C4.66538 19.4494 4.52995 19.3784 4.425 19.272C3.24829 18.0475 2.38614 16.5559 1.9125 14.925C1.87295 14.7808 1.87929 14.6278 1.93063 14.4874C1.98197 14.3469 2.07577 14.226 2.199 14.1412L3.50175 13.2262C3.69874 13.0879 3.85952 12.9041 3.97052 12.6905C4.08151 12.4768 4.13946 12.2396 4.13946 11.9989C4.13946 11.7581 4.08151 11.5209 3.97052 11.3073C3.85952 11.0937 3.69874 10.9099 3.50175 10.7715L2.199 9.8565C2.07577 9.77179 1.98197 9.65081 1.93063 9.51036C1.87929 9.36991 1.87295 9.21696 1.9125 9.07275C2.38658 7.44296 3.2487 5.95164 4.425 4.728ZM2.6415 9.25275L3.93225 10.1595C5.208 11.0557 5.208 12.9457 3.93225 13.842L2.64225 14.7487C3.08111 16.2409 3.87059 17.6064 4.94475 18.7312L6.28275 18.114C6.60207 17.9668 6.95144 17.8965 7.30284 17.9088C7.65423 17.921 7.99786 18.0155 8.30617 18.1845C8.61448 18.3535 8.87889 18.5924 9.07818 18.8821C9.27747 19.1718 9.4061 19.5041 9.45375 19.8525L9.675 21.4725C10.419 21.654 11.1975 21.7507 12 21.7507C12.7829 21.7516 13.563 21.6582 14.3235 21.4725L14.5447 19.8525C14.5924 19.5041 14.721 19.1718 14.9203 18.8821C15.1196 18.5924 15.384 18.3535 15.6923 18.1845C16.0006 18.0155 16.3443 17.921 16.6957 17.9088C17.0471 17.8965 17.3964 17.9668 17.7157 18.114L19.0545 18.7305C20.1287 17.6057 20.9181 16.2401 21.357 14.748L20.067 13.842C19.7714 13.6344 19.5302 13.3587 19.3637 13.0383C19.1971 12.7178 19.1102 12.3619 19.1102 12.0007C19.1102 11.6396 19.1971 11.2837 19.3637 10.9632C19.5302 10.6428 19.7714 10.3671 20.067 10.1595L21.357 9.25275C20.9181 7.7606 20.1287 6.3951 19.0545 5.27025L17.7157 5.8875C17.3964 6.03467 17.0471 6.10495 16.6957 6.09271C16.3443 6.08047 16.0006 5.98605 15.6923 5.81702C15.384 5.64798 15.1196 5.40905 14.9203 5.11938C14.721 4.82971 14.5924 4.49736 14.5447 4.149L14.3235 2.529C13.5628 2.34299 12.7824 2.24932 11.9992 2.25C11.1975 2.25 10.419 2.34675 9.675 2.52825L9.45375 4.14825C9.4061 4.49661 9.27747 4.82896 9.07818 5.11863C8.87889 5.4083 8.61448 5.64723 8.30617 5.81627C7.99786 5.9853 7.65423 6.07972 7.30284 6.09196C6.95144 6.1042 6.60207 6.03392 6.28275 5.88675L4.94475 5.27025C3.87059 6.3951 3.08036 7.7606 2.6415 9.25275Z" fill="black"/>
</svg>
