<svg width="24" height="24" viewBox="0 0 24 24" fill="none" xmlns="http://www.w3.org/2000/svg">
<path fill-rule="evenodd" clip-rule="evenodd" d="M14.2788 2.152C13.9088 2 13.4388 2 12.4998 2C11.5608 2 11.0918 2 10.7208 2.152C10.2283 2.35421 9.83621 2.74377 9.63083 3.235C9.53683 3.458 9.50083 3.719 9.48583 4.098C9.47916 4.3726 9.40256 4.64097 9.26327 4.87772C9.12399 5.11447 8.92662 5.31178 8.68983 5.451C8.44857 5.5851 8.17737 5.65615 7.90135 5.65754C7.62534 5.65894 7.35343 5.59065 7.11083 5.459C6.77283 5.281 6.52783 5.183 6.28583 5.151C5.75638 5.08148 5.2209 5.2238 4.79583 5.547C4.47783 5.789 4.24283 6.193 3.77383 7C3.30383 7.807 3.06983 8.21 3.01683 8.605C2.94683 9.131 3.09083 9.663 3.41683 10.084C3.56483 10.276 3.77383 10.437 4.09683 10.639C4.57383 10.936 4.87983 11.442 4.87983 12C4.87983 12.558 4.57383 13.064 4.09783 13.36C3.77383 13.563 3.56483 13.724 3.41583 13.916C3.25491 14.1239 3.1368 14.3617 3.06831 14.6156C2.99983 14.8694 2.98233 15.1343 3.01683 15.395C3.06983 15.789 3.30383 16.193 3.77383 17C4.24383 17.807 4.47783 18.21 4.79583 18.453C5.21983 18.776 5.75583 18.918 6.28583 18.849C6.52783 18.817 6.77283 18.719 7.11083 18.541C7.35355 18.4092 7.62564 18.3408 7.90185 18.3422C8.17807 18.3436 8.44945 18.4147 8.69083 18.549C9.17683 18.829 9.46483 19.344 9.48583 19.902C9.50083 20.282 9.53683 20.542 9.63083 20.765C9.83483 21.255 10.2268 21.645 10.7208 21.848C11.0908 22 11.5608 22 12.4998 22C13.4388 22 13.9088 22 14.2788 21.848C14.7714 21.6458 15.1634 21.2562 15.3688 20.765C15.4628 20.542 15.4988 20.282 15.5138 19.902C15.5338 19.344 15.8228 18.828 16.3098 18.549C16.5511 18.4149 16.8223 18.3439 17.0983 18.3425C17.3743 18.3411 17.6462 18.4093 17.8888 18.541C18.2268 18.719 18.4718 18.817 18.7138 18.849C19.2438 18.919 19.7798 18.776 20.2038 18.453C20.5218 18.211 20.7568 17.807 21.2258 17C21.6958 16.193 21.9298 15.79 21.9828 15.395C22.0172 15.1343 21.9995 14.8693 21.9309 14.6155C21.8622 14.3616 21.7439 14.1239 21.5828 13.916C21.4348 13.724 21.2258 13.563 20.9028 13.361C20.4258 13.064 20.1198 12.558 20.1198 12C20.1198 11.442 20.4258 10.936 20.9018 10.64C21.2258 10.437 21.4348 10.276 21.5838 10.084C21.7447 9.87606 21.8629 9.63829 21.9313 9.38443C21.9998 9.13057 22.0173 8.86566 21.9828 8.605C21.9298 8.211 21.6958 7.807 21.2258 7C20.7558 6.193 20.5218 5.79 20.2038 5.547C19.7788 5.2238 19.2433 5.08148 18.7138 5.151C18.4718 5.183 18.2268 5.281 17.8888 5.459C17.6461 5.59083 17.374 5.65922 17.0978 5.65782C16.8216 5.65642 16.5502 5.58528 16.3088 5.451C16.0722 5.31166 15.8751 5.11429 15.7359 4.87755C15.5968 4.64081 15.5204 4.37251 15.5138 4.098C15.4988 3.718 15.4628 3.458 15.3688 3.235C15.2672 2.99174 15.1186 2.77088 14.9316 2.58506C14.7445 2.39923 14.5227 2.25208 14.2788 2.152ZM12.4998 15C14.1698 15 15.5228 13.657 15.5228 12C15.5228 10.343 14.1688 9 12.4998 9C10.8298 9 9.47683 10.343 9.47683 12C9.47683 13.657 10.8308 15 12.4998 15Z" fill="#AAAAAA"/>
</svg>
