<svg width="24" height="24" viewBox="0 0 24 24" fill="none" xmlns="http://www.w3.org/2000/svg">
<path d="M21.624 13.854C21.8104 13.9909 21.9495 14.1825 22.0217 14.4022C22.0939 14.622 22.0957 14.8587 22.0267 15.0795C21.5506 16.5991 20.742 17.9936 19.6597 19.1617C19.5033 19.3292 19.2988 19.4441 19.0744 19.4907C18.85 19.5373 18.6167 19.5133 18.4065 19.422L16.9402 18.7785C16.7801 18.7072 16.6054 18.6743 16.4302 18.6825C16.2558 18.6934 16.0864 18.7447 15.9352 18.8325C15.7841 18.9198 15.6559 19.0418 15.5611 19.1883C15.4663 19.3349 15.4077 19.5019 15.39 19.6755L15.2137 21.273C15.1884 21.5004 15.0933 21.7144 14.9416 21.8857C14.7899 22.0571 14.5889 22.1773 14.3662 22.23C12.8092 22.6012 11.1862 22.6012 9.62925 22.23C9.40792 22.1769 9.20826 22.057 9.05734 21.8867C8.90641 21.7163 8.81151 21.5036 8.7855 21.2775L8.60925 19.683C8.57898 19.4112 8.44945 19.1602 8.2455 18.978C8.08618 18.8375 7.89034 18.745 7.68064 18.7111C7.47093 18.6773 7.25593 18.7035 7.0605 18.7867L5.59425 19.431C5.38462 19.5222 5.15195 19.5464 4.92804 19.5003C4.70414 19.4543 4.4999 19.3402 4.34325 19.1737C3.25922 18.0044 2.44957 16.608 1.97325 15.0862C1.90461 14.8658 1.90645 14.6294 1.9785 14.41C2.05056 14.1906 2.18925 13.9991 2.37525 13.8622L3.669 12.906C3.81037 12.8023 3.92533 12.6669 4.00457 12.5105C4.08381 12.3541 4.12511 12.1813 4.12511 12.006C4.12511 11.8307 4.08381 11.6579 4.00457 11.5015C3.92533 11.3451 3.81037 11.2097 3.669 11.106L2.37525 10.1512C2.19059 10.0148 2.05276 9.82452 1.98077 9.60652C1.90877 9.38852 1.90615 9.15356 1.97325 8.934C2.44869 7.41315 3.25819 6.01786 4.3425 4.85025C4.4475 4.737 4.575 4.647 4.7175 4.587C4.8563 4.52821 5.00551 4.49792 5.15625 4.49792C5.30699 4.49792 5.45619 4.52821 5.595 4.587L7.05525 5.2305C7.2159 5.2995 7.39047 5.32993 7.56499 5.31934C7.73951 5.30875 7.90912 5.25744 8.06025 5.16952C8.21138 5.0816 8.33982 4.95951 8.43528 4.81304C8.53074 4.66656 8.59058 4.49976 8.61 4.326L8.787 2.7345C8.81252 2.50462 8.90922 2.28845 9.06359 2.1162C9.21796 1.94395 9.42228 1.82422 9.648 1.77375C10.4232 1.60293 11.2138 1.51196 12.0075 1.50225C12.7965 1.51125 13.5825 1.602 14.3527 1.77375C14.5787 1.82449 14.7831 1.94461 14.9373 2.11729C15.0916 2.28997 15.188 2.50656 15.213 2.73675L15.39 4.32675C15.4088 4.50025 15.4681 4.66689 15.5632 4.81322C15.6583 4.95955 15.7864 5.08144 15.9374 5.16906C16.0883 5.25668 16.2577 5.30755 16.4319 5.31757C16.6061 5.3276 16.7803 5.29648 16.9402 5.22675L18.3997 4.584C18.6102 4.49209 18.8439 4.46769 19.0688 4.51417C19.2936 4.56064 19.4985 4.6757 19.6552 4.8435C20.7396 6.00941 21.5487 7.40361 22.023 8.9235C22.0912 9.14386 22.0891 9.37999 22.0169 9.59909C21.9447 9.81818 21.8061 10.0093 21.6202 10.146L20.3302 11.1007C20.1883 11.2035 20.0727 11.3383 19.9929 11.4943C19.9131 11.6503 19.8713 11.8229 19.871 11.9981C19.8707 12.1733 19.9119 12.3461 19.9912 12.5023C20.0705 12.6586 20.1857 12.7938 20.3272 12.897L21.624 13.854ZM12 15C12.7956 15 13.5587 14.6839 14.1213 14.1213C14.6839 13.5587 15 12.7956 15 12C15 11.2044 14.6839 10.4413 14.1213 9.87868C13.5587 9.31607 12.7956 9 12 9C11.2043 9 10.4413 9.31607 9.87868 9.87868C9.31607 10.4413 9 11.2044 9 12C9 12.7956 9.31607 13.5587 9.87868 14.1213C10.4413 14.6839 11.2043 15 12 15Z" fill="black"/>
</svg>
