<svg width="38" height="38" viewBox="0 0 38 38" fill="none" xmlns="http://www.w3.org/2000/svg">
<g id="fluent-emoji:house-with-garden">
<g id="Group">
<g id="Group_2" filter="url(#filter0_i_937_2378)">
<path id="Vector" d="M14.2596 19.6627C15.0408 19.2561 15.6631 18.5991 16.0265 17.7968C16.39 16.9946 16.4736 16.0935 16.2641 15.2381C16.0545 14.3826 15.5639 13.6223 14.8708 13.0788C14.1777 12.5354 13.3222 12.2403 12.4415 12.2408C11.5572 12.2408 10.6986 12.5386 10.0042 13.0863C9.30985 13.6339 8.82019 14.3995 8.61418 15.2595C8.55705 15.4907 8.43832 15.7021 8.27063 15.8713C8.10294 16.0405 7.89254 16.161 7.66181 16.2202C7.09561 16.3607 6.5681 16.6263 6.11805 16.9975C5.668 17.3687 5.30685 17.8361 5.06114 18.3652C4.81544 18.8943 4.69142 19.4718 4.69821 20.0551C4.705 20.6384 4.84242 21.2128 5.10037 21.7361C5.19378 21.9318 5.22249 22.1521 5.18235 22.3651C5.14222 22.5782 5.03531 22.773 4.87712 22.9212C4.31684 23.4344 3.92464 24.1049 3.75187 24.8448C3.57911 25.5846 3.63384 26.3595 3.9089 27.0677C4.18396 27.776 4.66652 28.3846 5.29338 28.814C5.92023 29.2433 6.66214 29.4733 7.42193 29.4738H14.2584L14.2596 19.6627Z" fill="url(#paint0_linear_937_2378)"/>
<path id="Vector_2" d="M14.2596 19.6627C15.0408 19.2561 15.6631 18.5991 16.0265 17.7968C16.39 16.9946 16.4736 16.0935 16.2641 15.2381C16.0545 14.3826 15.5639 13.6223 14.8708 13.0788C14.1777 12.5354 13.3222 12.2403 12.4415 12.2408C11.5572 12.2408 10.6986 12.5386 10.0042 13.0863C9.30985 13.6339 8.82019 14.3995 8.61418 15.2595C8.55705 15.4907 8.43832 15.7021 8.27063 15.8713C8.10294 16.0405 7.89254 16.161 7.66181 16.2202C7.09561 16.3607 6.5681 16.6263 6.11805 16.9975C5.668 17.3687 5.30685 17.8361 5.06114 18.3652C4.81544 18.8943 4.69142 19.4718 4.69821 20.0551C4.705 20.6384 4.84242 21.2128 5.10037 21.7361C5.19378 21.9318 5.22249 22.1521 5.18235 22.3651C5.14222 22.5782 5.03531 22.773 4.87712 22.9212C4.31684 23.4344 3.92464 24.1049 3.75187 24.8448C3.57911 25.5846 3.63384 26.3595 3.9089 27.0677C4.18396 27.776 4.66652 28.3846 5.29338 28.814C5.92023 29.2433 6.66214 29.4733 7.42193 29.4738H14.2584L14.2596 19.6627Z" fill="url(#paint1_linear_937_2378)"/>
<path id="Vector_3" d="M14.2596 19.6627C15.0408 19.2561 15.6631 18.5991 16.0265 17.7968C16.39 16.9946 16.4736 16.0935 16.2641 15.2381C16.0545 14.3826 15.5639 13.6223 14.8708 13.0788C14.1777 12.5354 13.3222 12.2403 12.4415 12.2408C11.5572 12.2408 10.6986 12.5386 10.0042 13.0863C9.30985 13.6339 8.82019 14.3995 8.61418 15.2595C8.55705 15.4907 8.43832 15.7021 8.27063 15.8713C8.10294 16.0405 7.89254 16.161 7.66181 16.2202C7.09561 16.3607 6.5681 16.6263 6.11805 16.9975C5.668 17.3687 5.30685 17.8361 5.06114 18.3652C4.81544 18.8943 4.69142 19.4718 4.69821 20.0551C4.705 20.6384 4.84242 21.2128 5.10037 21.7361C5.19378 21.9318 5.22249 22.1521 5.18235 22.3651C5.14222 22.5782 5.03531 22.773 4.87712 22.9212C4.31684 23.4344 3.92464 24.1049 3.75187 24.8448C3.57911 25.5846 3.63384 26.3595 3.9089 27.0677C4.18396 27.776 4.66652 28.3846 5.29338 28.814C5.92023 29.2433 6.66214 29.4733 7.42193 29.4738H14.2584L14.2596 19.6627Z" fill="url(#paint2_radial_937_2378)"/>
</g>
<g id="Group_3" filter="url(#filter1_f_937_2378)">
<path id="Vector_4" d="M8.4114 28.7247C9.65158 28.0874 10.023 26.3371 9.24101 24.8152C8.45901 23.2932 6.81971 22.576 5.57953 23.2133C4.33935 23.8505 3.96792 25.6008 4.74992 27.1228C5.53192 28.6447 7.17122 29.3619 8.4114 28.7247Z" fill="url(#paint3_radial_937_2378)"/>
</g>
<g id="Group_4" filter="url(#filter2_f_937_2378)">
<path id="Vector_5" d="M5.71594 21.4013C6.59668 22.4703 8.38329 22.4533 9.70646 21.3632C11.0296 20.2732 11.3883 18.5228 10.5076 17.4538C9.62682 16.3847 7.8402 16.4017 6.51704 17.4918C5.19387 18.5819 4.83521 20.3322 5.71594 21.4013Z" fill="url(#paint4_radial_937_2378)"/>
</g>
<path id="Vector_6" d="M11.9226 9.06309C11.9226 8.95286 11.9664 8.84714 12.0443 8.76919C12.1223 8.69125 12.228 8.64746 12.3382 8.64746H15.0504C15.1607 8.64746 15.2664 8.69125 15.3443 8.76919C15.4223 8.84714 15.4661 8.95286 15.4661 9.06309V18.898H11.9214L11.9226 9.06309Z" fill="url(#paint5_radial_937_2378)"/>
<path id="Vector_7" d="M11.9226 9.06309C11.9226 8.95286 11.9664 8.84714 12.0443 8.76919C12.1223 8.69125 12.228 8.64746 12.3382 8.64746H15.0504C15.1607 8.64746 15.2664 8.69125 15.3443 8.76919C15.4223 8.84714 15.4661 8.95286 15.4661 9.06309V18.898H11.9214L11.9226 9.06309Z" fill="url(#paint6_linear_937_2378)"/>
<path id="Vector_8" d="M11.9226 9.06309C11.9226 8.95286 11.9664 8.84714 12.0443 8.76919C12.1223 8.69125 12.228 8.64746 12.3382 8.64746H15.0504C15.1607 8.64746 15.2664 8.69125 15.3443 8.76919C15.4223 8.84714 15.4661 8.95286 15.4661 9.06309V18.898H11.9214L11.9226 9.06309Z" fill="url(#paint7_linear_937_2378)"/>
<path id="Vector_9" d="M11.9226 9.06309C11.9226 8.95286 11.9664 8.84714 12.0443 8.76919C12.1223 8.69125 12.228 8.64746 12.3382 8.64746H15.0504C15.1607 8.64746 15.2664 8.69125 15.3443 8.76919C15.4223 8.84714 15.4661 8.95286 15.4661 9.06309V18.898H11.9214L11.9226 9.06309Z" fill="url(#paint8_linear_937_2378)"/>
<path id="Vector_10" d="M11.9226 9.06309C11.9226 8.95286 11.9664 8.84714 12.0443 8.76919C12.1223 8.69125 12.228 8.64746 12.3382 8.64746H15.0504C15.1607 8.64746 15.2664 8.69125 15.3443 8.76919C15.4223 8.84714 15.4661 8.95286 15.4661 9.06309V18.898H11.9214L11.9226 9.06309Z" fill="url(#paint9_radial_937_2378)"/>
<path id="Vector_11" d="M31.9794 33.2893H10.4893V19.8824L21.2338 9.1593L31.9771 19.8824L31.9794 33.2893Z" fill="url(#paint10_linear_937_2378)"/>
<path id="Vector_12" d="M31.9794 33.2893H10.4893V19.8824L21.2338 9.1593L31.9771 19.8824L31.9794 33.2893Z" fill="url(#paint11_linear_937_2378)"/>
<path id="Vector_13" d="M31.9794 33.2893H10.4893V19.8824L21.2338 9.1593L31.9771 19.8824L31.9794 33.2893Z" fill="url(#paint12_radial_937_2378)"/>
<path id="Vector_14" d="M31.9794 33.2893H10.4893V19.8824L21.2338 9.1593L31.9771 19.8824L31.9794 33.2893Z" fill="url(#paint13_linear_937_2378)"/>
<path id="Vector_15" d="M31.9794 33.2893H10.4893V19.8824L21.2338 9.1593L31.9771 19.8824L31.9794 33.2893Z" fill="url(#paint14_radial_937_2378)"/>
<path id="Vector_16" d="M31.9794 33.2893H10.4893V19.8824L21.2338 9.1593L31.9771 19.8824L31.9794 33.2893Z" fill="url(#paint15_linear_937_2378)"/>
<path id="Vector_17" d="M31.9794 33.2893H10.4893V19.8824L21.2338 9.1593L31.9771 19.8824L31.9794 33.2893Z" fill="url(#paint16_linear_937_2378)"/>
<g id="Group_5" filter="url(#filter3_f_937_2378)">
<path id="Vector_18" d="M20.1555 33.2892H13.2312V23.4365C13.2312 22.686 13.762 22.0697 14.408 22.0697H18.9787C19.6247 22.0697 20.1543 22.686 20.1543 23.4365L20.1555 33.2892Z" fill="url(#paint17_linear_937_2378)"/>
</g>
<g id="Group_6" filter="url(#filter4_f_937_2378)">
<path id="Vector_19" d="M12.2195 32.5779H21.8382V33.706H12.2195V32.5779Z" fill="#68552B"/>
</g>
<g id="Group_7" filter="url(#filter5_i_937_2378)">
<path id="Vector_20" d="M28.7163 27.5311H24.5386C24.4288 27.5312 24.32 27.5097 24.2185 27.4677C24.117 27.4258 24.0248 27.3642 23.9471 27.2865C23.8695 27.2089 23.8079 27.1167 23.766 27.0152C23.724 26.9137 23.7025 26.8049 23.7026 26.6951V22.5174C23.7026 22.0484 24.0838 21.6826 24.5386 21.6826H28.7151C29.1841 21.6826 29.5511 22.0626 29.5511 22.5174V26.6951C29.5523 26.8052 29.5316 26.9145 29.49 27.0165C29.4485 27.1185 29.3869 27.2111 29.3091 27.289C29.2312 27.3669 29.1385 27.4284 29.0365 27.47C28.9345 27.5116 28.8264 27.5323 28.7163 27.5311Z" fill="url(#paint18_linear_937_2378)"/>
<path id="Vector_21" d="M28.7163 27.5311H24.5386C24.4288 27.5312 24.32 27.5097 24.2185 27.4677C24.117 27.4258 24.0248 27.3642 23.9471 27.2865C23.8695 27.2089 23.8079 27.1167 23.766 27.0152C23.724 26.9137 23.7025 26.8049 23.7026 26.6951V22.5174C23.7026 22.0484 24.0838 21.6826 24.5386 21.6826H28.7151C29.1841 21.6826 29.5511 22.0626 29.5511 22.5174V26.6951C29.5523 26.8052 29.5316 26.9145 29.49 27.0165C29.4485 27.1185 29.3869 27.2111 29.3091 27.289C29.2312 27.3669 29.1385 27.4284 29.0365 27.47C28.9345 27.5116 28.8264 27.5323 28.7163 27.5311Z" fill="url(#paint19_linear_937_2378)"/>
</g>
<path id="Vector_22" d="M28.7163 27.5311H24.5386C24.4288 27.5312 24.32 27.5097 24.2185 27.4677C24.117 27.4258 24.0248 27.3642 23.9471 27.2865C23.8695 27.2089 23.8079 27.1167 23.766 27.0152C23.724 26.9137 23.7025 26.8049 23.7026 26.6951V22.5174C23.7026 22.0484 24.0838 21.6826 24.5386 21.6826H28.7151C29.1841 21.6826 29.5511 22.0626 29.5511 22.5174V26.6951C29.5523 26.8052 29.5316 26.9145 29.49 27.0165C29.4485 27.1185 29.3869 27.2111 29.3091 27.289C29.2312 27.3669 29.1385 27.4284 29.0365 27.47C28.9345 27.5116 28.8264 27.5323 28.7163 27.5311Z" fill="url(#paint20_linear_937_2378)"/>
<path id="Vector_23" d="M28.7163 27.5311H24.5386C24.4288 27.5312 24.32 27.5097 24.2185 27.4677C24.117 27.4258 24.0248 27.3642 23.9471 27.2865C23.8695 27.2089 23.8079 27.1167 23.766 27.0152C23.724 26.9137 23.7025 26.8049 23.7026 26.6951V22.5174C23.7026 22.0484 24.0838 21.6826 24.5386 21.6826H28.7151C29.1841 21.6826 29.5511 22.0626 29.5511 22.5174V26.6951C29.5523 26.8052 29.5316 26.9145 29.49 27.0165C29.4485 27.1185 29.3869 27.2111 29.3091 27.289C29.2312 27.3669 29.1385 27.4284 29.0365 27.47C28.9345 27.5116 28.8264 27.5323 28.7163 27.5311Z" fill="url(#paint21_linear_937_2378)"/>
<g id="Group_8" filter="url(#filter6_ii_937_2378)">
<path id="Vector_24" d="M21.3429 32.1599H13.6206V22.8202C13.6206 22.1077 14.212 21.5247 14.9328 21.5247H20.0295C20.7504 21.5247 21.3429 22.1089 21.3429 22.819V32.1599Z" fill="url(#paint22_linear_937_2378)"/>
</g>
<g id="Group_9" filter="url(#filter7_f_937_2378)">
<path id="Vector_25" d="M19.4086 27.5845C19.5562 27.5845 19.6977 27.5259 19.802 27.4215C19.9064 27.3172 19.965 27.1757 19.965 27.0281C19.965 26.8806 19.9064 26.7391 19.802 26.6348C19.6977 26.5304 19.5562 26.4718 19.4086 26.4718C19.2611 26.4718 19.1196 26.5304 19.0152 26.6348C18.9109 26.7391 18.8523 26.8806 18.8523 27.0281C18.8523 27.1757 18.9109 27.3172 19.0152 27.4215C19.1196 27.5259 19.2611 27.5845 19.4086 27.5845Z" fill="#62393D"/>
</g>
<g id="Group_10" filter="url(#filter8_ii_937_2378)">
<path id="Vector_26" d="M19.5534 27.5002C19.7024 27.5002 19.8452 27.441 19.9506 27.3357C20.0559 27.2304 20.1151 27.0875 20.1151 26.9385C20.1151 26.7895 20.0559 26.6467 19.9506 26.5413C19.8452 26.436 19.7024 26.3768 19.5534 26.3768C19.4044 26.3768 19.2616 26.436 19.1562 26.5413C19.0509 26.6467 18.9917 26.7895 18.9917 26.9385C18.9917 27.0875 19.0509 27.2304 19.1562 27.3357C19.2616 27.441 19.4044 27.5002 19.5534 27.5002Z" fill="#895D56"/>
</g>
<path id="Vector_27" d="M34.7879 20.0118L22.0816 7.49318C21.8546 7.26693 21.5471 7.13989 21.2266 7.13989C20.9061 7.13989 20.5986 7.26693 20.3716 7.49318C20.3716 7.49318 20.3597 7.49318 20.3597 7.50624L7.62379 20.0379C7.51158 20.1474 7.42242 20.2783 7.36153 20.4228C7.30065 20.5673 7.26929 20.7225 7.26929 20.8793C7.26929 21.0361 7.30065 21.1913 7.36153 21.3358C7.42242 21.4803 7.51158 21.6111 7.62379 21.7206C7.85232 21.944 8.15921 22.0691 8.47879 22.0691C8.79838 22.0691 9.10526 21.944 9.33379 21.7206L21.0105 10.2161C21.066 10.1614 21.1409 10.1307 21.2189 10.1307C21.2969 10.1307 21.3717 10.1614 21.4273 10.2161L33.0648 21.6802C33.2918 21.9065 33.5993 22.0335 33.9198 22.0335C34.2403 22.0335 34.5478 21.9065 34.7748 21.6802C35.245 21.2088 35.2593 20.469 34.7879 20.0118Z" fill="url(#paint23_linear_937_2378)"/>
<path id="Vector_28" d="M12.6267 33.0505C12.6267 32.8143 12.7205 32.5878 12.8876 32.4208C13.0546 32.2537 13.2811 32.1599 13.5173 32.1599H21.3548C21.591 32.1599 21.8176 32.2537 21.9846 32.4208C22.1516 32.5878 22.2455 32.8143 22.2455 33.0505V33.288H12.6267V33.0505Z" fill="url(#paint24_linear_937_2378)"/>
<path id="Vector_29" d="M12.6267 33.0505C12.6267 32.8143 12.7205 32.5878 12.8876 32.4208C13.0546 32.2537 13.2811 32.1599 13.5173 32.1599H21.3548C21.591 32.1599 21.8176 32.2537 21.9846 32.4208C22.1516 32.5878 22.2455 32.8143 22.2455 33.0505V33.288H12.6267V33.0505Z" fill="url(#paint25_linear_937_2378)"/>
<path id="Vector_30" d="M12.6267 33.0505C12.6267 32.8143 12.7205 32.5878 12.8876 32.4208C13.0546 32.2537 13.2811 32.1599 13.5173 32.1599H21.3548C21.591 32.1599 21.8176 32.2537 21.9846 32.4208C22.1516 32.5878 22.2455 32.8143 22.2455 33.0505V33.288H12.6267V33.0505Z" fill="url(#paint26_linear_937_2378)"/>
<g id="Group_11" filter="url(#filter9_i_937_2378)">
<path id="Vector_31" d="M2.46533 35.682C2.46533 34.3603 3.53646 33.2892 4.85814 33.2892H33.1432C34.4649 33.2892 35.536 34.3603 35.536 35.682H2.46533Z" fill="#3FD47B"/>
</g>
<path id="Vector_32" d="M2.46533 35.682C2.46533 34.3603 3.53646 33.2892 4.85814 33.2892H33.1432C34.4649 33.2892 35.536 34.3603 35.536 35.682H2.46533Z" fill="url(#paint27_linear_937_2378)"/>
<path id="Vector_33" d="M2.46533 35.682C2.46533 34.3603 3.53646 33.2892 4.85814 33.2892H33.1432C34.4649 33.2892 35.536 34.3603 35.536 35.682H2.46533Z" fill="url(#paint28_radial_937_2378)"/>
<path id="Vector_34" d="M2.46533 35.682C2.46533 34.3603 3.53646 33.2892 4.85814 33.2892H33.1432C34.4649 33.2892 35.536 34.3603 35.536 35.682H2.46533Z" fill="url(#paint29_radial_937_2378)"/>
<g id="Group_12" filter="url(#filter10_i_937_2378)">
<path id="Vector_35" d="M30.7528 35.682C31.458 35.4289 32.0683 34.9649 32.5008 34.3531C32.9333 33.7413 33.1671 33.0113 33.1706 32.262C33.1706 30.2468 31.5116 28.614 29.4668 28.614C28.8747 28.6123 28.2908 28.752 27.7637 29.0216C27.2366 29.2911 26.7815 29.6827 26.4363 30.1637C26.0266 30.7373 25.434 31.204 24.8426 31.5863C24.4936 31.8094 24.2063 32.1166 24.0071 32.4797C23.8079 32.8429 23.7032 33.2503 23.7026 33.6645C23.7026 34.4957 24.1159 35.232 24.7512 35.6832L30.7528 35.682Z" fill="#2EAD69"/>
<path id="Vector_36" d="M30.7528 35.682C31.458 35.4289 32.0683 34.9649 32.5008 34.3531C32.9333 33.7413 33.1671 33.0113 33.1706 32.262C33.1706 30.2468 31.5116 28.614 29.4668 28.614C28.8747 28.6123 28.2908 28.752 27.7637 29.0216C27.2366 29.2911 26.7815 29.6827 26.4363 30.1637C26.0266 30.7373 25.434 31.204 24.8426 31.5863C24.4936 31.8094 24.2063 32.1166 24.0071 32.4797C23.8079 32.8429 23.7032 33.2503 23.7026 33.6645C23.7026 34.4957 24.1159 35.232 24.7512 35.6832L30.7528 35.682Z" fill="url(#paint30_linear_937_2378)"/>
<path id="Vector_37" d="M30.7528 35.682C31.458 35.4289 32.0683 34.9649 32.5008 34.3531C32.9333 33.7413 33.1671 33.0113 33.1706 32.262C33.1706 30.2468 31.5116 28.614 29.4668 28.614C28.8747 28.6123 28.2908 28.752 27.7637 29.0216C27.2366 29.2911 26.7815 29.6827 26.4363 30.1637C26.0266 30.7373 25.434 31.204 24.8426 31.5863C24.4936 31.8094 24.2063 32.1166 24.0071 32.4797C23.8079 32.8429 23.7032 33.2503 23.7026 33.6645C23.7026 34.4957 24.1159 35.232 24.7512 35.6832L30.7528 35.682Z" fill="url(#paint31_radial_937_2378)"/>
<path id="Vector_38" d="M30.7528 35.682C31.458 35.4289 32.0683 34.9649 32.5008 34.3531C32.9333 33.7413 33.1671 33.0113 33.1706 32.262C33.1706 30.2468 31.5116 28.614 29.4668 28.614C28.8747 28.6123 28.2908 28.752 27.7637 29.0216C27.2366 29.2911 26.7815 29.6827 26.4363 30.1637C26.0266 30.7373 25.434 31.204 24.8426 31.5863C24.4936 31.8094 24.2063 32.1166 24.0071 32.4797C23.8079 32.8429 23.7032 33.2503 23.7026 33.6645C23.7026 34.4957 24.1159 35.232 24.7512 35.6832L30.7528 35.682Z" fill="url(#paint32_radial_937_2378)"/>
</g>
<path id="Vector_39" d="M30.7528 35.682C31.458 35.4289 32.0683 34.9649 32.5008 34.3531C32.9333 33.7413 33.1671 33.0113 33.1706 32.262C33.1706 30.2468 31.5116 28.614 29.4668 28.614C28.8747 28.6123 28.2908 28.752 27.7637 29.0216C27.2366 29.2911 26.7815 29.6827 26.4363 30.1637C26.0266 30.7373 25.434 31.204 24.8426 31.5863C24.4936 31.8094 24.2063 32.1166 24.0071 32.4797C23.8079 32.8429 23.7032 33.2503 23.7026 33.6645C23.7026 34.4957 24.1159 35.232 24.7512 35.6832L30.7528 35.682Z" fill="url(#paint33_radial_937_2378)"/>
<g id="Group_13" filter="url(#filter11_f_937_2378)">
<path id="Vector_40" d="M21.4248 8.0929L34.1667 20.64" stroke="url(#paint34_linear_937_2378)" stroke-width="0.225" stroke-linecap="round"/>
</g>
<g id="Group_14" filter="url(#filter12_f_937_2378)">
<path id="Vector_41" d="M21.4249 8.0929L8.68188 20.64" stroke="url(#paint35_linear_937_2378)" stroke-opacity="0.5" stroke-width="0.225" stroke-linecap="round"/>
</g>
<g id="Group_15" filter="url(#filter13_f_937_2378)">
<path id="Vector_42" d="M27.5776 34.7511C27.0001 34.0076 26.5968 33.1441 26.3973 32.2241C26.3899 32.1866 26.3745 32.1512 26.3523 32.1203C26.33 32.0893 26.3014 32.0635 26.2683 32.0446C26.2351 32.0256 26.1984 32.0141 26.1604 32.0106C26.1224 32.0072 26.0841 32.0119 26.0481 32.0246L25.8368 32.1041C25.5028 32.2297 25.2235 32.4686 25.0477 32.7791C24.8719 33.0896 24.8107 33.452 24.8749 33.803C24.9392 34.154 25.1246 34.4714 25.3989 34.6995C25.6733 34.9277 26.0191 35.0523 26.3759 35.0515H27.4399C27.5907 35.0515 27.6714 34.8686 27.5776 34.7511Z" fill="#31B570"/>
</g>
</g>
</g>
<defs>
<filter id="filter0_i_937_2378" x="3.65308" y="12.2408" width="12.8739" height="17.383" filterUnits="userSpaceOnUse" color-interpolation-filters="sRGB">
<feFlood flood-opacity="0" result="BackgroundImageFix"/>
<feBlend mode="normal" in="SourceGraphic" in2="BackgroundImageFix" result="shape"/>
<feColorMatrix in="SourceAlpha" type="matrix" values="0 0 0 0 0 0 0 0 0 0 0 0 0 0 0 0 0 0 127 0" result="hardAlpha"/>
<feOffset dx="0.15" dy="0.15"/>
<feGaussianBlur stdDeviation="0.375"/>
<feComposite in2="hardAlpha" operator="arithmetic" k2="-1" k3="1"/>
<feColorMatrix type="matrix" values="0 0 0 0 0.301961 0 0 0 0 0.592157 0 0 0 0 0.392157 0 0 0 1 0"/>
<feBlend mode="normal" in2="shape" result="effect1_innerShadow_937_2378"/>
</filter>
<filter id="filter1_f_937_2378" x="3.59033" y="22.2307" width="6.81006" height="7.47656" filterUnits="userSpaceOnUse" color-interpolation-filters="sRGB">
<feFlood flood-opacity="0" result="BackgroundImageFix"/>
<feBlend mode="normal" in="SourceGraphic" in2="BackgroundImageFix" result="shape"/>
<feGaussianBlur stdDeviation="0.375" result="effect1_foregroundBlur_937_2378"/>
</filter>
<filter id="filter2_f_937_2378" x="4.4834" y="15.913" width="7.25659" height="7.02905" filterUnits="userSpaceOnUse" color-interpolation-filters="sRGB">
<feFlood flood-opacity="0" result="BackgroundImageFix"/>
<feBlend mode="normal" in="SourceGraphic" in2="BackgroundImageFix" result="shape"/>
<feGaussianBlur stdDeviation="0.375" result="effect1_foregroundBlur_937_2378"/>
</filter>
<filter id="filter3_f_937_2378" x="12.8562" y="21.6947" width="7.67407" height="11.9695" filterUnits="userSpaceOnUse" color-interpolation-filters="sRGB">
<feFlood flood-opacity="0" result="BackgroundImageFix"/>
<feBlend mode="normal" in="SourceGraphic" in2="BackgroundImageFix" result="shape"/>
<feGaussianBlur stdDeviation="0.1875" result="effect1_foregroundBlur_937_2378"/>
</filter>
<filter id="filter4_f_937_2378" x="11.8445" y="32.2029" width="10.3689" height="1.87817" filterUnits="userSpaceOnUse" color-interpolation-filters="sRGB">
<feFlood flood-opacity="0" result="BackgroundImageFix"/>
<feBlend mode="normal" in="SourceGraphic" in2="BackgroundImageFix" result="shape"/>
<feGaussianBlur stdDeviation="0.1875" result="effect1_foregroundBlur_937_2378"/>
</filter>
<filter id="filter5_i_937_2378" x="23.3276" y="21.6826" width="6.22363" height="6.22351" filterUnits="userSpaceOnUse" color-interpolation-filters="sRGB">
<feFlood flood-opacity="0" result="BackgroundImageFix"/>
<feBlend mode="normal" in="SourceGraphic" in2="BackgroundImageFix" result="shape"/>
<feColorMatrix in="SourceAlpha" type="matrix" values="0 0 0 0 0 0 0 0 0 0 0 0 0 0 0 0 0 0 127 0" result="hardAlpha"/>
<feOffset dx="-0.375" dy="0.375"/>
<feGaussianBlur stdDeviation="0.1875"/>
<feComposite in2="hardAlpha" operator="arithmetic" k2="-1" k3="1"/>
<feColorMatrix type="matrix" values="0 0 0 0 0.0470588 0 0 0 0 0.47451 0 0 0 0 0.792157 0 0 0 1 0"/>
<feBlend mode="normal" in2="shape" result="effect1_innerShadow_937_2378"/>
</filter>
<filter id="filter6_ii_937_2378" x="13.4706" y="21.5247" width="8.05967" height="10.6353" filterUnits="userSpaceOnUse" color-interpolation-filters="sRGB">
<feFlood flood-opacity="0" result="BackgroundImageFix"/>
<feBlend mode="normal" in="SourceGraphic" in2="BackgroundImageFix" result="shape"/>
<feColorMatrix in="SourceAlpha" type="matrix" values="0 0 0 0 0 0 0 0 0 0 0 0 0 0 0 0 0 0 127 0" result="hardAlpha"/>
<feOffset dx="0.1875"/>
<feGaussianBlur stdDeviation="0.1875"/>
<feComposite in2="hardAlpha" operator="arithmetic" k2="-1" k3="1"/>
<feColorMatrix type="matrix" values="0 0 0 0 0.254902 0 0 0 0 0.188235 0 0 0 0 0.141176 0 0 0 1 0"/>
<feBlend mode="normal" in2="shape" result="effect1_innerShadow_937_2378"/>
<feColorMatrix in="SourceAlpha" type="matrix" values="0 0 0 0 0 0 0 0 0 0 0 0 0 0 0 0 0 0 127 0" result="hardAlpha"/>
<feOffset dx="-0.15"/>
<feGaussianBlur stdDeviation="0.1125"/>
<feComposite in2="hardAlpha" operator="arithmetic" k2="-1" k3="1"/>
<feColorMatrix type="matrix" values="0 0 0 0 0.694118 0 0 0 0 0.470588 0 0 0 0 0.407843 0 0 0 1 0"/>
<feBlend mode="normal" in2="effect1_innerShadow_937_2378" result="effect2_innerShadow_937_2378"/>
</filter>
<filter id="filter7_f_937_2378" x="18.7398" y="26.3593" width="1.33779" height="1.33767" filterUnits="userSpaceOnUse" color-interpolation-filters="sRGB">
<feFlood flood-opacity="0" result="BackgroundImageFix"/>
<feBlend mode="normal" in="SourceGraphic" in2="BackgroundImageFix" result="shape"/>
<feGaussianBlur stdDeviation="0.05625" result="effect1_foregroundBlur_937_2378"/>
</filter>
<filter id="filter8_ii_937_2378" x="18.9167" y="26.3768" width="1.27354" height="1.12341" filterUnits="userSpaceOnUse" color-interpolation-filters="sRGB">
<feFlood flood-opacity="0" result="BackgroundImageFix"/>
<feBlend mode="normal" in="SourceGraphic" in2="BackgroundImageFix" result="shape"/>
<feColorMatrix in="SourceAlpha" type="matrix" values="0 0 0 0 0 0 0 0 0 0 0 0 0 0 0 0 0 0 127 0" result="hardAlpha"/>
<feOffset dx="-0.075"/>
<feGaussianBlur stdDeviation="0.075"/>
<feComposite in2="hardAlpha" operator="arithmetic" k2="-1" k3="1"/>
<feColorMatrix type="matrix" values="0 0 0 0 0.694118 0 0 0 0 0.482353 0 0 0 0 0.419608 0 0 0 1 0"/>
<feBlend mode="normal" in2="shape" result="effect1_innerShadow_937_2378"/>
<feColorMatrix in="SourceAlpha" type="matrix" values="0 0 0 0 0 0 0 0 0 0 0 0 0 0 0 0 0 0 127 0" result="hardAlpha"/>
<feOffset dx="0.075"/>
<feGaussianBlur stdDeviation="0.075"/>
<feComposite in2="hardAlpha" operator="arithmetic" k2="-1" k3="1"/>
<feColorMatrix type="matrix" values="0 0 0 0 0.290196 0 0 0 0 0.184314 0 0 0 0 0.164706 0 0 0 1 0"/>
<feBlend mode="normal" in2="effect1_innerShadow_937_2378" result="effect2_innerShadow_937_2378"/>
</filter>
<filter id="filter9_i_937_2378" x="2.46533" y="33.2892" width="33.4458" height="2.39282" filterUnits="userSpaceOnUse" color-interpolation-filters="sRGB">
<feFlood flood-opacity="0" result="BackgroundImageFix"/>
<feBlend mode="normal" in="SourceGraphic" in2="BackgroundImageFix" result="shape"/>
<feColorMatrix in="SourceAlpha" type="matrix" values="0 0 0 0 0 0 0 0 0 0 0 0 0 0 0 0 0 0 127 0" result="hardAlpha"/>
<feOffset dx="0.375"/>
<feGaussianBlur stdDeviation="0.375"/>
<feComposite in2="hardAlpha" operator="arithmetic" k2="-1" k3="1"/>
<feColorMatrix type="matrix" values="0 0 0 0 0.25098 0 0 0 0 0.545098 0 0 0 0 0.352941 0 0 0 1 0"/>
<feBlend mode="normal" in2="shape" result="effect1_innerShadow_937_2378"/>
</filter>
<filter id="filter10_i_937_2378" x="23.7026" y="28.614" width="9.61777" height="7.21921" filterUnits="userSpaceOnUse" color-interpolation-filters="sRGB">
<feFlood flood-opacity="0" result="BackgroundImageFix"/>
<feBlend mode="normal" in="SourceGraphic" in2="BackgroundImageFix" result="shape"/>
<feColorMatrix in="SourceAlpha" type="matrix" values="0 0 0 0 0 0 0 0 0 0 0 0 0 0 0 0 0 0 127 0" result="hardAlpha"/>
<feOffset dx="0.15" dy="0.15"/>
<feGaussianBlur stdDeviation="0.225"/>
<feComposite in2="hardAlpha" operator="arithmetic" k2="-1" k3="1"/>
<feColorMatrix type="matrix" values="0 0 0 0 0.309804 0 0 0 0 0.564706 0 0 0 0 0.329412 0 0 0 1 0"/>
<feBlend mode="normal" in2="shape" result="effect1_innerShadow_937_2378"/>
</filter>
<filter id="filter11_f_937_2378" x="20.8625" y="7.53035" width="13.8668" height="13.6722" filterUnits="userSpaceOnUse" color-interpolation-filters="sRGB">
<feFlood flood-opacity="0" result="BackgroundImageFix"/>
<feBlend mode="normal" in="SourceGraphic" in2="BackgroundImageFix" result="shape"/>
<feGaussianBlur stdDeviation="0.225" result="effect1_foregroundBlur_937_2378"/>
</filter>
<filter id="filter12_f_937_2378" x="8.11934" y="7.53035" width="13.8683" height="13.6722" filterUnits="userSpaceOnUse" color-interpolation-filters="sRGB">
<feFlood flood-opacity="0" result="BackgroundImageFix"/>
<feBlend mode="normal" in="SourceGraphic" in2="BackgroundImageFix" result="shape"/>
<feGaussianBlur stdDeviation="0.225" result="effect1_foregroundBlur_937_2378"/>
</filter>
<filter id="filter13_f_937_2378" x="24.2876" y="31.447" width="3.89258" height="4.16699" filterUnits="userSpaceOnUse" color-interpolation-filters="sRGB">
<feFlood flood-opacity="0" result="BackgroundImageFix"/>
<feBlend mode="normal" in="SourceGraphic" in2="BackgroundImageFix" result="shape"/>
<feGaussianBlur stdDeviation="0.28125" result="effect1_foregroundBlur_937_2378"/>
</filter>
<linearGradient id="paint0_linear_937_2378" x1="10.0131" y1="12.2397" x2="10.0131" y2="29.475" gradientUnits="userSpaceOnUse">
<stop stop-color="#29884D"/>
<stop offset="1" stop-color="#227341"/>
</linearGradient>
<linearGradient id="paint1_linear_937_2378" x1="7.41243" y1="29.6603" x2="7.41243" y2="28.7507" gradientUnits="userSpaceOnUse">
<stop stop-color="#4E7978"/>
<stop offset="1" stop-color="#4E7978" stop-opacity="0"/>
</linearGradient>
<radialGradient id="paint2_radial_937_2378" cx="0" cy="0" r="1" gradientUnits="userSpaceOnUse" gradientTransform="translate(12.1173 11.3645) rotate(90) scale(3.34497 3.11765)">
<stop offset="0.097" stop-color="#4DB56F"/>
<stop offset="1" stop-color="#4DB56F" stop-opacity="0"/>
</radialGradient>
<radialGradient id="paint3_radial_937_2378" cx="0" cy="0" r="1" gradientUnits="userSpaceOnUse" gradientTransform="translate(6.29212 26.8711) rotate(-37.7036) scale(4.81036 8.04913)">
<stop stop-color="#279D5A"/>
<stop offset="1" stop-color="#279D5A" stop-opacity="0"/>
</radialGradient>
<radialGradient id="paint4_radial_937_2378" cx="0" cy="0" r="1" gradientUnits="userSpaceOnUse" gradientTransform="translate(6.89514 18.0927) rotate(40.6049) scale(3.63038 6.12483)">
<stop stop-color="#2EA75B"/>
<stop offset="1" stop-color="#2EA75B" stop-opacity="0"/>
</radialGradient>
<radialGradient id="paint5_radial_937_2378" cx="0" cy="0" r="1" gradientUnits="userSpaceOnUse" gradientTransform="translate(14.9863 9.22102) rotate(90) scale(4.55189 2.25993)">
<stop stop-color="#FFD1A3"/>
<stop offset="1" stop-color="#DFA276"/>
</radialGradient>
<linearGradient id="paint6_linear_937_2378" x1="11.6768" y1="12.6066" x2="13.1599" y2="12.6066" gradientUnits="userSpaceOnUse">
<stop stop-color="#8E694B"/>
<stop offset="1" stop-color="#8E694B" stop-opacity="0"/>
</linearGradient>
<linearGradient id="paint7_linear_937_2378" x1="14.5802" y1="13.7727" x2="13.9318" y2="13.008" gradientUnits="userSpaceOnUse">
<stop stop-color="#C77958"/>
<stop offset="1" stop-color="#C77958" stop-opacity="0"/>
</linearGradient>
<linearGradient id="paint8_linear_937_2378" x1="13.6931" y1="8.59165" x2="13.6931" y2="8.7579" gradientUnits="userSpaceOnUse">
<stop stop-color="#D5AD80"/>
<stop offset="1" stop-color="#D5AD80" stop-opacity="0"/>
</linearGradient>
<radialGradient id="paint9_radial_937_2378" cx="0" cy="0" r="1" gradientUnits="userSpaceOnUse" gradientTransform="translate(15.8817 8.83034) rotate(180) scale(2.45532 0.527784)">
<stop stop-color="#FFE9B1"/>
<stop offset="1" stop-color="#FFE9B1" stop-opacity="0"/>
</radialGradient>
<linearGradient id="paint10_linear_937_2378" x1="11.2718" y1="24.9293" x2="31.3857" y2="24.9293" gradientUnits="userSpaceOnUse">
<stop stop-color="#D7905F"/>
<stop offset="1" stop-color="#E8BC97"/>
</linearGradient>
<linearGradient id="paint11_linear_937_2378" x1="11.8383" y1="33.8498" x2="19.7197" y2="22.4902" gradientUnits="userSpaceOnUse">
<stop stop-color="#BA8951"/>
<stop offset="1" stop-color="#BA8951" stop-opacity="0"/>
</linearGradient>
<radialGradient id="paint12_radial_937_2378" cx="0" cy="0" r="1" gradientUnits="userSpaceOnUse" gradientTransform="translate(25.3563 32.51) rotate(-117.235) scale(3.77239 4.56311)">
<stop stop-color="#BEAB75"/>
<stop offset="1" stop-color="#BEAB75" stop-opacity="0"/>
</radialGradient>
<linearGradient id="paint13_linear_937_2378" x1="31.9783" y1="28.2199" x2="31.2883" y2="28.2199" gradientUnits="userSpaceOnUse">
<stop stop-color="#FFE6B1"/>
<stop offset="1" stop-color="#FFE6B1" stop-opacity="0"/>
</linearGradient>
<radialGradient id="paint14_radial_937_2378" cx="0" cy="0" r="1" gradientUnits="userSpaceOnUse" gradientTransform="translate(32.2324 19.0832) rotate(90) scale(4.70457 0.995196)">
<stop offset="0.35" stop-color="#9E413E"/>
<stop offset="1" stop-color="#9E413E" stop-opacity="0"/>
</radialGradient>
<linearGradient id="paint15_linear_937_2378" x1="24.8509" y1="13.3108" x2="24.3878" y2="13.7739" gradientUnits="userSpaceOnUse">
<stop stop-color="#B55852"/>
<stop offset="1" stop-color="#B55852" stop-opacity="0"/>
</linearGradient>
<linearGradient id="paint16_linear_937_2378" x1="10.3586" y1="30.5212" x2="11.0925" y2="30.5212" gradientUnits="userSpaceOnUse">
<stop stop-color="#845F3D"/>
<stop offset="1" stop-color="#845F3D" stop-opacity="0"/>
</linearGradient>
<linearGradient id="paint17_linear_937_2378" x1="16.6928" y1="22.0697" x2="16.6928" y2="33.288" gradientUnits="userSpaceOnUse">
<stop stop-color="#805139"/>
<stop offset="1" stop-color="#6D4D2F"/>
</linearGradient>
<linearGradient id="paint18_linear_937_2378" x1="23.7026" y1="27.9728" x2="30.0142" y2="21.6826" gradientUnits="userSpaceOnUse">
<stop stop-color="#4CCCFF"/>
<stop offset="1" stop-color="#3A9EE6"/>
</linearGradient>
<linearGradient id="paint19_linear_937_2378" x1="26.6275" y1="27.898" x2="26.6275" y2="26.7473" gradientUnits="userSpaceOnUse">
<stop stop-color="#1E9FE4"/>
<stop offset="1" stop-color="#1E9FE4" stop-opacity="0"/>
</linearGradient>
<linearGradient id="paint20_linear_937_2378" x1="23.7026" y1="26.0443" x2="24.8771" y2="26.0443" gradientUnits="userSpaceOnUse">
<stop stop-color="#48E0FF"/>
<stop offset="1" stop-color="#48E0FF" stop-opacity="0"/>
</linearGradient>
<linearGradient id="paint21_linear_937_2378" x1="24.5873" y1="20.659" x2="25.3746" y2="23.0197" gradientUnits="userSpaceOnUse">
<stop stop-color="#43B3F2"/>
<stop offset="1" stop-color="#43B3F2" stop-opacity="0"/>
</linearGradient>
<linearGradient id="paint22_linear_937_2378" x1="13.6206" y1="28.1948" x2="21.3429" y2="28.145" gradientUnits="userSpaceOnUse">
<stop stop-color="#70504D"/>
<stop offset="1" stop-color="#9B665E"/>
</linearGradient>
<linearGradient id="paint23_linear_937_2378" x1="21.2029" y1="7.1393" x2="21.2029" y2="22.0697" gradientUnits="userSpaceOnUse">
<stop stop-color="#EA6D2E"/>
<stop offset="1" stop-color="#CA222B"/>
</linearGradient>
<linearGradient id="paint24_linear_937_2378" x1="12.8856" y1="33.2892" x2="21.8951" y2="33.2892" gradientUnits="userSpaceOnUse">
<stop stop-color="#9FA1A3"/>
<stop offset="1" stop-color="#C4C1C7"/>
</linearGradient>
<linearGradient id="paint25_linear_937_2378" x1="12.4652" y1="33.2892" x2="13.6123" y2="33.2892" gradientUnits="userSpaceOnUse">
<stop stop-color="#59675C"/>
<stop offset="1" stop-color="#59675C" stop-opacity="0"/>
</linearGradient>
<linearGradient id="paint26_linear_937_2378" x1="22.2455" y1="32.724" x2="21.1803" y2="33.2892" gradientUnits="userSpaceOnUse">
<stop stop-color="#C8CAC6"/>
<stop offset="1" stop-color="#C8CAC6" stop-opacity="0"/>
</linearGradient>
<linearGradient id="paint27_linear_937_2378" x1="19.0001" y1="36.3173" x2="19.0001" y2="34.485" gradientUnits="userSpaceOnUse">
<stop offset="0.107" stop-color="#3FD17B"/>
<stop offset="1" stop-color="#3FD17B" stop-opacity="0"/>
</linearGradient>
<radialGradient id="paint28_radial_937_2378" cx="0" cy="0" r="1" gradientUnits="userSpaceOnUse" gradientTransform="translate(24.6692 34.485) rotate(128.096) scale(2.28558 2.88335)">
<stop offset="0.171" stop-color="#228051"/>
<stop offset="1" stop-color="#228051" stop-opacity="0"/>
</radialGradient>
<radialGradient id="paint29_radial_937_2378" cx="0" cy="0" r="1" gradientUnits="userSpaceOnUse" gradientTransform="translate(35.5357 32.9432) rotate(147.147) scale(3.96754 6.50579)">
<stop stop-color="#5CEE92"/>
<stop offset="1" stop-color="#5CEE92" stop-opacity="0"/>
</radialGradient>
<linearGradient id="paint30_linear_937_2378" x1="27.3601" y1="36.4017" x2="27.3601" y2="33.953" gradientUnits="userSpaceOnUse">
<stop stop-color="#3B8478"/>
<stop offset="1" stop-color="#3B8478" stop-opacity="0"/>
</linearGradient>
<radialGradient id="paint31_radial_937_2378" cx="0" cy="0" r="1" gradientUnits="userSpaceOnUse" gradientTransform="translate(29.7209 39.2137) rotate(-110.329) scale(8.07557 3.67854)">
<stop stop-color="#2C785B"/>
<stop offset="1" stop-color="#2C785B" stop-opacity="0"/>
</radialGradient>
<radialGradient id="paint32_radial_937_2378" cx="0" cy="0" r="1" gradientUnits="userSpaceOnUse" gradientTransform="translate(30.9298 31.0935) rotate(142.112) scale(8.98818 12.1658)">
<stop offset="0.641" stop-color="#2C785B" stop-opacity="0"/>
<stop offset="0.966" stop-color="#2C785B"/>
</radialGradient>
<radialGradient id="paint33_radial_937_2378" cx="0" cy="0" r="1" gradientUnits="userSpaceOnUse" gradientTransform="translate(32.8212 30.3632) rotate(148.884) scale(5.12324 4.8772)">
<stop stop-color="#60FB9A"/>
<stop offset="1" stop-color="#60FB9A" stop-opacity="0"/>
</radialGradient>
<linearGradient id="paint34_linear_937_2378" x1="21.0329" y1="7.89815" x2="34.6999" y2="21.97" gradientUnits="userSpaceOnUse">
<stop stop-color="#FF8337"/>
<stop offset="1" stop-color="#F24747"/>
</linearGradient>
<linearGradient id="paint35_linear_937_2378" x1="21.8156" y1="7.89815" x2="8.1487" y2="21.97" gradientUnits="userSpaceOnUse">
<stop stop-color="#FF8337"/>
<stop offset="1" stop-color="#F24747"/>
</linearGradient>
</defs>
</svg>
