<svg width="35" height="32" viewBox="0 0 35 32" fill="none" xmlns="http://www.w3.org/2000/svg">
<g id="Group">
<path id="Vector" d="M19.9273 6.92749H15.2366C14.8923 6.92749 14.6191 7.20062 14.6191 7.54499V27.8275C14.6191 28.1719 14.8923 28.445 15.2366 28.445H19.9273C20.2716 28.445 20.5448 28.1719 20.5448 27.8275V7.55687C20.5448 7.21249 20.2716 6.92749 19.9273 6.92749Z" fill="url(#paint0_linear_943_50)"/>
<path id="Vector_2" d="M19.9273 6.92749H15.2366C14.8923 6.92749 14.6191 7.20062 14.6191 7.54499V27.8275C14.6191 28.1719 14.8923 28.445 15.2366 28.445H19.9273C20.2716 28.445 20.5448 28.1719 20.5448 27.8275V7.55687C20.5448 7.21249 20.2716 6.92749 19.9273 6.92749Z" fill="url(#paint1_linear_943_50)"/>
<path id="Vector_3" d="M19.9273 6.92749H15.2366C14.8923 6.92749 14.6191 7.20062 14.6191 7.54499V27.8275C14.6191 28.1719 14.8923 28.445 15.2366 28.445H19.9273C20.2716 28.445 20.5448 28.1719 20.5448 27.8275V7.55687C20.5448 7.21249 20.2716 6.92749 19.9273 6.92749Z" fill="url(#paint2_radial_943_50)"/>
<path id="Vector_4" d="M19.9273 6.92749H15.2366C14.8923 6.92749 14.6191 7.20062 14.6191 7.54499V27.8275C14.6191 28.1719 14.8923 28.445 15.2366 28.445H19.9273C20.2716 28.445 20.5448 28.1719 20.5448 27.8275V7.55687C20.5448 7.21249 20.2716 6.92749 19.9273 6.92749Z" fill="url(#paint3_radial_943_50)"/>
<path id="Vector_5" d="M19.9273 6.92749H15.2366C14.8923 6.92749 14.6191 7.20062 14.6191 7.54499V27.8275C14.6191 28.1719 14.8923 28.445 15.2366 28.445H19.9273C20.2716 28.445 20.5448 28.1719 20.5448 27.8275V7.55687C20.5448 7.21249 20.2716 6.92749 19.9273 6.92749Z" fill="url(#paint4_radial_943_50)"/>
<path id="Vector_6" d="M19.9273 6.92749H15.2366C14.8923 6.92749 14.6191 7.20062 14.6191 7.54499V27.8275C14.6191 28.1719 14.8923 28.445 15.2366 28.445H19.9273C20.2716 28.445 20.5448 28.1719 20.5448 27.8275V7.55687C20.5448 7.21249 20.2716 6.92749 19.9273 6.92749Z" fill="url(#paint5_radial_943_50)"/>
<path id="Vector_7" d="M19.9273 6.92749H15.2366C14.8923 6.92749 14.6191 7.20062 14.6191 7.54499V27.8275C14.6191 28.1719 14.8923 28.445 15.2366 28.445H19.9273C20.2716 28.445 20.5448 28.1719 20.5448 27.8275V7.55687C20.5448 7.21249 20.2716 6.92749 19.9273 6.92749Z" fill="url(#paint6_radial_943_50)"/>
<path id="Vector_8" d="M10.522 7.09375H16.4595C16.5368 7.0956 16.6135 7.08129 16.6849 7.05174C16.7563 7.02219 16.8207 6.97804 16.874 6.92214C16.9274 6.86624 16.9684 6.79982 16.9946 6.72712C17.0208 6.65442 17.0314 6.57706 17.026 6.5C16.7231 3.18806 13.9088 0.5625 10.522 0.5625C7.35139 0.5625 4.67952 2.87812 4.10952 5.89437C3.97889 6.51187 4.50139 7.09375 5.14264 7.09375H10.522Z" fill="url(#paint7_radial_943_50)"/>
<path id="Vector_9" d="M10.522 7.09375H16.4595C16.5368 7.0956 16.6135 7.08129 16.6849 7.05174C16.7563 7.02219 16.8207 6.97804 16.874 6.92214C16.9274 6.86624 16.9684 6.79982 16.9946 6.72712C17.0208 6.65442 17.0314 6.57706 17.026 6.5C16.7231 3.18806 13.9088 0.5625 10.522 0.5625C7.35139 0.5625 4.67952 2.87812 4.10952 5.89437C3.97889 6.51187 4.50139 7.09375 5.14264 7.09375H10.522Z" fill="url(#paint8_radial_943_50)"/>
<path id="Vector_10" d="M10.522 7.09375H16.4595C16.5368 7.0956 16.6135 7.08129 16.6849 7.05174C16.7563 7.02219 16.8207 6.97804 16.874 6.92214C16.9274 6.86624 16.9684 6.79982 16.9946 6.72712C17.0208 6.65442 17.0314 6.57706 17.026 6.5C16.7231 3.18806 13.9088 0.5625 10.522 0.5625C7.35139 0.5625 4.67952 2.87812 4.10952 5.89437C3.97889 6.51187 4.50139 7.09375 5.14264 7.09375H10.522Z" fill="url(#paint9_linear_943_50)"/>
<path id="Vector_11" d="M10.522 7.09375H16.4595C16.5368 7.0956 16.6135 7.08129 16.6849 7.05174C16.7563 7.02219 16.8207 6.97804 16.874 6.92214C16.9274 6.86624 16.9684 6.79982 16.9946 6.72712C17.0208 6.65442 17.0314 6.57706 17.026 6.5C16.7231 3.18806 13.9088 0.5625 10.522 0.5625C7.35139 0.5625 4.67952 2.87812 4.10952 5.89437C3.97889 6.51187 4.50139 7.09375 5.14264 7.09375H10.522Z" fill="url(#paint10_linear_943_50)"/>
<path id="Vector_12" d="M10.522 7.09375H16.4595C16.5368 7.0956 16.6135 7.08129 16.6849 7.05174C16.7563 7.02219 16.8207 6.97804 16.874 6.92214C16.9274 6.86624 16.9684 6.79982 16.9946 6.72712C17.0208 6.65442 17.0314 6.57706 17.026 6.5C16.7231 3.18806 13.9088 0.5625 10.522 0.5625C7.35139 0.5625 4.67952 2.87812 4.10952 5.89437C3.97889 6.51187 4.50139 7.09375 5.14264 7.09375H10.522Z" fill="url(#paint11_radial_943_50)"/>
<path id="Vector_13" d="M10.522 7.09375H16.4595C16.5368 7.0956 16.6135 7.08129 16.6849 7.05174C16.7563 7.02219 16.8207 6.97804 16.874 6.92214C16.9274 6.86624 16.9684 6.79982 16.9946 6.72712C17.0208 6.65442 17.0314 6.57706 17.026 6.5C16.7231 3.18806 13.9088 0.5625 10.522 0.5625C7.35139 0.5625 4.67952 2.87812 4.10952 5.89437C3.97889 6.51187 4.50139 7.09375 5.14264 7.09375H10.522Z" fill="url(#paint12_radial_943_50)"/>
<g id="Group_2" filter="url(#filter0_i_943_50)">
<path id="Vector_14" fill-rule="evenodd" clip-rule="evenodd" d="M32.1524 30.2619H3.16553C4.74143 27.8565 6.89166 25.8815 9.42205 24.5152C11.9524 23.1489 14.7833 22.4345 17.659 22.4363C23.7223 22.4363 29.0566 25.5475 32.1524 30.2619Z" fill="url(#paint13_radial_943_50)"/>
</g>
<path id="Vector_15" d="M23.3945 7.09375H17.457C17.3798 7.0956 17.303 7.08129 17.2316 7.05174C17.1602 7.02219 17.0958 6.97804 17.0425 6.92214C16.9891 6.86624 16.9481 6.79982 16.9219 6.72712C16.8958 6.65442 16.8851 6.57706 16.8906 6.5C17.1934 3.18806 20.0077 0.5625 23.3945 0.5625C26.5651 0.5625 29.237 2.87812 29.807 5.89437C29.9257 6.52375 29.4151 7.09375 28.7739 7.09375H23.3945Z" fill="url(#paint14_radial_943_50)"/>
<path id="Vector_16" d="M23.3945 7.09375H17.457C17.3798 7.0956 17.303 7.08129 17.2316 7.05174C17.1602 7.02219 17.0958 6.97804 17.0425 6.92214C16.9891 6.86624 16.9481 6.79982 16.9219 6.72712C16.8958 6.65442 16.8851 6.57706 16.8906 6.5C17.1934 3.18806 20.0077 0.5625 23.3945 0.5625C26.5651 0.5625 29.237 2.87812 29.807 5.89437C29.9257 6.52375 29.4151 7.09375 28.7739 7.09375H23.3945Z" fill="url(#paint15_radial_943_50)"/>
<path id="Vector_17" d="M23.3945 7.09375H17.457C17.3798 7.0956 17.303 7.08129 17.2316 7.05174C17.1602 7.02219 17.0958 6.97804 17.0425 6.92214C16.9891 6.86624 16.9481 6.79982 16.9219 6.72712C16.8958 6.65442 16.8851 6.57706 16.8906 6.5C17.1934 3.18806 20.0077 0.5625 23.3945 0.5625C26.5651 0.5625 29.237 2.87812 29.807 5.89437C29.9257 6.52375 29.4151 7.09375 28.7739 7.09375H23.3945Z" fill="url(#paint16_linear_943_50)"/>
<path id="Vector_18" d="M20.7702 11.3807L17.2314 7.84191C16.8158 7.42628 16.8514 6.70191 17.3383 6.36941C19.7014 4.75441 22.9789 5.00378 25.0689 7.08191C27.1589 9.17191 27.3964 12.4494 25.7814 14.8125C25.4489 15.2994 24.7246 15.3469 24.3089 14.9194L20.7702 11.3807Z" fill="url(#paint17_radial_943_50)"/>
<path id="Vector_19" d="M20.7702 11.3807L17.2314 7.84191C16.8158 7.42628 16.8514 6.70191 17.3383 6.36941C19.7014 4.75441 22.9789 5.00378 25.0689 7.08191C27.1589 9.17191 27.3964 12.4494 25.7814 14.8125C25.4489 15.2994 24.7246 15.3469 24.3089 14.9194L20.7702 11.3807Z" fill="url(#paint18_radial_943_50)"/>
<path id="Vector_20" d="M20.7702 11.3807L17.2314 7.84191C16.8158 7.42628 16.8514 6.70191 17.3383 6.36941C19.7014 4.75441 22.9789 5.00378 25.0689 7.08191C27.1589 9.17191 27.3964 12.4494 25.7814 14.8125C25.4489 15.2994 24.7246 15.3469 24.3089 14.9194L20.7702 11.3807Z" fill="url(#paint19_radial_943_50)"/>
<path id="Vector_21" d="M20.7702 11.3807L17.2314 7.84191C16.8158 7.42628 16.8514 6.70191 17.3383 6.36941C19.7014 4.75441 22.9789 5.00378 25.0689 7.08191C27.1589 9.17191 27.3964 12.4494 25.7814 14.8125C25.4489 15.2994 24.7246 15.3469 24.3089 14.9194L20.7702 11.3807Z" fill="url(#paint20_radial_943_50)"/>
<path id="Vector_22" d="M20.7702 11.3807L17.2314 7.84191C16.8158 7.42628 16.8514 6.70191 17.3383 6.36941C19.7014 4.75441 22.9789 5.00378 25.0689 7.08191C27.1589 9.17191 27.3964 12.4494 25.7814 14.8125C25.4489 15.2994 24.7246 15.3469 24.3089 14.9194L20.7702 11.3807Z" fill="url(#paint21_linear_943_50)"/>
<path id="Vector_23" d="M13.016 11.4637L16.6616 7.81811C17.0891 7.39061 17.0535 6.64248 16.5429 6.29811C14.1085 4.63561 10.736 4.88498 8.5866 7.03436C6.43723 9.18373 6.18785 12.5681 7.85035 14.9906C8.19473 15.5012 8.93098 15.5369 9.37035 15.1094L13.016 11.4637Z" fill="url(#paint22_radial_943_50)"/>
<path id="Vector_24" d="M13.016 11.4637L16.6616 7.81811C17.0891 7.39061 17.0535 6.64248 16.5429 6.29811C14.1085 4.63561 10.736 4.88498 8.5866 7.03436C6.43723 9.18373 6.18785 12.5681 7.85035 14.9906C8.19473 15.5012 8.93098 15.5369 9.37035 15.1094L13.016 11.4637Z" fill="url(#paint23_radial_943_50)"/>
<path id="Vector_25" d="M13.016 11.4637L16.6616 7.81811C17.0891 7.39061 17.0535 6.64248 16.5429 6.29811C14.1085 4.63561 10.736 4.88498 8.5866 7.03436C6.43723 9.18373 6.18785 12.5681 7.85035 14.9906C8.19473 15.5012 8.93098 15.5369 9.37035 15.1094L13.016 11.4637Z" fill="url(#paint24_radial_943_50)"/>
<path id="Vector_26" d="M13.016 11.4637L16.6616 7.81811C17.0891 7.39061 17.0535 6.64248 16.5429 6.29811C14.1085 4.63561 10.736 4.88498 8.5866 7.03436C6.43723 9.18373 6.18785 12.5681 7.85035 14.9906C8.19473 15.5012 8.93098 15.5369 9.37035 15.1094L13.016 11.4637Z" fill="url(#paint25_linear_943_50)"/>
<path id="Vector_27" d="M19.915 14.8243C20.5449 14.8243 21.149 14.5741 21.5944 14.1287C22.0398 13.6833 22.29 13.0792 22.29 12.4493C22.29 11.8195 22.0398 11.2154 21.5944 10.77C21.149 10.3246 20.5449 10.0743 19.915 10.0743C19.2851 10.0743 18.6811 10.3246 18.2357 10.77C17.7903 11.2154 17.54 11.8195 17.54 12.4493C17.54 13.0792 17.7903 13.6833 18.2357 14.1287C18.6811 14.5741 19.2851 14.8243 19.915 14.8243Z" fill="url(#paint26_radial_943_50)"/>
<path id="Vector_28" d="M19.915 14.8243C20.5449 14.8243 21.149 14.5741 21.5944 14.1287C22.0398 13.6833 22.29 13.0792 22.29 12.4493C22.29 11.8195 22.0398 11.2154 21.5944 10.77C21.149 10.3246 20.5449 10.0743 19.915 10.0743C19.2851 10.0743 18.6811 10.3246 18.2357 10.77C17.7903 11.2154 17.54 11.8195 17.54 12.4493C17.54 13.0792 17.7903 13.6833 18.2357 14.1287C18.6811 14.5741 19.2851 14.8243 19.915 14.8243Z" fill="url(#paint27_radial_943_50)"/>
<path id="Vector_29" d="M19.915 14.8243C20.5449 14.8243 21.149 14.5741 21.5944 14.1287C22.0398 13.6833 22.29 13.0792 22.29 12.4493C22.29 11.8195 22.0398 11.2154 21.5944 10.77C21.149 10.3246 20.5449 10.0743 19.915 10.0743C19.2851 10.0743 18.6811 10.3246 18.2357 10.77C17.7903 11.2154 17.54 11.8195 17.54 12.4493C17.54 13.0792 17.7903 13.6833 18.2357 14.1287C18.6811 14.5741 19.2851 14.8243 19.915 14.8243Z" fill="url(#paint28_radial_943_50)"/>
<path id="Vector_30" d="M19.915 14.8243C20.5449 14.8243 21.149 14.5741 21.5944 14.1287C22.0398 13.6833 22.29 13.0792 22.29 12.4493C22.29 11.8195 22.0398 11.2154 21.5944 10.77C21.149 10.3246 20.5449 10.0743 19.915 10.0743C19.2851 10.0743 18.6811 10.3246 18.2357 10.77C17.7903 11.2154 17.54 11.8195 17.54 12.4493C17.54 13.0792 17.7903 13.6833 18.2357 14.1287C18.6811 14.5741 19.2851 14.8243 19.915 14.8243Z" fill="url(#paint29_radial_943_50)"/>
<path id="Vector_31" d="M19.915 14.8243C20.5449 14.8243 21.149 14.5741 21.5944 14.1287C22.0398 13.6833 22.29 13.0792 22.29 12.4493C22.29 11.8195 22.0398 11.2154 21.5944 10.77C21.149 10.3246 20.5449 10.0743 19.915 10.0743C19.2851 10.0743 18.6811 10.3246 18.2357 10.77C17.7903 11.2154 17.54 11.8195 17.54 12.4493C17.54 13.0792 17.7903 13.6833 18.2357 14.1287C18.6811 14.5741 19.2851 14.8243 19.915 14.8243Z" fill="url(#paint30_radial_943_50)"/>
<path id="Vector_32" d="M19.915 14.8243C20.5449 14.8243 21.149 14.5741 21.5944 14.1287C22.0398 13.6833 22.29 13.0792 22.29 12.4493C22.29 11.8195 22.0398 11.2154 21.5944 10.77C21.149 10.3246 20.5449 10.0743 19.915 10.0743C19.2851 10.0743 18.6811 10.3246 18.2357 10.77C17.7903 11.2154 17.54 11.8195 17.54 12.4493C17.54 13.0792 17.7903 13.6833 18.2357 14.1287C18.6811 14.5741 19.2851 14.8243 19.915 14.8243Z" fill="url(#paint31_radial_943_50)"/>
<g id="Group_3" filter="url(#filter1_ii_943_50)">
<path id="Vector_33" d="M34.2068 30.1502C34.2068 29.4638 33.8114 29.1171 33.0371 28.8428C32.1465 28.5269 31.2986 27.8868 29.8974 27.8868C27.8549 27.8868 27.8549 29.0743 25.8124 29.0743C23.7699 29.0743 23.7699 27.8868 21.7155 27.8868C19.673 27.8868 19.673 29.0743 17.6186 29.0743C15.5761 29.0743 15.5761 27.8868 13.5218 27.8868C11.4793 27.8868 11.4793 29.0743 9.43676 29.0743C7.39426 29.0743 7.39426 27.8868 5.33988 27.8868C3.70113 27.8868 3.03613 28.635 1.90801 28.9318C1.34988 29.0862 0.958008 29.5968 0.958008 30.1668C0.958008 30.8793 1.52801 31.4493 2.24051 31.4493H32.878C33.8814 31.4493 34.2068 30.6418 34.2068 30.1502Z" fill="url(#paint32_linear_943_50)"/>
</g>
<g id="Group_4" filter="url(#filter2_f_943_50)">
<path id="Vector_34" d="M16.5796 7.23622L13.5337 10.0922L10.2158 5.95728C12.8829 5.09872 15.3743 6.09741 16.5796 7.23622Z" fill="url(#paint33_linear_943_50)"/>
</g>
<g id="Group_5" filter="url(#filter3_f_943_50)">
<path id="Vector_35" d="M20.5447 13.1405C21.0752 13.1405 21.5054 12.7104 21.5054 12.1798C21.5054 11.6492 21.0752 11.2191 20.5447 11.2191C20.0141 11.2191 19.584 11.6492 19.584 12.1798C19.584 12.7104 20.0141 13.1405 20.5447 13.1405Z" fill="url(#paint34_radial_943_50)"/>
</g>
<g id="Group_6" filter="url(#filter4_f_943_50)">
<path id="Vector_36" d="M19.915 6.15798C21.0016 6.02736 24.7209 6.75173 25.6744 9.97579" stroke="url(#paint35_radial_943_50)" stroke-width="0.375" stroke-linecap="round"/>
</g>
<g id="Group_7" filter="url(#filter5_f_943_50)">
<path id="Vector_37" d="M25.987 3.53902C26.9972 4.28749 28.0085 4.63452 28.2459 4.31413C28.4833 3.99374 27.8568 3.12726 26.8467 2.37879C25.8365 1.63031 24.8251 1.28329 24.5878 1.60367C24.3504 1.92406 24.9768 2.79054 25.987 3.53902Z" fill="url(#paint36_radial_943_50)"/>
</g>
<g id="Group_8" filter="url(#filter6_f_943_50)">
<path id="Vector_38" d="M12.1844 4.30022C13.2723 5.05739 14.5226 5.14188 14.9771 4.48893C15.4315 3.83598 14.918 2.69285 13.8301 1.93568C12.7423 1.17851 11.4919 1.09402 11.0375 1.74697C10.583 2.39991 11.0965 3.54304 12.1844 4.30022Z" fill="url(#paint37_radial_943_50)"/>
</g>
<path id="Vector_39" d="M15.1888 12.4256C15.4991 12.4256 15.8064 12.3645 16.0931 12.2457C16.3798 12.127 16.6404 11.9529 16.8598 11.7334C17.0792 11.514 17.2533 11.2535 17.3721 10.9668C17.4908 10.6801 17.5519 10.3728 17.5519 10.0625C17.5519 9.75214 17.4908 9.44484 17.3721 9.15814C17.2533 8.87143 17.0792 8.61092 16.8598 8.39148C16.6404 8.17205 16.3798 7.99798 16.0931 7.87922C15.8064 7.76046 15.4991 7.69934 15.1888 7.69934C14.5621 7.69934 13.961 7.94831 13.5178 8.39148C13.0747 8.83466 12.8257 9.43573 12.8257 10.0625C12.8257 10.6892 13.0747 11.2903 13.5178 11.7334C13.961 12.1766 14.5621 12.4256 15.1888 12.4256Z" fill="url(#paint38_radial_943_50)"/>
<path id="Vector_40" d="M15.1888 12.4256C15.4991 12.4256 15.8064 12.3645 16.0931 12.2457C16.3798 12.127 16.6404 11.9529 16.8598 11.7334C17.0792 11.514 17.2533 11.2535 17.3721 10.9668C17.4908 10.6801 17.5519 10.3728 17.5519 10.0625C17.5519 9.75214 17.4908 9.44484 17.3721 9.15814C17.2533 8.87143 17.0792 8.61092 16.8598 8.39148C16.6404 8.17205 16.3798 7.99798 16.0931 7.87922C15.8064 7.76046 15.4991 7.69934 15.1888 7.69934C14.5621 7.69934 13.961 7.94831 13.5178 8.39148C13.0747 8.83466 12.8257 9.43573 12.8257 10.0625C12.8257 10.6892 13.0747 11.2903 13.5178 11.7334C13.961 12.1766 14.5621 12.4256 15.1888 12.4256Z" fill="url(#paint39_radial_943_50)"/>
<path id="Vector_41" d="M15.1888 12.4256C15.4991 12.4256 15.8064 12.3645 16.0931 12.2457C16.3798 12.127 16.6404 11.9529 16.8598 11.7334C17.0792 11.514 17.2533 11.2535 17.3721 10.9668C17.4908 10.6801 17.5519 10.3728 17.5519 10.0625C17.5519 9.75214 17.4908 9.44484 17.3721 9.15814C17.2533 8.87143 17.0792 8.61092 16.8598 8.39148C16.6404 8.17205 16.3798 7.99798 16.0931 7.87922C15.8064 7.76046 15.4991 7.69934 15.1888 7.69934C14.5621 7.69934 13.961 7.94831 13.5178 8.39148C13.0747 8.83466 12.8257 9.43573 12.8257 10.0625C12.8257 10.6892 13.0747 11.2903 13.5178 11.7334C13.961 12.1766 14.5621 12.4256 15.1888 12.4256Z" fill="url(#paint40_radial_943_50)"/>
<path id="Vector_42" d="M15.1888 12.4256C15.4991 12.4256 15.8064 12.3645 16.0931 12.2457C16.3798 12.127 16.6404 11.9529 16.8598 11.7334C17.0792 11.514 17.2533 11.2535 17.3721 10.9668C17.4908 10.6801 17.5519 10.3728 17.5519 10.0625C17.5519 9.75214 17.4908 9.44484 17.3721 9.15814C17.2533 8.87143 17.0792 8.61092 16.8598 8.39148C16.6404 8.17205 16.3798 7.99798 16.0931 7.87922C15.8064 7.76046 15.4991 7.69934 15.1888 7.69934C14.5621 7.69934 13.961 7.94831 13.5178 8.39148C13.0747 8.83466 12.8257 9.43573 12.8257 10.0625C12.8257 10.6892 13.0747 11.2903 13.5178 11.7334C13.961 12.1766 14.5621 12.4256 15.1888 12.4256Z" fill="url(#paint41_radial_943_50)"/>
<g id="Group_9" filter="url(#filter7_f_943_50)">
<path id="Vector_43" d="M16.5547 10.2611C16.9941 10.0245 17.1399 9.44181 16.8803 8.95962C16.6207 8.47744 16.054 8.27836 15.6145 8.51496C15.1751 8.75156 15.0293 9.33424 15.2889 9.81642C15.5485 10.2986 16.1152 10.4977 16.5547 10.2611Z" fill="url(#paint42_radial_943_50)"/>
</g>
</g>
<defs>
<filter id="filter0_i_943_50" x="3.16553" y="22.4363" width="29.0993" height="7.93818" filterUnits="userSpaceOnUse" color-interpolation-filters="sRGB">
<feFlood flood-opacity="0" result="BackgroundImageFix"/>
<feBlend mode="normal" in="SourceGraphic" in2="BackgroundImageFix" result="shape"/>
<feColorMatrix in="SourceAlpha" type="matrix" values="0 0 0 0 0 0 0 0 0 0 0 0 0 0 0 0 0 0 127 0" result="hardAlpha"/>
<feOffset dx="0.1125" dy="0.1125"/>
<feGaussianBlur stdDeviation="0.1875"/>
<feComposite in2="hardAlpha" operator="arithmetic" k2="-1" k3="1"/>
<feColorMatrix type="matrix" values="0 0 0 0 0.858824 0 0 0 0 0.611765 0 0 0 0 0.545098 0 0 0 1 0"/>
<feBlend mode="normal" in2="shape" result="effect1_innerShadow_943_50"/>
</filter>
<filter id="filter1_ii_943_50" x="0.583008" y="27.6993" width="33.8115" height="3.75" filterUnits="userSpaceOnUse" color-interpolation-filters="sRGB">
<feFlood flood-opacity="0" result="BackgroundImageFix"/>
<feBlend mode="normal" in="SourceGraphic" in2="BackgroundImageFix" result="shape"/>
<feColorMatrix in="SourceAlpha" type="matrix" values="0 0 0 0 0 0 0 0 0 0 0 0 0 0 0 0 0 0 127 0" result="hardAlpha"/>
<feOffset dx="-0.375"/>
<feGaussianBlur stdDeviation="0.28125"/>
<feComposite in2="hardAlpha" operator="arithmetic" k2="-1" k3="1"/>
<feColorMatrix type="matrix" values="0 0 0 0 0.572549 0 0 0 0 0.952941 0 0 0 0 1 0 0 0 1 0"/>
<feBlend mode="normal" in2="shape" result="effect1_innerShadow_943_50"/>
<feColorMatrix in="SourceAlpha" type="matrix" values="0 0 0 0 0 0 0 0 0 0 0 0 0 0 0 0 0 0 127 0" result="hardAlpha"/>
<feOffset dx="0.1875" dy="-0.1875"/>
<feGaussianBlur stdDeviation="0.28125"/>
<feComposite in2="hardAlpha" operator="arithmetic" k2="-1" k3="1"/>
<feColorMatrix type="matrix" values="0 0 0 0 0.341176 0 0 0 0 0.411765 0 0 0 0 0.952941 0 0 0 1 0"/>
<feBlend mode="normal" in2="effect1_innerShadow_943_50" result="effect2_innerShadow_943_50"/>
</filter>
<filter id="filter2_f_943_50" x="9.84082" y="5.25903" width="7.11377" height="5.20813" filterUnits="userSpaceOnUse" color-interpolation-filters="sRGB">
<feFlood flood-opacity="0" result="BackgroundImageFix"/>
<feBlend mode="normal" in="SourceGraphic" in2="BackgroundImageFix" result="shape"/>
<feGaussianBlur stdDeviation="0.1875" result="effect1_foregroundBlur_943_50"/>
</filter>
<filter id="filter3_f_943_50" x="18.834" y="10.4691" width="3.42139" height="3.42139" filterUnits="userSpaceOnUse" color-interpolation-filters="sRGB">
<feFlood flood-opacity="0" result="BackgroundImageFix"/>
<feBlend mode="normal" in="SourceGraphic" in2="BackgroundImageFix" result="shape"/>
<feGaussianBlur stdDeviation="0.375" result="effect1_foregroundBlur_943_50"/>
</filter>
<filter id="filter4_f_943_50" x="19.3525" y="5.58118" width="6.88428" height="4.95715" filterUnits="userSpaceOnUse" color-interpolation-filters="sRGB">
<feFlood flood-opacity="0" result="BackgroundImageFix"/>
<feBlend mode="normal" in="SourceGraphic" in2="BackgroundImageFix" result="shape"/>
<feGaussianBlur stdDeviation="0.1875" result="effect1_foregroundBlur_943_50"/>
</filter>
<filter id="filter5_f_943_50" x="23.9751" y="0.921875" width="4.88379" height="4.0741" filterUnits="userSpaceOnUse" color-interpolation-filters="sRGB">
<feFlood flood-opacity="0" result="BackgroundImageFix"/>
<feBlend mode="normal" in="SourceGraphic" in2="BackgroundImageFix" result="shape"/>
<feGaussianBlur stdDeviation="0.28125" result="effect1_foregroundBlur_943_50"/>
</filter>
<filter id="filter6_f_943_50" x="10.3096" y="0.745117" width="5.39551" height="4.74573" filterUnits="userSpaceOnUse" color-interpolation-filters="sRGB">
<feFlood flood-opacity="0" result="BackgroundImageFix"/>
<feBlend mode="normal" in="SourceGraphic" in2="BackgroundImageFix" result="shape"/>
<feGaussianBlur stdDeviation="0.28125" result="effect1_foregroundBlur_943_50"/>
</filter>
<filter id="filter7_f_943_50" x="14.4102" y="7.66528" width="3.34863" height="3.44543" filterUnits="userSpaceOnUse" color-interpolation-filters="sRGB">
<feFlood flood-opacity="0" result="BackgroundImageFix"/>
<feBlend mode="normal" in="SourceGraphic" in2="BackgroundImageFix" result="shape"/>
<feGaussianBlur stdDeviation="0.375" result="effect1_foregroundBlur_943_50"/>
</filter>
<linearGradient id="paint0_linear_943_50" x1="14.6203" y1="17.6839" x2="20.5448" y2="17.6839" gradientUnits="userSpaceOnUse">
<stop stop-color="#56322E"/>
<stop offset="0.476" stop-color="#7E4D54"/>
<stop offset="1" stop-color="#906C65"/>
</linearGradient>
<linearGradient id="paint1_linear_943_50" x1="19.1328" y1="9.02462" x2="18.9096" y2="15.3599" gradientUnits="userSpaceOnUse">
<stop stop-color="#734951"/>
<stop offset="1" stop-color="#734951" stop-opacity="0"/>
</linearGradient>
<radialGradient id="paint2_radial_943_50" cx="0" cy="0" r="1" gradientUnits="userSpaceOnUse" gradientTransform="translate(17.9596 7.97487) rotate(61.6891) scale(5.15507 1.49654)">
<stop stop-color="#4B2231"/>
<stop offset="1" stop-color="#4B2231" stop-opacity="0"/>
</radialGradient>
<radialGradient id="paint3_radial_943_50" cx="0" cy="0" r="1" gradientUnits="userSpaceOnUse" gradientTransform="translate(17.582 7.80743) rotate(134.891) scale(5.57958 1.12149)">
<stop stop-color="#4B2231"/>
<stop offset="1" stop-color="#4B2231" stop-opacity="0"/>
</radialGradient>
<radialGradient id="paint4_radial_943_50" cx="0" cy="0" r="1" gradientUnits="userSpaceOnUse" gradientTransform="translate(17.9596 11.2999) rotate(118.377) scale(4.15993 2.97885)">
<stop stop-color="#422026"/>
<stop offset="1" stop-color="#422026" stop-opacity="0"/>
</radialGradient>
<radialGradient id="paint5_radial_943_50" cx="0" cy="0" r="1" gradientUnits="userSpaceOnUse" gradientTransform="translate(18.146 22.7652) rotate(-90) scale(2.00391 6.53125)">
<stop stop-color="#733629"/>
<stop offset="1" stop-color="#733629" stop-opacity="0"/>
</radialGradient>
<radialGradient id="paint6_radial_943_50" cx="0" cy="0" r="1" gradientUnits="userSpaceOnUse" gradientTransform="translate(18.2576 14.0454) rotate(90) scale(3.9707 2.07813)">
<stop stop-color="#63353B"/>
<stop offset="1" stop-color="#63353B" stop-opacity="0"/>
</radialGradient>
<radialGradient id="paint7_radial_943_50" cx="0" cy="0" r="1" gradientUnits="userSpaceOnUse" gradientTransform="translate(12.7723 2.92563) rotate(91.3983) scale(5.56013 12.8278)">
<stop stop-color="#9ED141"/>
<stop offset="1" stop-color="#799D4B"/>
</radialGradient>
<radialGradient id="paint8_radial_943_50" cx="0" cy="0" r="1" gradientUnits="userSpaceOnUse" gradientTransform="translate(11.421 4.28175) rotate(90) scale(2.81217 7.33197)">
<stop stop-color="#9AC644"/>
<stop offset="1" stop-color="#9AC644" stop-opacity="0"/>
</radialGradient>
<linearGradient id="paint9_linear_943_50" x1="16.7208" y1="7.43338" x2="15.183" y2="4.90519" gradientUnits="userSpaceOnUse">
<stop stop-color="#5D9501"/>
<stop offset="1" stop-color="#5D9501" stop-opacity="0"/>
</linearGradient>
<linearGradient id="paint10_linear_943_50" x1="9.03171" y1="7.564" x2="9.03171" y2="6.42638" gradientUnits="userSpaceOnUse">
<stop stop-color="#9C99A6"/>
<stop offset="1" stop-color="#9C99A6" stop-opacity="0"/>
</linearGradient>
<radialGradient id="paint11_radial_943_50" cx="0" cy="0" r="1" gradientUnits="userSpaceOnUse" gradientTransform="translate(9.62546 7.09375) rotate(160.981) scale(4.36977 1.75559)">
<stop stop-color="#66981B"/>
<stop offset="1" stop-color="#66981B" stop-opacity="0"/>
</radialGradient>
<radialGradient id="paint12_radial_943_50" cx="0" cy="0" r="1" gradientUnits="userSpaceOnUse" gradientTransform="translate(12.7925 5.92525) rotate(176.376) scale(9.49609 7.86862)">
<stop offset="0.747" stop-color="#82AB5A" stop-opacity="0"/>
<stop offset="0.984" stop-color="#82AB5A"/>
</radialGradient>
<radialGradient id="paint13_radial_943_50" cx="0" cy="0" r="1" gradientUnits="userSpaceOnUse" gradientTransform="translate(26.8288 27.8121) rotate(180) scale(14.918 12.6878)">
<stop stop-color="#FFC351"/>
<stop offset="1" stop-color="#F07B4C"/>
</radialGradient>
<radialGradient id="paint14_radial_943_50" cx="0" cy="0" r="1" gradientUnits="userSpaceOnUse" gradientTransform="translate(28.3487 4.81731) rotate(180) scale(15.3843 16.1917)">
<stop stop-color="#A3D350"/>
<stop offset="1" stop-color="#679E15"/>
</radialGradient>
<radialGradient id="paint15_radial_943_50" cx="0" cy="0" r="1" gradientUnits="userSpaceOnUse" gradientTransform="translate(27.6042 4.01219) rotate(180) scale(8.77786 4.96127)">
<stop stop-color="#A3CF56"/>
<stop offset="1" stop-color="#A3CF56" stop-opacity="0"/>
</radialGradient>
<linearGradient id="paint16_linear_943_50" x1="26.2884" y1="7.98437" x2="26.2884" y2="6.46319" gradientUnits="userSpaceOnUse">
<stop stop-color="#95A096"/>
<stop offset="1" stop-color="#95A096" stop-opacity="0"/>
</linearGradient>
<radialGradient id="paint17_radial_943_50" cx="0" cy="0" r="1" gradientUnits="userSpaceOnUse" gradientTransform="translate(23.927 8.18284) rotate(136.119) scale(4.31242 7.49196)">
<stop stop-color="#74A550"/>
<stop offset="1" stop-color="#517D2A"/>
</radialGradient>
<radialGradient id="paint18_radial_943_50" cx="0" cy="0" r="1" gradientUnits="userSpaceOnUse" gradientTransform="translate(21.2891 12.9577) rotate(-47.7616) scale(2.13752 8.79901)">
<stop stop-color="#576043"/>
<stop offset="1" stop-color="#576043" stop-opacity="0"/>
</radialGradient>
<radialGradient id="paint19_radial_943_50" cx="0" cy="0" r="1" gradientUnits="userSpaceOnUse" gradientTransform="translate(14.5453 6.2471) rotate(30.391) scale(14.2505 13.1903)">
<stop offset="0.757" stop-color="#6C9543" stop-opacity="0"/>
<stop offset="1" stop-color="#6C9543"/>
</radialGradient>
<radialGradient id="paint20_radial_943_50" cx="0" cy="0" r="1" gradientUnits="userSpaceOnUse" gradientTransform="translate(20.3071 10.9211) rotate(-103.229) scale(2.49869 1.26529)">
<stop stop-color="#3E6A0C"/>
<stop offset="1" stop-color="#3E6A0C" stop-opacity="0"/>
</radialGradient>
<linearGradient id="paint21_linear_943_50" x1="20.4959" y1="11.7215" x2="21.3117" y2="10.9045" gradientUnits="userSpaceOnUse">
<stop stop-color="#394B28"/>
<stop offset="1" stop-color="#394B28" stop-opacity="0"/>
</linearGradient>
<radialGradient id="paint22_radial_943_50" cx="0" cy="0" r="1" gradientUnits="userSpaceOnUse" gradientTransform="translate(14.213 9.23717) rotate(118.593) scale(8.35173 7.58441)">
<stop stop-color="#65943F"/>
<stop offset="1" stop-color="#4C712C"/>
</radialGradient>
<radialGradient id="paint23_radial_943_50" cx="0" cy="0" r="1" gradientUnits="userSpaceOnUse" gradientTransform="translate(12.5595 10.3087) rotate(134.648) scale(4.6914 1.41358)">
<stop stop-color="#69785C"/>
<stop offset="1" stop-color="#69785C" stop-opacity="0"/>
</radialGradient>
<radialGradient id="paint24_radial_943_50" cx="0" cy="0" r="1" gradientUnits="userSpaceOnUse" gradientTransform="translate(13.6442 10.1337) rotate(133.788) scale(2.57797 2.43915)">
<stop stop-color="#4E5E45"/>
<stop offset="1" stop-color="#4E5E45" stop-opacity="0"/>
</radialGradient>
<linearGradient id="paint25_linear_943_50" x1="12.1325" y1="11.909" x2="11.7929" y2="11.5991" gradientUnits="userSpaceOnUse">
<stop stop-color="#617247"/>
<stop offset="1" stop-color="#617247" stop-opacity="0"/>
</linearGradient>
<radialGradient id="paint26_radial_943_50" cx="0" cy="0" r="1" gradientUnits="userSpaceOnUse" gradientTransform="translate(20.5373 12.4493) rotate(130.622) scale(3.50537 4.42343)">
<stop stop-color="#B97056"/>
<stop offset="1" stop-color="#82582F"/>
</radialGradient>
<radialGradient id="paint27_radial_943_50" cx="0" cy="0" r="1" gradientUnits="userSpaceOnUse" gradientTransform="translate(19.4614 14.8243) rotate(-83.4151) scale(2.58884 2.84228)">
<stop stop-color="#B5547D"/>
<stop offset="1" stop-color="#B5547D" stop-opacity="0"/>
</radialGradient>
<radialGradient id="paint28_radial_943_50" cx="0" cy="0" r="1" gradientUnits="userSpaceOnUse" gradientTransform="translate(21.1395 14.6922) rotate(-125.655) scale(0.525219 1.69526)">
<stop stop-color="#AD619B"/>
<stop offset="1" stop-color="#AD619B" stop-opacity="0"/>
</radialGradient>
<radialGradient id="paint29_radial_943_50" cx="0" cy="0" r="1" gradientUnits="userSpaceOnUse" gradientTransform="translate(17.5864 13.9598) rotate(-32.9052) scale(0.751408 1.23935)">
<stop stop-color="#AD619B"/>
<stop offset="1" stop-color="#AD619B" stop-opacity="0"/>
</radialGradient>
<radialGradient id="paint30_radial_943_50" cx="0" cy="0" r="1" gradientUnits="userSpaceOnUse" gradientTransform="translate(17.8417 14.1059) rotate(-33.947) scale(5.36237 4.76294)">
<stop offset="0.817" stop-color="#AC794F" stop-opacity="0"/>
<stop offset="1" stop-color="#AC794F"/>
</radialGradient>
<radialGradient id="paint31_radial_943_50" cx="0" cy="0" r="1" gradientUnits="userSpaceOnUse" gradientTransform="translate(17.54 11.3545) rotate(90) scale(1.89039 0.640241)">
<stop stop-color="#893E2F"/>
<stop offset="1" stop-color="#893E2F" stop-opacity="0"/>
</radialGradient>
<linearGradient id="paint32_linear_943_50" x1="2.26307" y1="31.4493" x2="33.657" y2="31.4493" gradientUnits="userSpaceOnUse">
<stop stop-color="#5884FF"/>
<stop offset="1" stop-color="#6DD5FF"/>
</linearGradient>
<linearGradient id="paint33_linear_943_50" x1="15.2009" y1="7.38466" x2="11.4045" y2="8.14466" gradientUnits="userSpaceOnUse">
<stop stop-color="#7C9D5A"/>
<stop offset="1" stop-color="#7C9D5A" stop-opacity="0"/>
</linearGradient>
<radialGradient id="paint34_radial_943_50" cx="0" cy="0" r="1" gradientUnits="userSpaceOnUse" gradientTransform="translate(21.0074 11.9609) rotate(151.44) scale(2.81537)">
<stop stop-color="#D79F87"/>
<stop offset="1" stop-color="#D79F87" stop-opacity="0"/>
</radialGradient>
<radialGradient id="paint35_radial_943_50" cx="0" cy="0" r="1" gradientUnits="userSpaceOnUse" gradientTransform="translate(23.9631 6.74984) rotate(132.065) scale(1.81775 5.4628)">
<stop stop-color="#80B35C"/>
<stop offset="1" stop-color="#80B35C" stop-opacity="0"/>
</radialGradient>
<radialGradient id="paint36_radial_943_50" cx="0" cy="0" r="1" gradientUnits="userSpaceOnUse" gradientTransform="translate(28.3149 4.08738) rotate(-141.341) scale(4.21476 0.784443)">
<stop stop-color="#C0EF77"/>
<stop offset="1" stop-color="#C0EF77" stop-opacity="0"/>
</radialGradient>
<radialGradient id="paint37_radial_943_50" cx="0" cy="0" r="1" gradientUnits="userSpaceOnUse" gradientTransform="translate(15.9731 4.73504) rotate(-152.436) scale(5.89387 2.06758)">
<stop stop-color="#B8E172"/>
<stop offset="1" stop-color="#B8E172" stop-opacity="0"/>
</radialGradient>
<radialGradient id="paint38_radial_943_50" cx="0" cy="0" r="1" gradientUnits="userSpaceOnUse" gradientTransform="translate(15.8075 10.0625) rotate(130.622) scale(3.48783 4.40131)">
<stop stop-color="#AA674F"/>
<stop offset="1" stop-color="#82582F"/>
</radialGradient>
<radialGradient id="paint39_radial_943_50" cx="0" cy="0" r="1" gradientUnits="userSpaceOnUse" gradientTransform="translate(14.7364 12.4256) rotate(-83.4151) scale(2.57589 2.82807)">
<stop stop-color="#AC4D77"/>
<stop offset="1" stop-color="#AC4D77" stop-opacity="0"/>
</radialGradient>
<radialGradient id="paint40_radial_943_50" cx="0" cy="0" r="1" gradientUnits="userSpaceOnUse" gradientTransform="translate(14.4419 12.5075) rotate(-72.2546) scale(0.484603 1.11209)">
<stop stop-color="#AD619B"/>
<stop offset="1" stop-color="#AD619B" stop-opacity="0"/>
</radialGradient>
<radialGradient id="paint41_radial_943_50" cx="0" cy="0" r="1" gradientUnits="userSpaceOnUse" gradientTransform="translate(13.1261 11.7107) rotate(-33.947) scale(5.33555 4.73912)">
<stop offset="0.773" stop-color="#AC794F" stop-opacity="0"/>
<stop offset="1" stop-color="#AC794F"/>
</radialGradient>
<radialGradient id="paint42_radial_943_50" cx="0" cy="0" r="1" gradientUnits="userSpaceOnUse" gradientTransform="translate(16.3597 8.9813) rotate(120.874) scale(2.7094 2.83943)">
<stop stop-color="#D79F87"/>
<stop offset="1" stop-color="#D79F87" stop-opacity="0"/>
</radialGradient>
</defs>
</svg>
