<svg width="14" height="12" viewBox="0 0 14 12" fill="none" xmlns="http://www.w3.org/2000/svg">
<path d="M9.91699 5C10.8835 5 11.667 4.32843 11.667 3.5C11.667 2.67157 10.8835 2 9.91699 2C8.95049 2 8.16699 2.67157 8.16699 3.5C8.16699 4.32843 8.95049 5 9.91699 5Z" stroke="black" stroke-width="0.75" stroke-linecap="round" stroke-linejoin="round"/>
<path d="M4.0835 10C5.04999 10 5.8335 9.32843 5.8335 8.5C5.8335 7.67157 5.04999 7 4.0835 7C3.117 7 2.3335 7.67157 2.3335 8.5C2.3335 9.32843 3.117 10 4.0835 10Z" stroke="black" stroke-width="0.75" stroke-linecap="round" stroke-linejoin="round"/>
<path d="M8.16683 7H11.6668V9.5C11.6668 9.63261 11.6054 9.75979 11.496 9.85355C11.3866 9.94732 11.2382 10 11.0835 10H8.75016C8.59545 10 8.44708 9.94732 8.33768 9.85355C8.22829 9.75979 8.16683 9.63261 8.16683 9.5V7ZM2.3335 2H5.8335V4.5C5.8335 4.63261 5.77204 4.75979 5.66264 4.85355C5.55325 4.94732 5.40487 5 5.25016 5H2.91683C2.76212 5 2.61375 4.94732 2.50435 4.85355C2.39495 4.75979 2.3335 4.63261 2.3335 4.5V2Z" stroke="black" stroke-width="0.75" stroke-linecap="round" stroke-linejoin="round"/>
</svg>
