<svg width="12" height="12" viewBox="0 0 12 12" fill="none" xmlns="http://www.w3.org/2000/svg">
<path d="M6 10C7.06087 10 8.07828 9.57857 8.82843 8.82843C9.57857 8.07828 10 7.06087 10 6C10 4.93913 9.57857 3.92172 8.82843 3.17157C8.07828 2.42143 7.06087 2 6 2C4.93913 2 3.92172 2.42143 3.17157 3.17157C2.42143 3.92172 2 4.93913 2 6C2 7.06087 2.42143 8.07828 3.17157 8.82843C3.92172 9.57857 4.93913 10 6 10ZM6 1C6.65661 1 7.30679 1.12933 7.91342 1.3806C8.52005 1.63188 9.07124 2.00017 9.53553 2.46447C9.99983 2.92876 10.3681 3.47995 10.6194 4.08658C10.8707 4.69321 11 5.34339 11 6C11 7.32608 10.4732 8.59785 9.53553 9.53553C8.59785 10.4732 7.32608 11 6 11C3.235 11 1 8.75 1 6C1 4.67392 1.52678 3.40215 2.46447 2.46447C3.40215 1.52678 4.67392 1 6 1ZM6.25 3.5V6.125L8.5 7.46L8.125 8.075L5.5 6.5V3.5H6.25Z" fill="black"/>
</svg>
