<svg width="20" height="20" viewBox="0 0 20 20" fill="none" xmlns="http://www.w3.org/2000/svg">
<path d="M16.067 15.1828C16.1251 15.2409 16.1712 15.3098 16.2026 15.3857C16.234 15.4615 16.2502 15.5429 16.2502 15.625C16.2502 15.7071 16.234 15.7884 16.2026 15.8643C16.1712 15.9402 16.1251 16.0091 16.067 16.0672C16.009 16.1252 15.94 16.1713 15.8642 16.2027C15.7883 16.2342 15.707 16.2503 15.6249 16.2503C15.5427 16.2503 15.4614 16.2342 15.3855 16.2027C15.3097 16.1713 15.2407 16.1252 15.1827 16.0672L9.99986 10.8836L4.81705 16.0672C4.69977 16.1844 4.54071 16.2503 4.37486 16.2503C4.20901 16.2503 4.04995 16.1844 3.93267 16.0672C3.8154 15.9499 3.74951 15.7908 3.74951 15.625C3.74951 15.4591 3.8154 15.3001 3.93267 15.1828L9.11627 9.99998L3.93267 4.81717C3.8154 4.69989 3.74951 4.54083 3.74951 4.37498C3.74951 4.20913 3.8154 4.05007 3.93267 3.93279C4.04995 3.81552 4.20901 3.74963 4.37486 3.74963C4.54071 3.74963 4.69977 3.81552 4.81705 3.93279L9.99986 9.11639L15.1827 3.93279C15.2999 3.81552 15.459 3.74963 15.6249 3.74963C15.7907 3.74963 15.9498 3.81552 16.067 3.93279C16.1843 4.05007 16.2502 4.20913 16.2502 4.37498C16.2502 4.54083 16.1843 4.69989 16.067 4.81717L10.8835 9.99998L16.067 15.1828Z" fill="black"/>
</svg>
