<svg width="13" height="19" viewBox="0 0 13 19" fill="none" xmlns="http://www.w3.org/2000/svg">
<path d="M0.556641 9.30957V7.62451C0.556641 7.45296 0.617513 7.30632 0.739258 7.18457C0.861003 7.06283 1.00765 7.00195 1.1792 7.00195C1.35628 7.00195 1.5057 7.06283 1.62744 7.18457C1.74919 7.30632 1.81006 7.45296 1.81006 7.62451V9.25977C1.81006 10.2005 2.00374 11.0251 2.39111 11.7334C2.77848 12.4417 3.32357 12.9924 4.02637 13.3853C4.72917 13.7726 5.55371 13.9663 6.5 13.9663C7.44629 13.9663 8.26807 13.7726 8.96533 13.3853C9.66813 12.9924 10.2132 12.4417 10.6006 11.7334C10.988 11.0251 11.1816 10.2005 11.1816 9.25977V7.62451C11.1816 7.45296 11.2425 7.30632 11.3643 7.18457C11.486 7.06283 11.6354 7.00195 11.8125 7.00195C11.984 7.00195 12.1307 7.06283 12.2524 7.18457C12.3742 7.30632 12.4351 7.45296 12.4351 7.62451V9.30957C12.4351 10.3942 12.2109 11.3571 11.7627 12.1982C11.32 13.0394 10.7002 13.7145 9.90332 14.2236C9.10645 14.7272 8.17952 15.0233 7.12256 15.1118V17.0459H10.2021C10.3792 17.0459 10.5286 17.1068 10.6504 17.2285C10.7721 17.3503 10.833 17.4997 10.833 17.6768C10.833 17.8483 10.7721 17.995 10.6504 18.1167C10.5286 18.2384 10.3792 18.2993 10.2021 18.2993H2.78955C2.61247 18.2993 2.46305 18.2384 2.34131 18.1167C2.21956 17.995 2.15869 17.8483 2.15869 17.6768C2.15869 17.4997 2.21956 17.3503 2.34131 17.2285C2.46305 17.1068 2.61247 17.0459 2.78955 17.0459H5.86914V15.1118C4.81217 15.0233 3.88525 14.7272 3.08838 14.2236C2.2915 13.7145 1.66895 13.0394 1.2207 12.1982C0.777995 11.3571 0.556641 10.3942 0.556641 9.30957ZM6.5 12.1816C5.94661 12.1816 5.4624 12.0544 5.04736 11.7998C4.63232 11.5452 4.30859 11.1938 4.07617 10.7456C3.84375 10.2918 3.72754 9.76888 3.72754 9.17676V3.62354C3.72754 3.03141 3.84375 2.51123 4.07617 2.06299C4.30859 1.60921 4.63232 1.25505 5.04736 1.00049C5.4624 0.745931 5.94661 0.618652 6.5 0.618652C7.04785 0.618652 7.5293 0.745931 7.94434 1.00049C8.36491 1.25505 8.68864 1.60921 8.91553 2.06299C9.14795 2.51123 9.26416 3.03141 9.26416 3.62354V9.17676C9.26416 9.76888 9.14795 10.2918 8.91553 10.7456C8.68864 11.1938 8.36491 11.5452 7.94434 11.7998C7.5293 12.0544 7.04785 12.1816 6.5 12.1816Z" fill="#3C3C43" fill-opacity="0.6"/>
</svg>
