<svg width="25" height="23" viewBox="0 0 25 23" fill="none" xmlns="http://www.w3.org/2000/svg">
<path d="M12.5001 0.586365C14.6363 0.586365 16.612 1.00212 18.4273 1.83362C20.2427 2.66512 21.6778 3.79581 22.7327 5.22564C23.7876 6.65543 24.3151 8.21505 24.3151 9.90448C24.3151 11.5939 23.7876 13.1557 22.7327 14.5899C21.6778 16.0242 20.2449 17.157 18.4339 17.9885C16.623 18.82 14.645 19.2358 12.5001 19.2358C11.8232 19.2358 11.1243 19.1874 10.4034 19.0906C7.27383 21.2639 5.60799 22.3638 5.4058 22.3902C5.30908 22.4254 5.21676 22.421 5.12886 22.377C5.09369 22.3506 5.06733 22.3154 5.04974 22.2714C5.03215 22.2274 5.02338 22.1878 5.02338 22.1526V22.0998C5.07615 21.7567 5.4761 20.3269 6.22335 17.8103C4.52669 16.9657 3.17948 15.846 2.18171 14.4513C1.18394 13.0567 0.685059 11.5411 0.685059 9.90448C0.685059 8.21505 1.21251 6.65543 2.26743 5.22564C3.32234 3.79581 4.75745 2.66512 6.57278 1.83362C8.3881 1.00212 10.3639 0.586365 12.5001 0.586365Z" fill="#4C232D"/>
</svg>
