<svg width="17" height="22" viewBox="0 0 17 22" fill="none" xmlns="http://www.w3.org/2000/svg">
<path d="M1.61035 11.0068C1.61589 10.8132 1.65462 10.6361 1.72656 10.4756C1.7985 10.3151 1.90918 10.1602 2.05859 10.0107L10.376 1.95898C10.6139 1.72103 10.9072 1.60205 11.2559 1.60205C11.4883 1.60205 11.6986 1.65739 11.8867 1.76807C12.0804 1.87874 12.2326 2.02816 12.3433 2.21631C12.4595 2.40446 12.5176 2.61475 12.5176 2.84717C12.5176 3.19027 12.3875 3.49186 12.1274 3.75195L4.60693 10.9985L12.1274 18.2534C12.3875 18.519 12.5176 18.8206 12.5176 19.1582C12.5176 19.3962 12.4595 19.6092 12.3433 19.7974C12.2326 19.9855 12.0804 20.1349 11.8867 20.2456C11.6986 20.3618 11.4883 20.4199 11.2559 20.4199C10.9072 20.4199 10.6139 20.2982 10.376 20.0547L2.05859 12.0029C1.90365 11.8535 1.7902 11.6986 1.71826 11.5381C1.64632 11.3721 1.61035 11.195 1.61035 11.0068Z" fill="#5D5D5D"/>
</svg>
