<svg width="12" height="12" viewBox="0 0 12 12" fill="none" xmlns="http://www.w3.org/2000/svg">
<path d="M5.99672 1C8.32806 1 10.25 2.85895 10.25 5.15888C10.25 6.31785 9.8285 7.39381 9.13475 8.30579C8.3694 9.31176 7.42608 10.1882 6.36427 10.8762C6.12126 11.0352 5.90194 11.0472 5.63522 10.8762C4.56737 10.1882 3.62404 9.31176 2.86525 8.30579C2.17099 7.39381 1.75 6.31785 1.75 5.15888C1.75 2.85895 3.67194 1 5.99672 1ZM5.99672 3.88842C5.22583 3.88842 4.59711 4.5239 4.59711 5.28838C4.59711 6.05885 5.22583 6.66483 5.99672 6.66483C6.76812 6.66483 7.40289 6.05885 7.40289 5.28838C7.40289 4.5239 6.76812 3.88842 5.99672 3.88842Z" fill="#33C4A8"/>
</svg>
